<svg xmlns="http://www.w3.org/2000/svg" width="1024.57" height="512.00" viewBox="0 0 1024.57 512.00"><defs><linearGradient id="embGrad" x1="399.4" y1="25.6" x2="61.4" y2="486.4" gradientUnits="userSpaceOnUse"><stop offset="0" stop-color="#6CF3D2"/><stop offset="1" stop-color="#5A96EB"/></linearGradient></defs><g transform="translate(71.68 71.68) scale(0.72000)"><g fill="#FFFFFF" fill-rule="nonzero" transform="scale(0.250000)"><path d="M0 0 C675.84 0 1351.68 0 2048 0 C2048 675.84 2048 1351.68 2048 2048 C1372.16 2048 696.32 2048 0 2048 C0 1372.16 0 696.32 0 0 Z M961.314 68.82 C958.848 69.012 956.382 69.194 953.916 69.375 C927.862 71.308 902.26 74.694 876.534 79.21 C871.634 80.069 866.725 80.868 861.813 81.659 C857.203 82.406 852.601 83.2 848 84 C847.529 84.081 847.529 84.081 845.145 84.488 C806.695 91.15 767.598 101.045 731.185 115.173 C727.135 116.706 723.032 118.091 718.938 119.5 C711.192 122.186 703.541 125.06 695.918 128.074 C692.33 129.49 688.727 130.858 685.113 132.207 C663.766 140.211 642.718 148.942 622.819 160.124 C614.826 164.609 606.689 168.779 598.523 172.936 C586.112 179.256 573.837 185.643 562 193 C560.834 193.711 559.667 194.42 558.5 195.129 C551.611 199.331 544.785 203.631 538 208 C537.284 208.46 536.568 208.921 535.831 209.395 C524.421 216.743 513.118 224.216 502 232 C501.384 232.429 500.768 232.858 500.133 233.3 C493.145 238.177 486.384 243.202 479.832 248.66 C476.656 251.284 473.431 253.836 470.188 256.375 C469.602 256.834 469.017 257.292 468.413 257.764 C467.216 258.702 466.018 259.639 464.82 260.575 C462.982 262.014 461.147 263.456 459.312 264.898 C458.711 265.372 458.109 265.845 457.49 266.332 C456.293 267.274 455.096 268.216 453.899 269.158 C450.784 271.608 447.651 274.032 444.5 276.438 C434.917 283.901 425.93 291.89 417.43 300.562 C415.425 302.573 413.402 304.465 411.25 306.312 C401.081 315.043 391.488 324.417 382 333.875 C381.211 334.659 380.423 335.443 379.61 336.251 C375.475 340.397 371.531 344.634 367.711 349.071 C364.206 353.023 360.377 356.661 356.605 360.355 C349.573 367.3 343.266 374.803 337 382.438 C336.392 383.178 335.784 383.919 335.158 384.682 C323 399.526 323 399.526 323 402 C322.01 402.33 321.02 402.66 320 403 C318.672 404.404 318.672 404.404 317.32 406.219 C316.81 406.895 316.301 407.571 315.775 408.267 C315.231 409.004 314.686 409.741 314.125 410.5 C312.951 412.064 311.776 413.628 310.602 415.191 C310.002 415.993 309.403 416.795 308.786 417.622 C306.584 420.554 304.345 423.457 302.103 426.359 C295.427 435.014 289.001 443.834 282.638 452.721 C280.983 455.024 279.316 457.318 277.645 459.609 C267.667 473.299 258.428 487.006 250.175 501.814 C246.021 509.251 241.713 516.581 237.312 523.875 C236.677 524.929 236.042 525.984 235.387 527.07 C234.156 529.112 232.924 531.154 231.692 533.195 C218.031 555.835 205.903 579.101 195.465 603.411 C193.679 607.541 191.743 611.557 189.688 615.562 C182.222 630.258 175.914 645.622 170 661 C169.682 661.819 169.365 662.638 169.038 663.481 C162.927 679.284 157.473 695.269 152.196 711.364 C150.531 716.426 148.839 721.478 147.146 726.531 C145.544 731.38 144.013 736.251 142.512 741.133 C141.327 744.968 140.113 748.793 138.895 752.617 C131.026 777.436 125.193 802.334 120.219 827.861 C119.426 831.905 118.593 835.935 117.691 839.957 C97.509 930.123 95.329 1026.258 109.856 1136.663 C110.697 1141.863 111.4 1147.067 112.04 1152.296 C113.645 1165.357 116.007 1178.182 118.688 1191.062 C118.906 1192.124 119.125 1193.186 119.35 1194.28 C124.35 1218.495 130.495 1242.159 138.236 1265.654 C139.159 1268.489 140.036 1271.336 140.907 1274.187 C143.177 1281.606 145.687 1288.927 148.28 1296.24 C150.08 1301.328 151.808 1306.432 153.477 1311.563 C157.514 1323.944 162.139 1336.072 166.9 1348.19 C167.796 1350.479 168.679 1352.772 169.551 1355.07 C172.759 1363.379 176.42 1371.465 180.125 1379.562 C180.64 1380.694 181.156 1381.826 181.687 1382.992 C185.526 1391.295 185.526 1391.295 188.117 1395.152 C190.281 1398.425 191.555 1401.708 192.955 1405.359 C194.671 1409.696 196.718 1413.867 198.75 1418.062 C199.637 1419.906 200.524 1421.75 201.41 1423.594 C201.847 1424.503 202.284 1425.411 202.735 1426.348 C203.903 1428.797 205.049 1431.254 206.184 1433.719 C218.846 1461.223 218.846 1461.223 229.902 1466.266 C235.619 1468.267 239.819 1467.346 245.188 1465 C251.179 1461.774 253.891 1457.328 256 1451 C257.78 1441.99 253.486 1435.053 249.323 1427.437 C247.335 1423.775 245.422 1420.076 243.5 1416.38 C241.947 1413.394 240.388 1410.412 238.828 1407.43 C227.535 1385.791 217.807 1363.676 208.796 1341.005 C207.008 1336.507 205.191 1332.024 203.312 1327.562 C198.453 1315.935 194.268 1304.129 190.21 1292.201 C188.722 1287.849 187.243 1283.56 185.41 1279.34 C183.564 1274.968 182.324 1270.506 181.062 1265.938 C180.574 1264.197 180.086 1262.456 179.598 1260.715 C179.343 1259.803 179.089 1258.891 178.827 1257.951 C177.923 1254.725 177.004 1251.503 176.082 1248.281 C175.743 1247.096 175.404 1245.911 175.055 1244.689 C174.35 1242.223 173.643 1239.758 172.935 1237.293 C167.535 1218.403 163.143 1199.596 159.62 1180.267 C158.803 1175.96 157.825 1171.701 156.812 1167.438 C155.057 1159.95 153.984 1152.412 153.038 1144.783 C152.505 1140.5 151.89 1136.284 151.008 1132.059 C149.873 1126.592 149.167 1121.103 148.5 1115.562 C148.383 1114.622 148.265 1113.682 148.145 1112.713 C147.747 1109.477 147.37 1106.239 147 1103 C146.92 1102.303 146.84 1101.606 146.757 1100.889 C145.417 1089.106 144.445 1077.345 143.875 1065.5 C143.833 1064.643 143.792 1063.787 143.749 1062.904 C142.234 1030.787 142.532 998.618 143.875 966.5 C143.914 965.544 143.953 964.587 143.994 963.602 C144.74 945.914 146.521 928.447 149.067 910.931 C149.373 908.829 149.671 906.726 149.969 904.623 C152.874 884.291 156.406 864.1 160.625 844 C160.838 842.981 161.051 841.961 161.27 840.911 C166.863 814.231 172.715 787.409 181.527 761.578 C182.661 758.209 183.549 754.834 184.371 751.375 C186.166 744.012 188.63 736.897 191.125 729.75 C191.616 728.333 192.108 726.916 192.599 725.499 C199.468 705.755 206.946 686.29 215 667 C215.323 666.224 215.646 665.449 215.979 664.65 C217.911 660.015 219.863 655.388 221.827 650.766 C222.683 648.747 223.536 646.727 224.388 644.707 C235.644 618.011 235.644 618.011 241.897 606.107 C243.179 603.657 244.439 601.196 245.699 598.734 C252.291 585.914 259.227 573.318 266.393 560.811 C267.983 558.029 269.562 555.24 271.137 552.449 C279.742 537.231 288.902 522.487 298.664 507.988 C300.572 505.149 302.468 502.302 304.365 499.455 C305.372 497.942 306.381 496.43 307.391 494.918 C309.983 491.038 312.561 487.149 315.113 483.242 C319.992 475.799 324.903 468.612 330.672 461.816 C333.492 458.404 336.118 454.87 338.75 451.312 C344.464 443.617 350.452 436.174 356.544 428.776 C357.84 427.196 359.12 425.603 360.398 424.008 C365.033 418.235 369.899 412.76 375.016 407.413 C377.555 404.727 379.361 402.285 381 399 C381.99 398.67 382.98 398.34 384 398 C385.457 396.365 386.844 394.667 388.188 392.938 C391.543 388.728 394.98 384.848 398.883 381.145 C400.748 379.255 402.471 377.319 404.203 375.309 C408.153 370.759 412.355 366.498 416.625 362.25 C417.362 361.509 418.1 360.768 418.859 360.004 C422.434 356.435 426.023 353.122 430 350 C431.68 348.347 433.346 346.679 435 345 C442.197 338.074 449.557 331.421 457.355 325.176 C460.158 322.87 462.83 320.458 465.5 318 C469.859 313.998 474.323 310.19 478.93 306.477 C481.218 304.631 483.492 302.772 485.758 300.898 C493.684 294.363 501.734 288.146 510.167 282.279 C512.792 280.448 515.402 278.595 518.013 276.744 C520.157 275.227 522.305 273.715 524.453 272.203 C527.595 269.993 530.729 267.772 533.859 265.547 C545.012 257.643 556.342 250.138 568 243 C568.934 242.427 569.868 241.853 570.831 241.263 C585.036 232.571 599.441 224.314 614.035 216.301 C617.365 214.47 620.678 212.628 623.934 210.668 C633.904 204.676 644.493 200.265 655.159 195.669 C661.761 192.811 668.322 189.859 674.891 186.927 C679.53 184.859 684.173 182.801 688.817 180.743 C691.959 179.35 695.1 177.955 698.237 176.552 C721.412 166.194 745.46 158.807 769.81 151.795 C774.277 150.506 778.734 149.185 783.184 147.836 C797.949 143.363 812.787 139.397 827.785 135.777 C830.756 135.059 833.724 134.328 836.691 133.594 C854.207 129.291 871.767 126.029 889.652 123.711 C893.72 123.181 897.769 122.577 901.82 121.928 C986.098 108.576 1075.326 109.662 1159.358 124.366 C1162.484 124.91 1165.612 125.407 1168.75 125.875 C1177.308 127.303 1185.744 129.371 1194.189 131.344 C1196.756 131.943 1199.325 132.533 1201.895 133.121 C1292.553 154.066 1292.553 154.066 1324.574 171.277 C1329.843 173.927 1335.32 176.023 1340.812 178.161 C1347.54 180.781 1354.183 183.544 1360.625 186.812 C1364.277 188.663 1367.975 190.4 1371.688 192.125 C1402.126 206.284 1402.126 206.284 1412 212 C1412.602 212.345 1413.203 212.689 1413.823 213.044 C1424.152 218.971 1434.196 225.268 1444.155 231.794 C1449.645 235.382 1455.19 238.885 1460.77 242.332 C1473.861 250.429 1486.185 259.004 1498.074 268.789 C1535.133 299.244 1535.133 299.244 1551 298 C1557.188 296.893 1560.57 293.859 1564.555 289.133 C1568.477 283.345 1568.625 277.797 1568 271 C1566.017 262.697 1559.153 258.241 1552.801 253.234 C1549.865 250.893 1546.995 248.485 1544.125 246.062 C1528.961 233.394 1512.566 222.243 1496.125 211.312 C1495.41 210.837 1494.696 210.361 1493.959 209.871 C1475.232 197.416 1456.261 185.49 1436.636 174.49 C1433.944 172.968 1431.27 171.417 1428.598 169.859 C1407.012 157.339 1384.522 146.866 1361.567 137.114 C1358.8 135.913 1356.06 134.66 1353.32 133.398 C1349.094 131.466 1344.872 129.76 1340.5 128.188 C1335.37 126.317 1330.331 124.311 1325.323 122.134 C1313.458 116.981 1301.31 112.947 1289 109 C1287.071 108.373 1285.143 107.745 1283.215 107.117 C1242.698 93.984 1201.016 84.351 1158.929 77.916 C1154.353 77.216 1149.785 76.475 1145.219 75.719 C1129.55 73.158 1113.87 71.24 1098.062 69.75 C1097.201 69.667 1096.339 69.584 1095.451 69.499 C1071.556 67.226 1047.615 66.79 1023.625 66.812 C1022.407 66.813 1021.19 66.814 1019.935 66.814 C1000.335 66.841 980.854 67.277 961.314 68.82 Z M1629 316 C1619.101 327.978 1612.742 341.234 1608 356 C1607.689 356.953 1607.379 357.905 1607.059 358.887 C1603.05 372.771 1603.14 387.094 1606.531 401.048 C1607.005 403.022 1607.429 405.002 1607.848 406.988 C1613.171 431.282 1626.162 453.561 1647.273 467.383 C1656.165 472.657 1665.214 477.588 1675 481 C1675.737 481.275 1676.475 481.549 1677.234 481.832 C1682.578 483.652 1687.918 484.511 1693.5 485.188 C1694.188 485.271 1694.876 485.355 1695.584 485.442 C1713.589 487.406 1731.683 484.905 1748 477 C1748.801 476.621 1749.601 476.242 1750.426 475.852 C1774.696 463.339 1794.256 440.87 1803 415 C1810.419 391.509 1809.25 364.472 1798.125 342.312 C1796.805 339.841 1795.418 337.416 1794 335 C1793.456 334.032 1792.912 333.064 1792.352 332.066 C1785.417 320.413 1776.147 309.744 1765 302 C1764.471 301.63 1763.943 301.261 1763.398 300.88 C1721.447 271.834 1663.789 278.263 1629 316 Z M1520.68 473.852 C1518.458 475.633 1516.215 477.367 1513.945 479.086 C1513.206 479.647 1512.466 480.207 1511.704 480.785 C1510.234 481.897 1508.763 483.008 1507.29 484.118 C1502.982 487.392 1498.863 490.811 1494.815 494.402 C1492.496 496.444 1490.099 498.381 1487.688 500.312 C1482.825 504.266 1478.18 508.409 1473.566 512.648 C1468.909 516.916 1464.132 521.041 1459.312 525.125 C1456.39 527.632 1453.603 530.16 1451 533 C1451 533.66 1451 534.32 1451 535 C1450.505 535.165 1450.505 535.165 1448 536 C1446.598 537.355 1446.598 537.355 1445.062 539.188 C1444.756 539.548 1444.756 539.548 1443.207 541.375 C1442.479 542.241 1441.75 543.107 1441 544 C1440.089 545.064 1439.176 546.126 1438.262 547.188 C1431.886 554.593 1425.54 562.025 1419.255 569.508 C1418.098 570.884 1416.934 572.255 1415.77 573.625 C1405.276 586.164 1395.971 599.699 1387.051 613.389 C1386.124 614.81 1385.188 616.224 1384.25 617.637 C1378.649 626.213 1373.688 635.173 1368.658 644.09 C1367.023 646.96 1365.354 649.807 1363.676 652.652 C1348.938 677.912 1337.863 705.095 1327.105 732.24 C1326.15 734.626 1325.166 736.995 1324.16 739.359 C1314.885 761.539 1308.593 785.602 1303.438 809.042 C1302.823 811.791 1302.134 814.52 1301.438 817.25 C1300.456 821.129 1299.526 825.016 1298.623 828.914 C1296.833 836.637 1294.908 844.312 1292.838 851.965 C1290.125 862.076 1287.917 872.306 1285.706 882.537 C1284.654 887.394 1283.586 892.248 1282.516 897.101 C1281.66 900.984 1280.811 904.868 1279.976 908.754 C1270.122 954.487 1254.57 994.423 1230.312 1034.562 C1230.139 1034.851 1230.139 1034.851 1229.259 1036.312 C1219.535 1052.405 1208.73 1067.146 1196 1081 C1195.049 1082.044 1194.099 1083.088 1193.148 1084.133 C1175.379 1103.6 1155.528 1119.829 1134 1135 C1133.571 1135.304 1133.571 1135.304 1131.402 1136.84 C1099.58 1158.726 1062.681 1173.724 1025.312 1183.125 C1024.384 1183.363 1023.455 1183.602 1022.498 1183.848 C1020.616 1184.33 1018.733 1184.806 1016.849 1185.279 C1014.937 1185.763 1013.03 1186.261 1011.126 1186.774 C1003.372 1188.824 995.641 1190.063 987.688 1191.062 C987.031 1191.148 986.375 1191.233 985.698 1191.321 C977.921 1192.327 970.163 1193.12 962.332 1193.559 C961.981 1193.579 961.981 1193.579 960.203 1193.679 C956.823 1193.865 953.447 1194.02 950.065 1194.141 C941.831 1194.524 937.154 1195.398 930.855 1200.859 C925.657 1206.751 923.672 1211.567 924 1219.438 C924.948 1225.964 928.889 1230.713 933.25 1235.438 C941.785 1240.287 951.935 1239.116 961.375 1238.5 C962.105 1238.455 962.835 1238.411 963.587 1238.365 C989.467 1236.729 1015.038 1231.951 1040 1225 C1040.446 1224.879 1040.446 1224.879 1042.701 1224.266 C1048.829 1222.601 1054.923 1220.841 1061 1219 C1061.841 1218.747 1062.681 1218.493 1063.547 1218.232 C1085.396 1211.556 1106.035 1202.041 1126 1191 C1126.91 1190.502 1127.82 1190.005 1128.757 1189.492 C1147.24 1179.367 1164.717 1168.404 1181 1155 C1181.529 1154.569 1182.057 1154.138 1182.602 1153.694 C1199.138 1140.176 1215.188 1125.313 1229 1109 C1229.923 1107.939 1230.848 1106.879 1231.773 1105.82 C1240.238 1096.1 1247.996 1086.021 1255.328 1075.41 C1256.428 1073.824 1257.542 1072.248 1258.672 1070.684 C1271.209 1053.229 1281.555 1033.731 1290 1014 C1290.516 1012.815 1291.031 1011.631 1291.562 1010.41 C1294.097 1004.508 1296.61 998.604 1298.957 992.625 C1299.705 990.742 1300.476 988.868 1301.262 987 C1315.536 952.586 1323.671 916.197 1330.812 879.75 C1333.186 867.679 1335.814 855.678 1338.562 843.688 C1338.654 843.283 1338.654 843.283 1339.12 841.234 C1342.43 826.69 1346.505 812.454 1351.062 798.25 C1351.533 796.776 1352.003 795.302 1352.473 793.828 C1352.717 793.063 1352.96 792.299 1353.212 791.511 C1353.772 789.728 1354.32 787.941 1354.861 786.151 C1368.417 741.295 1386.66 698.1 1411 658 C1411.443 657.264 1411.886 656.527 1412.343 655.769 C1418.629 645.327 1425.094 635.043 1432 625 C1432.406 624.407 1432.811 623.815 1433.229 623.204 C1438.093 616.135 1443.198 609.403 1448.811 602.912 C1452.776 598.319 1456.523 593.576 1460.209 588.756 C1462.289 586.062 1464.394 583.612 1466.82 581.219 C1469 579 1469 579 1469 577 C1469.66 577 1470.32 577 1471 577 C1472.375 575.602 1472.375 575.602 1474 573.625 C1480.002 566.575 1486.573 560.125 1493.605 554.109 C1496.971 551.145 1500.229 548.069 1503.5 545 C1516.413 532.916 1529.772 521.736 1544.42 511.801 C1564.207 498.378 1564.207 498.378 1567 490 C1567.639 482.251 1567.839 476.277 1563 470 C1559.191 465.703 1555.643 462.455 1549.871 461.461 C1537.55 461.153 1529.971 466.33 1520.68 473.852 Z M1791.254 548.145 C1787.709 553.391 1786.523 557.73 1787 564 C1788.045 566.639 1789.101 568.961 1790.438 571.438 C1790.617 571.783 1790.617 571.783 1791.523 573.529 C1794.438 579.091 1797.531 584.552 1800.645 590.004 C1803.585 595.179 1806.281 600.446 1808.908 605.785 C1811.536 611.114 1814.281 616.374 1817.062 621.625 C1818.331 624.031 1819.598 626.437 1820.864 628.844 C1821.841 630.699 1822.823 632.551 1823.805 634.402 C1833.906 653.953 1841.625 674.808 1849.862 695.19 C1850.779 697.456 1851.704 699.717 1852.637 701.977 C1857.699 714.365 1862.178 726.986 1866.749 739.563 C1867.53 741.709 1868.315 743.854 1869.105 745.998 C1877.647 769.227 1883.892 792.89 1889.135 817.049 C1890.064 821.312 1891.024 825.568 1891.984 829.824 C1900.823 869.012 1907.252 908.027 1910.69 948.06 C1911 951 1911 951 1911.485 953.706 C1912.054 957.346 1912.343 960.964 1912.55 964.638 C1912.592 965.376 1912.634 966.113 1912.677 966.873 C1913.147 975.84 1913.184 984.807 1913.203 993.785 C1913.206 994.7 1913.209 995.616 1913.212 996.559 C1913.227 1001.413 1913.236 1006.268 1913.24 1011.122 C1913.245 1015.056 1913.258 1018.989 1913.281 1022.922 C1913.411 1045.755 1912.952 1068.18 1910.348 1090.878 C1909.891 1094.974 1909.544 1099.074 1909.227 1103.184 C1905.184 1152.605 1894.7 1201.132 1882 1249 C1881.832 1249.637 1881.832 1249.637 1880.98 1252.859 C1878.082 1263.732 1875.004 1274.475 1871.126 1285.041 C1869.395 1289.77 1867.931 1294.53 1866.562 1299.375 C1864.388 1307.001 1861.736 1314.387 1858.941 1321.805 C1857.171 1326.508 1855.485 1331.238 1853.806 1335.975 C1848.052 1352.177 1841.953 1368.277 1834.896 1383.962 C1833.579 1386.957 1832.421 1390.008 1831.25 1393.062 C1828.282 1400.624 1824.717 1407.817 1821.006 1415.037 C1819.754 1417.48 1818.526 1419.934 1817.302 1422.391 C1816.673 1423.652 1816.043 1424.912 1815.411 1426.171 C1813.201 1430.58 1811.015 1435 1808.84 1439.426 C1799.718 1457.919 1790.09 1476.064 1779.129 1493.547 C1776.877 1497.163 1774.732 1500.84 1772.578 1504.515 C1759.061 1527.57 1744.925 1550.018 1728.777 1571.32 C1726.434 1574.413 1724.143 1577.539 1721.875 1580.688 C1717.795 1586.327 1713.549 1591.832 1709.287 1597.334 C1708.004 1598.994 1706.73 1600.66 1705.457 1602.328 C1694.031 1617.294 1681.938 1631.682 1669.223 1645.566 C1665.133 1650.044 1661.162 1654.618 1657.254 1659.254 C1651.674 1665.852 1646.038 1672.152 1639.766 1678.109 C1638 1680 1638 1680 1638 1682 C1637.464 1682.206 1636.928 1682.412 1636.375 1682.625 C1633.08 1684.533 1630.406 1687.048 1628 1690 C1628 1690.66 1628 1691.32 1628 1692 C1627.419 1692.254 1626.838 1692.509 1626.239 1692.771 C1623.758 1694.133 1622.145 1695.643 1620.172 1697.668 C1619.813 1698.032 1619.813 1698.032 1617.996 1699.877 C1617.255 1700.639 1616.514 1701.402 1615.75 1702.188 C1610.909 1707.144 1606.049 1711.961 1600.766 1716.449 C1598.982 1718.016 1597.331 1719.662 1595.688 1721.375 C1592.03 1725.098 1588.009 1728.288 1583.945 1731.555 C1580.926 1734.062 1578.049 1736.692 1575.188 1739.375 C1569.929 1744.277 1564.397 1748.717 1558.711 1753.109 C1554.705 1756.208 1550.792 1759.416 1546.875 1762.625 C1535.987 1771.505 1524.7 1779.673 1513.091 1787.575 C1509.596 1789.957 1506.111 1792.354 1502.625 1794.75 C1501.951 1795.212 1501.276 1795.675 1500.581 1796.151 C1497.006 1798.606 1493.462 1801.097 1489.938 1803.625 C1478.331 1811.761 1465.704 1818.521 1453.435 1825.593 C1451.043 1826.975 1448.656 1828.365 1446.27 1829.758 C1441.525 1832.526 1436.765 1835.268 1432 1838 C1431.232 1838.443 1430.463 1838.886 1429.672 1839.343 C1414.879 1847.837 1399.537 1854.996 1384 1862 C1383.169 1862.377 1382.338 1862.753 1381.481 1863.142 C1372.497 1867.204 1363.381 1870.846 1354.18 1874.383 C1347.525 1876.946 1340.94 1879.661 1334.449 1882.617 C1325.182 1886.826 1315.794 1890.208 1306.105 1893.324 C1302.554 1894.47 1299.045 1895.697 1295.543 1896.984 C1258.742 1910.473 1219.735 1918.385 1181.289 1925.569 C1179.082 1925.985 1176.878 1926.41 1174.674 1926.839 C1134.973 1934.542 1094.393 1937.86 1054 1939 C1053.311 1939.021 1052.621 1939.041 1051.911 1939.062 C1031.005 1939.668 1010.135 1938.744 989.253 1937.782 C987.221 1937.689 985.188 1937.599 983.155 1937.509 C967.778 1936.817 952.621 1935.748 937.407 1933.37 C933.932 1932.836 930.45 1932.359 926.967 1931.878 C922.641 1931.28 918.32 1930.64 914 1930 C913.524 1929.93 913.524 1929.93 911.116 1929.575 C886.622 1925.928 862.462 1920.805 838.432 1914.849 C835.975 1914.241 833.519 1913.637 831.061 1913.038 C802.218 1906 802.218 1906 790.32 1902.078 C786.822 1900.942 783.299 1899.966 779.75 1899 C774.345 1897.473 769.261 1895.58 764.113 1893.344 C760.686 1891.865 757.223 1890.492 753.75 1889.125 C748.465 1887.034 743.254 1884.812 738.062 1882.5 C732.851 1880.182 727.612 1878.069 722.25 1876.125 C713.476 1872.924 705.034 1869.055 696.551 1865.16 C694.073 1864.033 691.585 1862.934 689.09 1861.844 C664.766 1851.181 641.806 1838.019 618.973 1824.514 C615.136 1822.246 611.282 1820.013 607.403 1817.818 C597.151 1812.018 587.466 1805.662 577.889 1798.823 C572.377 1794.911 566.752 1791.21 561.062 1787.562 C548.77 1779.66 536.799 1771.273 525.48 1762.02 C522.374 1759.491 519.218 1757.029 516.062 1754.562 C511.813 1751.236 507.601 1747.873 503.438 1744.438 C499.587 1741.262 495.663 1738.203 491.688 1735.188 C485.18 1730.231 478.984 1724.951 472.818 1719.58 C470.964 1717.969 469.102 1716.368 467.238 1714.77 C460.52 1708.996 453.886 1703.16 447.474 1697.045 C440.245 1690.235 434.336 1686.512 424.148 1686.586 C417.828 1687.417 413.718 1691.153 409.5 1695.688 C406.051 1701.004 406.553 1706.878 407 1713 C409.547 1720.239 415.005 1725.167 420.707 1730.023 C423.294 1732.254 425.801 1734.56 428.312 1736.875 C432.752 1740.925 437.322 1744.752 441.992 1748.531 C450.426 1755.453 458.611 1762.655 466.562 1770.125 C475.298 1778.297 484.725 1785.562 494.582 1792.332 C505.382 1799.782 515.837 1807.756 526.188 1815.812 C540.578 1826.912 555.676 1836.691 571.141 1846.225 C574.968 1848.601 578.765 1851.024 582.562 1853.448 C585.483 1855.307 588.423 1857.129 591.375 1858.938 C592.331 1859.524 593.288 1860.111 594.273 1860.715 C594.548 1860.883 594.548 1860.883 595.94 1861.731 C597.573 1862.737 599.196 1863.755 600.817 1864.779 C608.682 1869.706 616.721 1874.109 625 1878.312 C626.916 1879.293 628.832 1880.275 630.748 1881.258 C632.022 1881.911 633.296 1882.564 634.571 1883.215 C640.174 1886.081 645.745 1889.004 651.312 1891.938 C665.576 1899.421 679.944 1906.449 694.676 1912.97 C696.211 1913.65 697.744 1914.334 699.275 1915.022 C715.19 1922.163 731.573 1928.16 748 1934 C748.851 1934.303 749.702 1934.606 750.579 1934.918 C761.655 1938.851 772.779 1942.635 783.941 1946.316 C787.086 1947.356 790.218 1948.421 793.34 1949.527 C806.287 1954.074 819.539 1957.36 832.889 1960.503 C834.385 1960.855 835.881 1961.21 837.376 1961.565 C852.064 1965.049 866.811 1967.943 881.688 1970.5 C882.81 1970.693 883.932 1970.886 885.088 1971.085 C921.595 1977.328 957.763 1980.899 994.779 1981.909 C998.135 1982.004 1001.489 1982.111 1004.844 1982.219 C1052.203 1983.723 1098.97 1981.758 1146 1976 C1146.53 1975.936 1146.53 1975.936 1149.215 1975.61 C1155.492 1974.834 1161.746 1973.938 1168 1973 C1168.604 1972.912 1168.604 1972.912 1171.661 1972.465 C1187.522 1970.148 1203.226 1967.586 1218.808 1963.771 C1222.671 1962.838 1226.542 1961.942 1230.414 1961.047 C1232.69 1960.519 1234.966 1959.991 1237.242 1959.462 C1238.719 1959.119 1240.196 1958.777 1241.674 1958.435 C1251.203 1956.227 1260.613 1953.766 1270 1951 C1271.504 1950.572 1273.007 1950.145 1274.512 1949.719 C1287.104 1946.074 1299.476 1941.818 1311.86 1937.53 C1313.378 1937.004 1314.896 1936.479 1316.414 1935.953 C1316.785 1935.825 1316.785 1935.825 1318.663 1935.175 C1324.002 1933.331 1329.361 1931.56 1334.734 1929.816 C1352.526 1924.027 1370.01 1917.246 1386.839 1909.05 C1389.463 1907.775 1392.095 1906.514 1394.727 1905.254 C1399.028 1903.193 1403.327 1901.128 1407.625 1899.059 C1411.66 1897.119 1415.7 1895.193 1419.75 1893.285 C1428.853 1888.995 1437.841 1884.594 1446.68 1879.781 C1449.651 1878.187 1452.648 1876.706 1455.688 1875.25 C1469.682 1868.319 1482.836 1859.55 1496.038 1851.231 C1498.085 1849.946 1500.139 1848.673 1502.195 1847.402 C1508.78 1843.326 1515.285 1839.213 1521.586 1834.703 C1524.31 1832.781 1527.088 1830.954 1529.875 1829.125 C1538.886 1823.14 1547.384 1816.485 1555.936 1809.869 C1560.053 1806.697 1564.234 1803.62 1568.438 1800.562 C1578.552 1793.185 1588.405 1785.616 1597.621 1777.129 C1600.853 1774.237 1604.246 1771.575 1607.676 1768.922 C1610.289 1766.761 1612.618 1764.412 1615 1762 C1619.884 1757.459 1624.835 1752.991 1629.875 1748.625 C1637.911 1741.624 1645.721 1734.355 1653.312 1726.875 C1654.216 1725.986 1655.12 1725.096 1656.051 1724.18 C1658 1722 1658 1722 1658 1720 C1658.66 1720 1659.32 1720 1660 1720 C1661.48 1718.461 1661.48 1718.461 1663.188 1716.375 C1665.484 1713.665 1667.75 1711.247 1670.5 1709 C1673.638 1706.401 1676.216 1703.569 1678.852 1700.469 C1681.66 1697.242 1684.579 1694.125 1687.5 1691 C1691.457 1686.76 1695.363 1682.496 1699.145 1678.098 C1701.118 1675.866 1703.155 1673.699 1705.197 1671.53 C1711.401 1664.918 1717.052 1658.019 1722.576 1650.835 C1725.095 1647.588 1727.676 1644.391 1730.25 1641.188 C1736.804 1633.01 1743.221 1624.749 1749.492 1616.352 C1751.259 1613.985 1753.037 1611.627 1754.82 1609.273 C1765.278 1595.447 1775.236 1581.313 1784.782 1566.843 C1786.429 1564.35 1788.087 1561.865 1789.746 1559.379 C1790.581 1558.128 1791.415 1556.877 1792.248 1555.625 C1794.333 1552.492 1796.426 1549.366 1798.535 1546.25 C1804.328 1537.67 1809.778 1528.938 1815 1520 C1815.348 1519.408 1815.696 1518.817 1816.055 1518.207 C1820.481 1510.67 1824.556 1503.013 1828.418 1495.176 C1830.94 1490.113 1833.685 1485.205 1836.582 1480.348 C1841.489 1472.095 1845.804 1463.626 1850 1455 C1850.445 1454.091 1850.89 1453.181 1851.349 1452.244 C1860.803 1432.9 1869.907 1413.368 1877.684 1393.281 C1878.687 1390.78 1879.74 1388.339 1880.852 1385.887 C1883.437 1380.115 1885.681 1374.219 1887.938 1368.312 C1888.146 1367.771 1888.146 1367.771 1889.201 1365.033 C1900.063 1336.712 1909.917 1307.878 1918.223 1278.707 C1918.899 1276.351 1919.597 1274.004 1920.312 1271.66 C1929.86 1240.354 1938.144 1207.769 1942.658 1175.333 C1943.491 1169.647 1944.501 1163.986 1945.468 1158.321 C1945.991 1155.216 1946.496 1152.108 1947 1149 C1947.112 1148.337 1947.223 1147.674 1947.338 1146.992 C1949.968 1131.278 1951.318 1115.495 1952.625 1099.625 C1952.843 1097.04 1953.062 1094.456 1953.281 1091.871 C1953.868 1084.915 1954.448 1077.959 1955 1071 C1955.093 1069.882 1955.187 1068.763 1955.283 1067.611 C1955.976 1058.808 1956.178 1050.037 1956.203 1041.211 C1956.21 1039.714 1956.217 1038.217 1956.224 1036.72 C1956.243 1031.938 1956.248 1027.157 1956.25 1022.375 C1956.25 1021.968 1956.25 1021.968 1956.252 1019.906 C1956.271 993.911 1955.613 968.136 1953.202 942.238 C1952.938 939.317 1952.706 936.394 1952.475 933.471 C1951.105 916.141 1948.832 899.019 1945.966 881.882 C1945.234 877.487 1944.56 873.088 1943.918 868.68 C1941.546 852.69 1938.387 836.963 1934.875 821.188 C1934.657 820.206 1934.439 819.224 1934.215 818.213 C1933.584 815.384 1932.946 812.557 1932.305 809.73 C1932.117 808.896 1931.93 808.062 1931.737 807.202 C1930.577 802.15 1929.203 797.2 1927.683 792.244 C1926.873 789.584 1926.152 786.907 1925.457 784.215 C1918.079 756.005 1908.554 728.531 1899 701 C1898.771 700.338 1898.542 699.676 1898.305 698.994 C1894.192 687.115 1890.06 675.378 1884.508 664.086 C1882.887 660.769 1881.426 657.403 1880 654 C1875.295 642.792 1870.499 631.716 1864.965 620.891 C1862.881 616.804 1860.936 612.658 1859 608.5 C1853.432 596.594 1847.628 584.941 1841.008 573.582 C1838.789 569.702 1836.835 565.703 1834.875 561.688 C1826.095 543.835 1826.095 543.835 1817.312 539.75 C1806.572 537.318 1798.155 539.326 1791.254 548.145 Z M1562.188 697.582 C1558.736 701.397 1556.296 705.415 1554 710 C1553.794 710.355 1553.794 710.355 1552.75 712.152 C1548.027 721.485 1548.605 733.889 1550.883 743.867 C1555.169 755.93 1563.56 765.706 1574.812 771.812 C1585.774 776.852 1599.915 777.783 1611.438 773.75 C1626.483 766.359 1634.967 757.865 1641 742 C1644.195 729.905 1642.406 716.227 1636.688 705.25 C1630.107 694.295 1621.151 687.923 1609 684 C1591.655 679.72 1574.858 685.459 1562.188 697.582 Z M1020 735 C1018.718 735.416 1017.435 735.832 1016.152 736.246 C1009.231 738.496 1002.387 740.901 995.617 743.574 C992.901 744.645 990.18 745.684 987.445 746.707 C959.541 757.29 933.339 774.006 910.754 793.49 C908.943 795.049 907.113 796.583 905.277 798.113 C895.43 806.37 886.264 815.138 878 825 C877.337 825.785 876.675 826.57 875.992 827.379 C840.536 870.015 817.938 918.987 806 973 C805.816 973.803 805.631 974.607 805.441 975.435 C802.481 988.546 801.27 1001.749 800.25 1015.125 C800.185 1015.959 800.12 1016.793 800.053 1017.653 C798.524 1037.642 798.889 1057.382 800.188 1077.375 C800.251 1078.381 800.315 1079.388 800.381 1080.424 C801.305 1094.699 802.61 1108.883 804.5 1123.062 C804.601 1123.83 804.703 1124.598 804.807 1125.389 C805.965 1134.019 807.445 1142.523 809.344 1151.026 C810.103 1154.466 810.693 1157.897 811.25 1161.375 C812.67 1169.811 814.525 1178.15 816.375 1186.5 C818.993 1198.324 821.497 1210.161 823.82 1222.047 C824.587 1225.963 825.395 1229.866 826.242 1233.766 C833.885 1269.392 837.816 1306.581 838.937 1342.993 C838.996 1344.858 839.077 1346.722 839.16 1348.586 C839.645 1367.353 836.594 1386.608 833 1405 C832.924 1405.4 832.924 1405.4 832.542 1407.426 C824.32 1450.029 805.562 1488.922 779 1523 C778.236 1523.982 777.471 1524.965 776.684 1525.977 C772.993 1530.61 769.38 1534.925 764.703 1538.586 C763 1540 763 1540 760.645 1542.387 C755.859 1547.116 750.398 1551.005 745 1555 C744.3 1555.523 743.6 1556.045 742.878 1556.584 C732.667 1564.155 722.101 1570.887 711 1577.062 C709.891 1577.681 708.782 1578.3 707.64 1578.938 C680.465 1593.79 648.642 1602.322 618 1606 C617.658 1606.046 617.658 1606.046 615.927 1606.279 C578.484 1610.776 540.144 1605.786 504 1596 C502.395 1595.583 500.79 1595.168 499.184 1594.754 C489.841 1592.301 480.642 1589.362 471.438 1586.438 C470.842 1586.249 470.842 1586.249 467.83 1585.297 C461.354 1583.212 455.157 1580.887 449 1578 C441.968 1574.908 436.365 1574.234 429 1577 C423.774 1580.366 419.252 1584.759 417.453 1590.852 C415.833 1598.533 416.841 1605.329 421 1612 C427.639 1619.029 438.529 1622.075 447.5 1624.938 C449.636 1625.631 451.771 1626.325 453.906 1627.02 C454.947 1627.355 455.987 1627.691 457.059 1628.038 C459.623 1628.877 462.173 1629.744 464.719 1630.637 C489.734 1639.379 515.988 1644.591 542.188 1648.25 C542.772 1648.332 542.772 1648.332 545.729 1648.745 C559.813 1650.622 573.767 1651.187 587.957 1651.185 C590.666 1651.187 593.375 1651.206 596.084 1651.225 C612.554 1651.28 628.53 1649.932 644.625 1646.312 C645.218 1646.181 645.218 1646.181 648.219 1645.514 C651.819 1644.699 655.41 1643.857 659 1643 C660.066 1642.746 661.131 1642.492 662.229 1642.231 C685.549 1636.532 707.831 1627.273 729 1616 C730.265 1615.349 731.531 1614.699 732.797 1614.051 C751.051 1604.627 767.017 1592.703 782.513 1579.288 C783.876 1578.107 785.246 1576.934 786.617 1575.762 C793.611 1569.65 799.841 1562.935 806 1556 C806.466 1555.479 806.931 1554.958 807.411 1554.422 C818.708 1541.708 828.488 1527.717 837 1513 C837.411 1512.296 837.821 1511.592 838.245 1510.867 C848.356 1493.416 856.64 1475.145 863 1456 C863.495 1454.56 863.991 1453.119 864.488 1451.68 C890.232 1376.596 882.789 1297.612 865.785 1221.543 C864.617 1216.269 863.525 1210.979 862.438 1205.688 C861.188 1199.611 859.906 1193.546 858.535 1187.496 C854.828 1170.996 852.105 1154.491 849.802 1137.749 C849.28 1133.962 848.729 1130.182 848.129 1126.406 C840.002 1074.915 840.216 1022.038 851 971 C851.091 970.565 851.091 970.565 851.552 968.366 C860.209 927.688 881.162 886.102 909.516 855.695 C911.495 853.548 913.418 851.375 915.328 849.168 C925.735 837.244 936.882 826.851 950 818 C950.644 817.559 951.288 817.119 951.951 816.665 C959.476 811.517 967.073 806.51 975 802 C975.708 801.596 976.416 801.193 977.145 800.777 C987.532 794.881 997.84 789.307 1009 785 C1009.545 784.787 1009.545 784.787 1012.301 783.707 C1043.474 772.021 1079.524 765.029 1112.789 764.762 C1113.799 764.752 1114.808 764.742 1115.848 764.732 C1119.107 764.707 1122.366 764.695 1125.625 764.688 C1126.739 764.685 1127.853 764.682 1129.001 764.68 C1147.661 764.675 1165.599 765.777 1184 769 C1184.942 769.16 1185.885 769.32 1186.856 769.485 C1194.825 770.87 1202.668 772.666 1210.523 774.586 C1211.65 774.861 1212.776 775.135 1213.936 775.418 C1216.131 775.959 1218.325 776.509 1220.515 777.07 C1228.98 779.184 1236.062 780.194 1244 776 C1248.746 771.992 1252.614 767.176 1253.203 760.801 C1253.347 753.189 1252.287 747.326 1247.312 741.375 C1237.58 732.435 1220.508 729.894 1208 727 C1207.211 726.817 1206.422 726.634 1205.609 726.445 C1189.27 722.766 1172.666 721.331 1156 720 C1155.388 719.951 1155.388 719.951 1152.289 719.701 C1143.101 719.021 1133.956 718.837 1124.75 718.875 C1124.389 718.876 1124.389 718.876 1122.56 718.882 C1087.354 719.008 1053.49 723.789 1020 735 Z M1119.125 838.688 C1116.54 842.718 1115.489 846.207 1116 851 C1117.776 855.267 1119.98 858.391 1123.125 861.75 C1123.922 862.611 1124.718 863.472 1125.539 864.359 C1126.351 865.231 1127.163 866.102 1128 867 C1129.503 868.664 1131.003 870.33 1132.5 872 C1134.772 874.525 1137.044 877.049 1139.32 879.57 C1140.081 880.413 1140.841 881.256 1141.625 882.125 C1142.298 882.87 1142.971 883.615 1143.664 884.383 C1144.937 885.81 1146.205 887.242 1147.444 888.698 C1152.648 894.781 1158.304 900.384 1164 906 C1178.413 920.21 1178.413 920.21 1183.279 926.708 C1186.744 931.262 1190.327 933.423 1196.016 934.316 C1201.21 934.624 1204.053 933.23 1208 930 C1208.743 929.464 1209.485 928.928 1210.25 928.375 C1213.695 923.699 1214.194 918.171 1213.688 912.5 C1211.392 907.739 1208.177 904.37 1204.522 900.587 C1202.79 898.782 1201.088 896.951 1199.387 895.117 C1193.338 888.605 1187.238 882.175 1180.906 875.938 C1178.415 873.406 1176.123 870.727 1173.812 868.031 C1171.072 864.96 1168.121 862.112 1165.191 859.223 C1162.582 856.576 1160.174 853.795 1157.754 850.977 C1155.232 848.135 1152.55 845.473 1149.836 842.816 C1148.344 841.34 1146.912 839.803 1145.5 838.25 C1141.473 834.626 1137.302 832.376 1131.938 831.5 C1126.489 832.427 1123.055 835.014 1119.125 838.688 Z M1007.422 863.469 C1003.976 867.508 1002.754 870.272 1002.438 875.5 C1002.354 876.48 1002.27 877.459 1002.184 878.469 C1004.962 890.488 1020.018 901.144 1028.516 909.475 C1035.81 916.638 1042.934 923.708 1049.224 931.787 C1050.912 933.89 1052.682 935.759 1054.625 937.625 C1057.185 940.085 1059.315 942.654 1061.438 945.5 C1063.663 948.434 1065.862 950.891 1068.688 953.25 C1072.235 956.221 1075.387 959.461 1078.5 962.875 C1079.001 963.425 1079.502 963.974 1080.019 964.54 C1081.098 965.724 1082.176 966.909 1083.255 968.093 C1094.426 980.299 1105.968 992.109 1117.758 1003.715 C1120 1006 1120 1006 1122.188 1008.812 C1122.786 1009.534 1123.384 1010.256 1124 1011 C1124.66 1011 1125.32 1011 1126 1011 C1126.131 1011.293 1126.131 1011.293 1126.797 1012.777 C1129.773 1018.276 1135.068 1023.063 1141 1025 C1146.679 1025.263 1150.571 1023.605 1155 1020 C1158.828 1015.775 1159.378 1011.791 1159.273 1006.128 C1158.309 998.619 1152.94 993.453 1147.688 988.5 C1146.328 987.182 1144.97 985.861 1143.613 984.539 C1142.976 983.921 1142.339 983.302 1141.682 982.665 C1139.811 980.813 1138.068 978.89 1136.375 976.875 C1133.284 973.208 1129.907 969.87 1126.5 966.5 C1122.394 962.435 1118.406 958.343 1114.656 953.941 C1109.348 947.719 1103.766 941.726 1098.25 935.688 C1097.368 934.722 1096.487 933.756 1095.578 932.762 C1088.483 925.161 1088.483 925.161 1085 924 C1084.863 923.719 1084.863 923.719 1084.168 922.297 C1082.503 919.024 1079.929 916.765 1077.312 914.25 C1073.38 910.396 1069.604 906.511 1066.031 902.316 C1063.137 899.016 1060.128 895.826 1057.125 892.625 C1050.877 885.958 1044.682 879.251 1038.699 872.344 C1028.202 860.347 1028.202 860.347 1021.062 859 C1015.937 858.672 1011.227 859.927 1007.422 863.469 Z M1580 878 C1579.205 878.329 1578.409 878.657 1577.59 878.996 C1565.444 884.421 1556.881 893.919 1551.625 906 C1547.529 918.357 1549.236 931.486 1555 943 C1560.494 951.948 1568.272 959.014 1578 963 C1578.564 963.25 1579.129 963.5 1579.71 963.758 C1584.914 965.926 1589.51 966.546 1595.125 966.5 C1595.952 966.494 1596.779 966.489 1597.63 966.483 C1610.646 966.109 1620.661 961.146 1629.926 952.125 C1639.707 941.737 1642.6 929.882 1642.25 915.977 C1641.496 903.98 1636.895 894.044 1628.176 885.785 C1624.719 882.949 1621.029 880.909 1617 879 C1616.357 878.692 1615.714 878.384 1615.051 878.066 C1604.554 873.308 1590.466 873.113 1580 878 Z M939.074 921.629 C936.073 925.174 934.576 928.28 934.25 932.938 C935.068 942.518 942.853 949.246 949.438 955.562 C954.289 960.267 958.984 964.999 963.389 970.127 C965.764 972.888 968.218 975.573 970.688 978.25 C971.194 978.799 971.7 979.349 972.221 979.915 C976.316 984.328 980.552 988.583 984.833 992.816 C989.668 997.617 994.153 1002.604 998.312 1008 C998.869 1008.66 999.426 1009.32 1000 1010 C1000.66 1010 1001.32 1010 1002 1010 C1002.244 1010.572 1002.487 1011.145 1002.738 1011.734 C1004.225 1014.404 1005.981 1016.138 1008.188 1018.25 C1010.98 1020.93 1013.6 1023.67 1016.113 1026.609 C1020.795 1032.013 1025.912 1036.984 1031 1042 C1037.233 1048.145 1043.329 1054.326 1049 1061 C1051.169 1063.438 1053.352 1065.863 1055.543 1068.281 C1057.286 1070.21 1059.016 1072.147 1060.738 1074.094 C1074.593 1089.645 1074.593 1089.645 1083.812 1090.25 C1088.533 1090.164 1092.049 1088.977 1095.445 1085.535 C1098.695 1081.738 1100.176 1079.314 1100.375 1074.375 C1100.399 1073.966 1100.399 1073.966 1100.523 1071.898 C1098.756 1062.11 1089.438 1055.127 1082.625 1048.5 C1080.405 1046.327 1078.189 1044.149 1075.977 1041.969 C1075.448 1041.448 1074.919 1040.928 1074.373 1040.392 C1070.893 1036.946 1067.582 1033.404 1064.429 1029.652 C1062.865 1027.844 1061.207 1026.173 1059.5 1024.5 C1057.169 1022.21 1054.99 1019.865 1052.875 1017.375 C1049.175 1013.067 1045.152 1009.114 1041.058 1005.183 C1037.739 1001.938 1034.795 998.542 1031.906 994.906 C1026.373 988.051 1020.156 981.971 1013.875 975.812 C1011.598 973.572 1009.325 971.329 1007.055 969.082 C1006.785 968.816 1006.785 968.816 1005.423 967.467 C1001.908 963.966 998.571 960.361 995.356 956.581 C993.669 954.614 991.864 952.799 990 951 C986.833 947.876 983.884 944.638 980.98 941.27 C977.601 937.397 974.13 933.61 970.633 929.844 C969.087 928.174 967.555 926.492 966.055 924.781 C961.957 920.283 957.959 918.274 952 917 C947.263 917 942.687 918.573 939.074 921.629 Z M417.371 978.996 C410.12 989.191 406.998 1000.696 408.203 1013.09 C410.028 1023.74 416.074 1035.163 424.465 1042.012 C426.96 1043.703 429.463 1045.372 432 1047 C432.928 1047.598 433.856 1048.196 434.812 1048.812 C445.651 1052.85 457.811 1053.114 468.68 1049.062 C481.333 1043.268 488.68 1034.729 494 1022 C496.942 1011.956 496.503 997.433 492 988 C491.609 987.176 491.219 986.353 490.816 985.504 C485.397 975.417 476.706 968.03 466 964 C461.294 962.703 456.535 962.78 451.688 962.75 C451.279 962.74 451.279 962.74 449.213 962.688 C436.808 962.608 425.151 969.463 417.371 978.996 Z M903.188 1051 C899.681 1055.808 899.109 1060.209 900 1066 C903.235 1074.212 911.261 1080.441 917.438 1086.477 C920.623 1089.598 923.588 1092.839 926.465 1096.246 C928.226 1098.258 930.095 1100.124 932 1102 C934.48 1104.447 936.854 1106.921 939.125 1109.562 C942.715 1113.717 946.406 1117.774 950.125 1121.812 C950.723 1122.471 951.322 1123.13 951.938 1123.809 C958.982 1131.418 958.982 1131.418 964.43 1132.469 C969.718 1132.536 973.455 1132.073 977.594 1128.617 C980.976 1124.727 981.847 1120.456 982.375 1115.438 C981.542 1107.806 978.498 1104.146 973.098 1099.02 C971.176 1097.169 969.425 1095.272 967.688 1093.25 C964.188 1089.178 960.561 1085.233 956.907 1081.3 C954.76 1078.976 952.726 1076.644 950.793 1074.137 C950.201 1073.432 949.61 1072.726 949 1072 C948.34 1072 947.68 1072 947 1072 C946.746 1071.417 946.492 1070.835 946.23 1070.234 C944.867 1067.758 943.358 1066.195 941.312 1064.25 C938.516 1061.53 935.86 1058.768 933.312 1055.812 C924.236 1045.336 924.236 1045.336 916.062 1044.688 C910.541 1044.864 906.794 1046.858 903.188 1051 Z M1569 1075 C1568.225 1075.599 1567.451 1076.199 1566.652 1076.816 C1558.065 1083.913 1551.806 1093.897 1550 1105 C1548.963 1119.419 1551.354 1131.808 1561 1143 C1565.388 1147.507 1570.505 1150.974 1576 1154 C1576.669 1154.396 1577.338 1154.791 1578.027 1155.199 C1587.456 1159.922 1599.792 1159.417 1609.867 1157.117 C1622.277 1152.708 1632.645 1143.685 1638.875 1132.062 C1644.493 1119.804 1644.361 1106.636 1640 1094 C1634.955 1081.846 1626.594 1073.635 1614.762 1068.059 C1599.861 1062.347 1581.343 1065.297 1569 1075 Z M416.055 1169.258 C409.059 1178.784 406.59 1190.563 408.32 1202.145 C410.962 1214.321 417.804 1225.776 428 1233 C439.303 1239.596 450.413 1241.78 463.324 1239.383 C475.64 1235.744 484.706 1227.807 491.242 1216.934 C497.063 1206.078 497.684 1193.043 494.938 1181.125 C493.101 1175.317 489.754 1170.731 486 1166 C485.687 1165.577 485.687 1165.577 484.105 1163.438 C481.846 1160.822 479.674 1159.205 476.75 1157.375 C476.304 1157.09 476.304 1157.09 474.047 1155.648 C452.583 1144.036 431.093 1151.804 416.055 1169.258 Z M733.25 1228.688 C732.436 1228.867 731.623 1229.046 730.784 1229.231 C728.187 1229.809 725.593 1230.403 723 1231 C722.576 1231.096 722.576 1231.096 720.433 1231.583 C714.272 1232.989 708.132 1234.472 702 1236 C701.178 1236.203 700.356 1236.406 699.51 1236.615 C658.531 1246.859 618.934 1262.586 581 1281 C580.33 1281.321 579.66 1281.643 578.969 1281.974 C558.694 1291.711 538.906 1303.102 520.59 1316.176 C517.43 1318.402 514.219 1320.548 511 1322.688 C510.373 1323.105 509.746 1323.522 509.101 1323.953 C505.537 1326.323 501.965 1328.68 498.387 1331.027 C487.402 1338.253 477.293 1345.851 467.562 1354.715 C463.17 1358.632 458.579 1362.304 454 1366 C450.318 1368.982 446.656 1371.986 443 1375 C442.078 1375.748 441.156 1376.495 440.206 1377.265 C428.45 1386.96 417.85 1397.884 407.123 1408.682 C405.033 1410.782 402.938 1412.877 400.843 1414.972 C398.799 1417.015 396.759 1419.061 394.719 1421.108 C393.296 1422.536 391.872 1423.962 390.447 1425.388 C385.435 1430.437 380.603 1435.574 376 1441 C375.064 1442.091 374.128 1443.182 373.191 1444.273 C362.943 1456.335 353.342 1468.805 343.876 1481.489 C341.616 1484.514 339.347 1487.532 337.076 1490.549 C326.959 1504.004 316.948 1517.546 308 1531.816 C306.431 1534.314 304.846 1536.798 303.25 1539.277 C294.872 1552.336 287.067 1565.618 280.25 1579.562 C277.932 1584.29 275.382 1588.581 272.383 1592.898 C270.475 1595.798 269.007 1598.84 267.504 1601.965 C266.386 1604.22 265.237 1606.424 264.027 1608.629 C258.049 1619.595 252.749 1630.832 247.562 1642.188 C247.21 1642.958 246.857 1643.728 246.494 1644.521 C245.473 1646.756 244.456 1648.993 243.441 1651.23 C243.139 1651.895 242.836 1652.559 242.524 1653.243 C240.486 1657.766 238.727 1662.349 237 1667 C236.054 1668.995 235.077 1670.976 234.062 1672.938 C231.511 1677.884 229.232 1682.905 227 1688 C226.432 1689.289 225.863 1690.577 225.295 1691.865 C209.67 1727.316 209.67 1727.316 204.752 1742.665 C203.893 1745.334 203.003 1747.991 202.109 1750.648 C200.629 1755.054 199.158 1759.462 197.707 1763.877 C197.103 1765.692 196.467 1767.496 195.824 1769.297 C194.073 1775.039 194.128 1780.809 196.625 1786.312 C199.923 1792.033 204.727 1795.503 210.93 1797.555 C217.169 1798.897 221.788 1796.949 227.043 1793.84 C232.475 1788.733 235.195 1781.645 237.812 1774.812 C238.149 1773.954 238.485 1773.095 238.831 1772.211 C239.898 1769.478 240.951 1766.74 242 1764 C242.35 1763.088 242.701 1762.176 243.062 1761.236 C245.82 1754.045 248.559 1746.846 251.262 1739.633 C257.061 1724.291 263.524 1709.181 270.16 1694.184 C271.587 1690.956 272.982 1687.716 274.371 1684.473 C278.677 1674.436 283.101 1664.531 288.078 1654.809 C290.115 1650.816 291.994 1646.756 293.875 1642.688 C297.872 1634.092 302.271 1625.728 306.739 1617.37 C308.002 1614.996 309.251 1612.614 310.496 1610.23 C310.696 1609.848 310.696 1609.848 311.709 1607.914 C312.461 1606.479 313.21 1605.043 313.957 1603.605 C316.085 1599.559 318.461 1595.808 321 1592 C322.014 1590.007 323.015 1588.007 324 1586 C325.059 1584.194 326.144 1582.403 327.25 1580.625 C327.582 1580.092 327.913 1579.558 328.255 1579.009 C329.036 1577.754 329.818 1576.499 330.601 1575.246 C332.232 1572.628 333.852 1570.003 335.473 1567.379 C342.253 1556.429 349.125 1545.595 356.547 1535.069 C358.179 1532.745 359.791 1530.408 361.402 1528.07 C370.392 1515.062 379.822 1502.627 390.091 1490.607 C392.75 1487.494 395.343 1484.342 397.875 1481.125 C410.584 1465.136 424.401 1448.944 439.906 1435.594 C444.328 1431.777 448.409 1427.665 452.5 1423.5 C457.24 1418.674 462.029 1414.015 467.16 1409.604 C468.805 1408.17 470.39 1406.701 471.957 1405.184 C480.977 1396.51 490.838 1389.274 501 1382 C502.564 1380.871 504.128 1379.741 505.691 1378.609 C508.699 1376.433 511.71 1374.262 514.723 1372.094 C518.11 1369.652 521.472 1367.178 524.826 1364.69 C538.383 1354.657 552.372 1345.871 567.093 1337.636 C570.116 1335.935 573.123 1334.208 576.129 1332.477 C586.101 1326.763 596.098 1321.265 606.562 1316.5 C607.381 1316.127 608.199 1315.755 609.043 1315.371 C614.856 1312.797 620.78 1310.547 626.739 1308.338 C631.427 1306.599 636.086 1304.8 640.734 1302.957 C668.368 1292.055 696.407 1283.108 725.408 1276.592 C730.547 1275.418 735.648 1274.096 740.754 1272.789 C743.479 1272.127 746.177 1271.606 748.938 1271.125 C754.872 1269.797 759.868 1266.701 763.641 1261.922 C766.68 1256.927 768.504 1251.89 768 1246 C766.377 1239.737 763.738 1234.415 759 1230 C750.897 1225.327 741.968 1226.692 733.25 1228.688 Z M699 1355 C696.293 1359.383 696.147 1365.011 697 1370 C699.563 1375.276 702.762 1379.24 706.812 1383.438 C707.891 1384.58 708.97 1385.723 710.047 1386.867 C710.561 1387.41 711.074 1387.952 711.604 1388.511 C713.303 1390.323 714.941 1392.181 716.562 1394.062 C718.985 1396.869 721.474 1399.602 723.995 1402.32 C727.943 1406.577 731.743 1410.85 735.312 1415.438 C739.293 1420.499 743.482 1425.448 750 1427 C755.998 1427 759.197 1425.832 763.523 1421.664 C767.311 1417.395 768.753 1413.121 768.535 1407.484 C766.752 1399.207 759.92 1392.529 754.32 1386.531 C751.937 1383.931 749.714 1381.246 747.5 1378.5 C743.843 1373.983 740.042 1369.639 736.125 1365.348 C734.165 1363.182 732.267 1360.975 730.375 1358.75 C726.821 1354.666 722.893 1350.447 718 1348 C710.057 1347.47 704.896 1349.431 699 1355 Z M592 1415.812 C589.875 1419.709 589.282 1422.535 590 1427 C592.355 1433.218 596.065 1437.64 600.688 1442.312 C601.95 1443.626 603.211 1444.943 604.469 1446.262 C605.077 1446.899 605.686 1447.536 606.312 1448.193 C610.112 1452.262 613.52 1456.659 617 1461 C624.374 1470.009 632.173 1478.53 640.188 1486.973 C646.216 1493.325 652.113 1499.788 657.812 1506.438 C662.294 1511.523 665.946 1514.612 672.723 1515.875 C676.475 1516.081 678.837 1514.922 682 1513 C685.431 1509.476 687.841 1506.01 688.105 1501 C687.621 1490.672 680.252 1483.992 673.562 1476.805 C671.17 1474.186 668.915 1471.509 666.688 1468.75 C658.144 1458.198 649.18 1448.043 639.845 1438.187 C636.51 1434.659 633.331 1431.061 630.277 1427.285 C629.856 1426.861 629.434 1426.437 629 1426 C628.34 1426 627.68 1426 627 1426 C626.755 1425.443 626.51 1424.886 626.258 1424.312 C622.182 1416.819 615.977 1410.925 608 1408 C601.566 1406.713 595.528 1410.651 592 1415.812 Z M501.422 1479.445 C497.875 1483.828 496.569 1488.389 497 1494 C499.32 1501.328 504.724 1506.256 509.918 1511.707 C512.594 1514.529 515.072 1517.46 517.5 1520.5 C521.367 1525.316 525.47 1529.851 529.688 1534.357 C532.481 1537.342 535.186 1540.366 537.812 1543.5 C541.358 1547.532 544.783 1551.423 550.266 1552.406 C556.631 1552.659 559.856 1550.795 564.688 1546.75 C568.357 1542.387 569 1538.691 569 1533.062 C567.733 1525.342 560.513 1519.196 555.312 1513.75 C554.071 1512.434 552.83 1511.118 551.59 1509.801 C550.981 1509.157 550.373 1508.513 549.746 1507.85 C544.326 1502.106 538.939 1496.336 533.863 1490.285 C533.334 1489.656 532.804 1489.026 532.258 1488.377 C531.243 1487.164 530.234 1485.944 529.234 1484.719 C525.223 1479.918 521.358 1476.57 515.125 1475.062 C509.889 1474.672 505.34 1475.857 501.422 1479.445 Z "/></g></g><rect x="468.48" y="141.54" width="3.2" height="228.93" rx="1.6" fill="#FFFFFF" opacity="0.55"/><g fill="#FFFFFF" transform="translate(494.375 340.787) scale(0.23884 -0.23884)"><path d="M348.597900390625 708V688Q314.597900390625 687 297.097900390625 680.5Q279.597900390625 674 273.597900390625 656.5Q267.597900390625 639 267.597900390625 602V94.00048828125Q267.597900390625 63.4002685546875 272.39794921875 48.10015869140625Q277.197998046875 32.800048828125 290.79815673828125 27.9000244140625Q304.3983154296875 23 330.5986328125 23H379.599609375Q414.0001220703125 23 443.80010986328125 38.999755859375Q473.60009765625 54.99951171875 497.6998291015625 84.59918212890625Q521.799560546875 114.1988525390625 537.999267578125 155.29864501953125Q554.198974609375 196.3984375 561.598876953125 245.99853515625H584.598876953125Q581.598876953125 211.9986572265625 581.598876953125 157.998779296875Q581.598876953125 134.7989501953125 582.7988891601562 90.8992919921875Q583.9989013671875 46.9996337890625 588.598876953125 0Q537.598876953125 2 473.598876953125 2.5Q409.598876953125 3 359.598876953125 3Q334.5989990234375 3 295.899169921875 3.0Q257.1993408203125 3 212.09954833984375 2.5Q166.999755859375 2 120.89996337890625 1.5Q74.8001708984375 1 33.600341796875 0V20Q65.8004150390625 22 81.80047607421875 28.0Q97.800537109375 34 103.2005615234375 52.0Q108.6005859375 70 108.6005859375 106V602Q108.6005859375 639 103.2005615234375 656.5Q97.800537109375 674 81.50048828125 680.5Q65.200439453125 687 33.600341796875 688V708Q59.400146484375 707 101.49981689453125 706.0Q143.5994873046875 705 191.59912109375 705Q235.5987548828125 705 278.19842529296875 706.0Q320.798095703125 707 348.597900390625 708Z" transform="translate(0.000 0)"/><path d="M348.597900390625 708V688Q314.597900390625 687 297.097900390625 680.5Q279.597900390625 674 273.597900390625 656.5Q267.597900390625 639 267.597900390625 602V94.00048828125Q267.597900390625 63.4002685546875 272.39794921875 48.10015869140625Q277.197998046875 32.800048828125 290.79815673828125 27.9000244140625Q304.3983154296875 23 330.5986328125 23H379.599609375Q414.0001220703125 23 443.80010986328125 38.999755859375Q473.60009765625 54.99951171875 497.6998291015625 84.59918212890625Q521.799560546875 114.1988525390625 537.999267578125 155.29864501953125Q554.198974609375 196.3984375 561.598876953125 245.99853515625H584.598876953125Q581.598876953125 211.9986572265625 581.598876953125 157.998779296875Q581.598876953125 134.7989501953125 582.7988891601562 90.8992919921875Q583.9989013671875 46.9996337890625 588.598876953125 0Q537.598876953125 2 473.598876953125 2.5Q409.598876953125 3 359.598876953125 3Q334.5989990234375 3 295.899169921875 3.0Q257.1993408203125 3 212.09954833984375 2.5Q166.999755859375 2 120.89996337890625 1.5Q74.8001708984375 1 33.600341796875 0V20Q65.8004150390625 22 81.80047607421875 28.0Q97.800537109375 34 103.2005615234375 52.0Q108.6005859375 70 108.6005859375 106V602Q108.6005859375 639 103.2005615234375 656.5Q97.800537109375 674 81.50048828125 680.5Q65.200439453125 687 33.600341796875 688V708Q59.400146484375 707 101.49981689453125 706.0Q143.5994873046875 705 191.59912109375 705Q235.5987548828125 705 278.19842529296875 706.0Q320.798095703125 707 348.597900390625 708Z" transform="translate(623.000 0)"/><path d="M367.9981689453125 710.0001220703125 610.7982177734375 84Q625.1982421875 48.39990234375 642.3983154296875 34.699951171875Q659.598388671875 21 673.7984619140625 20V0Q644.1988525390625 2 603.79931640625 2.5Q563.3997802734375 3 521.80029296875 3Q475.6005859375 3 435.0008544921875 2.5Q394.401123046875 2 369.80126953125 0V20Q420.80126953125 22 434.50128173828125 37.5Q448.2012939453125 53 428.2012939453125 104L257.8006591796875 568.601318359375L276.2005615234375 594.80078125L123.7996826171875 198.5985107421875Q102.39990234375 143.59912109375 97.89996337890625 108.8994140625Q93.4000244140625 74.19970703125 102.79998779296875 55.1998291015625Q112.199951171875 36.199951171875 133.59991455078125 28.5999755859375Q154.9998779296875 21 185.39990234375 20V0Q152.0001220703125 2 122.10009765625 2.5Q92.2000732421875 3 60.80029296875 3Q39.400146484375 3 19.500244140625 2.5Q-0.399658203125 2 -15.399658203125 0V20Q6.4002685546875 24.4000244140625 28.30023193359375 47.099853515625Q50.2001953125 69.7996826171875 71.4000244140625 124.999267578125L298.600341796875 710.0001220703125Q314.599853515625 708.8001708984375 333.29925537109375 708.8001708984375Q351.9986572265625 708.8001708984375 367.9981689453125 710.0001220703125ZM437.80029296875 288V268H139.80029296875L149.80029296875 288Z" transform="translate(1246.000 0)"/></g></svg>