<svg xmlns="http://www.w3.org/2000/svg" width="512.00" height="512.00" viewBox="0 0 512.00 512.00"><defs><linearGradient id="embGrad" x1="399.4" y1="25.6" x2="61.4" y2="486.4" gradientUnits="userSpaceOnUse"><stop offset="0" stop-color="#6CF3D2"/><stop offset="1" stop-color="#5A96EB"/></linearGradient></defs><rect x="0" y="0" width="512.00" height="512.00" rx="92.16" fill="#FFFFFF"/><g fill="#010D25" fill-rule="nonzero" transform="scale(0.250000)"><path d="M0 0 C1.235 0.002 2.47 0.004 3.742 0.006 C53.908 0.095 53.908 0.095 72.5 2.968 C79.61 4.06 86.7 4.64 93.875 5.125 C101.895 5.679 109.72 6.471 117.621 7.947 C125.856 9.446 134.175 10.223 142.502 11.035 C143.611 11.148 144.72 11.262 145.863 11.379 C146.854 11.475 147.844 11.571 148.865 11.67 C151.702 12.138 153.975 13.034 156.625 14.125 C158.338 14.496 160.062 14.816 161.793 15.09 C162.769 15.25 163.746 15.411 164.752 15.576 C166.773 15.897 168.793 16.218 170.814 16.537 C176.445 17.464 181.767 18.694 187.206 20.413 C191.224 21.595 195.317 22.278 199.438 23 C225.206 27.739 250.232 35.031 274.805 44.09 C278.133 45.311 281.472 46.5 284.812 47.688 C288.471 48.99 292.123 50.3 295.75 51.688 C298.988 52.922 302.267 53.993 305.562 55.062 C309.869 56.485 313.967 58.092 318.082 59.988 C325.385 63.253 332.883 66.305 340.5 68.75 C347.663 71.053 354.31 74.441 361.008 77.832 C364.685 79.649 368.423 81.322 372.164 83.004 C375.022 84.306 377.816 85.721 380.625 87.125 C381.978 87.711 383.332 88.294 384.688 88.875 C389.784 91.112 394.633 93.767 399.512 96.441 C403.588 98.646 407.657 100.723 411.938 102.5 C417.028 104.649 422.143 107.201 426.52 110.594 C429.08 112.456 431.788 113.721 434.625 115.125 C436.763 116.417 438.887 117.73 441 119.062 C445.138 121.648 449.287 124.04 453.688 126.148 C457.807 128.225 461.696 130.714 465.625 133.125 C466.673 133.758 467.721 134.391 468.801 135.043 C476.575 139.766 484.068 144.741 491.371 150.164 C495.558 153.265 499.619 156.225 504.25 158.625 C508.632 160.93 511.959 163.992 515.57 167.348 C518.049 169.492 520.69 170.689 523.625 172.125 C525.7 173.865 527.69 175.684 529.691 177.508 C531.625 179.125 531.625 179.125 534.562 180.5 C537.655 182.141 539.239 183.67 541.625 186.188 C545.91 190.692 550.571 194.072 555.84 197.323 C561.439 201.011 562.821 205.308 564.164 211.684 C563.283 215.672 560.68 218.2 558 221.188 C557.478 221.799 556.956 222.411 556.418 223.041 C552.516 227.496 548.737 231.663 542.629 232.57 C536.007 231.589 528.86 227.244 524.812 221.875 C522.12 218.491 519.59 217.711 515.625 216.125 C514.248 214.837 512.919 213.497 511.625 212.125 C507.135 208.527 502.422 205.298 497.625 202.125 C483.16 192.535 483.16 192.535 477.188 188.312 C466.702 180.928 466.702 180.928 461.875 179.062 C459.625 178.125 459.625 178.125 457.746 176.23 C455.713 174.212 453.906 172.925 451.438 171.5 C450.569 170.993 449.7 170.487 448.805 169.965 C448.28 169.661 448.28 169.661 445.625 168.125 C444.252 167.315 442.879 166.504 441.508 165.691 C427.824 157.594 427.824 157.594 421.387 154.16 C419.625 153.125 419.625 153.125 417.895 151.746 C415.324 149.91 412.681 148.595 409.846 147.214 C405.959 145.308 402.141 143.27 398.312 141.25 C397.482 140.812 396.652 140.375 395.797 139.924 C379.087 131.1 379.087 131.1 374.625 128.125 C374.027 127.991 374.027 127.991 371 127.312 C367.84 126.573 365.359 125.539 362.562 123.898 C357.241 120.868 351.773 118.203 346.25 115.562 C345.286 115.094 344.322 114.625 343.328 114.143 C337.654 111.423 331.963 109.063 326.027 106.976 C323.239 105.988 320.527 104.864 317.812 103.688 C312.266 101.34 306.64 99.305 300.949 97.336 C298.685 96.511 296.444 95.617 294.23 94.664 C290.285 92.98 286.299 91.533 282.25 90.125 C281.898 90.001 281.898 90.001 280.117 89.375 C276.473 88.098 272.821 86.857 269.152 85.652 C265.357 84.394 261.625 83.006 257.892 81.575 C249.227 78.272 240.625 75.64 231.59 73.581 C228.193 72.793 224.817 71.921 221.438 71.062 C215.476 69.561 209.495 68.161 203.492 66.836 C200.625 66.125 200.625 66.125 197.945 65.164 C195.129 64.283 192.529 63.713 189.633 63.215 C184.106 62.259 178.703 60.958 173.26 59.612 C160.281 56.42 147.477 54.113 134.164 52.734 C129.452 52.245 124.837 51.523 120.188 50.625 C103.839 47.531 87.133 46.151 70.566 44.771 C69.723 44.7 68.88 44.628 68.012 44.555 C67.282 44.495 66.552 44.436 65.8 44.375 C63.625 44.125 63.625 44.125 61.166 43.618 C41.767 39.855 19.66 42.019 0 42 C-1.191 41.997 -2.382 41.995 -3.609 41.992 C-30.576 41.946 -57.517 42.303 -84.259 45.966 C-92.403 47.06 -100.553 47.812 -108.75 48.39 C-112.589 48.683 -116.026 49.023 -119.734 50.109 C-125.123 51.613 -130.563 51.848 -136.125 52.312 C-147.912 53.408 -159.404 55.264 -171 57.625 C-171.739 57.774 -172.479 57.924 -173.241 58.078 C-180.931 59.643 -188.531 61.38 -196.086 63.518 C-199.035 64.3 -201.975 64.75 -205 65.125 C-209.545 65.77 -213.516 66.761 -217.805 68.344 C-221.254 69.392 -224.765 69.957 -228.312 70.562 C-233.889 71.53 -238.924 72.887 -244.113 75.16 C-248.083 76.854 -252.229 77.944 -256.375 79.125 C-258.516 79.736 -260.656 80.35 -262.795 80.969 C-264.27 81.396 -265.746 81.818 -267.223 82.236 C-271.777 83.553 -276.021 85.231 -280.375 87.125 C-282.427 87.804 -284.49 88.45 -286.562 89.062 C-296.618 92.092 -306.536 95.454 -316.375 99.125 C-316.855 99.304 -316.855 99.304 -319.285 100.207 C-328.353 103.635 -337.265 107.413 -346.187 111.201 C-349.137 112.447 -352.1 113.66 -355.062 114.875 C-360.618 117.188 -365.926 119.837 -371.25 122.637 C-380.259 127.288 -380.259 127.288 -384.875 128.312 C-388.488 129.151 -389.504 129.97 -392.375 132.125 C-394.8 133.395 -397.226 134.619 -399.688 135.812 C-407.679 139.747 -415.537 143.894 -423.375 148.125 C-424.433 148.684 -425.492 149.244 -426.582 149.82 C-433.814 153.674 -433.814 153.674 -436.938 156.188 C-439.201 157.987 -441.161 159.067 -443.75 160.312 C-450.329 163.488 -456.504 167.312 -462.728 171.124 C-464.194 172.015 -465.674 172.884 -467.156 173.75 C-469.375 175.125 -469.375 175.125 -472.062 177.5 C-475.341 180.328 -478.99 182.027 -482.91 183.816 C-485.705 185.3 -487.928 187.122 -490.375 189.125 C-492.237 190.395 -494.113 191.644 -496 192.875 C-500.967 196.154 -505.784 199.584 -510.574 203.113 C-514.486 205.923 -518.51 208.549 -522.551 211.168 C-525.08 212.921 -527.414 214.796 -529.757 216.788 C-532.778 219.283 -535.969 221.555 -539.125 223.875 C-545.54 228.637 -551.536 233.666 -557.375 239.125 C-561.283 242.648 -565.224 246.035 -569.438 249.188 C-575.276 253.658 -580.513 258.781 -585.855 263.82 C-589.609 267.359 -593.464 270.763 -597.375 274.125 C-602.142 278.239 -606.452 282.19 -610.375 287.125 C-611.651 288.268 -612.944 289.391 -614.25 290.5 C-616.871 292.734 -619.19 294.963 -621.375 297.625 C-624.09 300.921 -627.125 303.611 -630.367 306.379 C-635.505 310.847 -640.063 315.812 -644.496 320.969 C-646.557 323.334 -648.685 325.631 -650.812 327.938 C-654.802 332.329 -658.225 336.966 -661.551 341.875 C-663.41 344.169 -664.721 344.965 -667.375 346.125 C-668.375 347.937 -668.375 347.937 -669.375 350.125 C-672.122 353.787 -675.167 357.185 -678.184 360.625 C-678.907 361.45 -679.63 362.275 -680.375 363.125 C-680.835 363.648 -681.296 364.172 -681.77 364.711 C-687.156 370.849 -692.403 376.847 -696.75 383.781 C-699.33 387.503 -702.328 390.872 -705.33 394.258 C-708.316 397.676 -710.766 401.203 -713.118 405.083 C-715.196 408.459 -717.484 411.687 -719.75 414.938 C-723.565 420.446 -727.268 426.001 -730.828 431.68 C-732.324 434.045 -733.87 436.369 -735.438 438.688 C-738.595 443.398 -741.483 448.248 -744.375 453.125 C-745.12 454.366 -745.866 455.607 -746.613 456.848 C-747.007 457.502 -747.401 458.157 -747.807 458.832 C-748.581 460.116 -749.354 461.4 -750.128 462.684 C-751.93 465.682 -753.705 468.691 -755.43 471.734 C-757.173 474.773 -758.986 477.738 -760.875 480.688 C-761.159 481.132 -761.159 481.132 -762.594 483.379 C-763.818 485.267 -765.074 487.135 -766.355 488.984 C-768.606 492.484 -770.394 496.066 -772.188 499.812 C-774.58 504.73 -777.074 509.384 -780.125 513.938 C-782.995 518.265 -784.814 522.472 -786.355 527.422 C-787.375 530.124 -788.71 532.461 -790.173 534.943 C-792.866 539.833 -795.066 544.984 -797.375 550.062 C-800.605 557.142 -803.87 564.178 -807.375 571.125 C-807.925 572.392 -808.467 573.663 -809 574.938 C-810.375 578.125 -810.375 578.125 -812.375 581.125 C-812.878 582.473 -813.337 583.837 -813.762 585.211 C-815.354 590.152 -817.235 594.941 -819.188 599.75 C-819.536 600.617 -819.885 601.485 -820.245 602.378 C-821.86 606.392 -823.487 610.402 -825.125 614.406 C-825.258 614.733 -825.258 614.733 -825.93 616.388 C-826.633 618.117 -827.342 619.844 -828.051 621.57 C-829.089 624.358 -829.969 627.085 -830.793 629.938 C-832.312 635.116 -834.293 640.026 -836.375 645 C-839.048 651.507 -841.289 657.833 -842.797 664.723 C-843.327 666.925 -844.003 668.818 -844.938 670.875 C-846.3 673.956 -847.092 676.78 -847.848 680.039 C-848.394 682.201 -849.079 684.27 -849.812 686.375 C-851.366 690.91 -852.499 695.507 -853.625 700.164 C-854.291 702.793 -855.051 705.355 -855.875 707.938 C-857.135 712.024 -858.005 716.113 -858.812 720.312 C-860.03 726.628 -861.576 732.782 -863.27 738.984 C-866.839 752.199 -869.825 765.505 -872.015 779.016 C-872.275 780.538 -872.557 782.056 -872.853 783.572 C-874.3 791.039 -875.069 798.491 -875.75 806.062 C-876.549 814.679 -877.483 823.233 -878.861 831.781 C-887.584 886.397 -886.146 943.207 -881.375 998.125 C-881.305 998.939 -881.235 999.754 -881.164 1000.593 C-878.783 1028.31 -878.783 1028.31 -877.375 1031.125 C-877.056 1033.632 -876.783 1036.126 -876.543 1038.641 C-876.385 1040.208 -876.227 1041.775 -876.068 1043.342 C-875.986 1044.164 -875.904 1044.986 -875.819 1045.833 C-874.315 1060.743 -872.475 1075.451 -869.375 1090.125 C-869.118 1091.368 -868.862 1092.61 -868.598 1093.891 C-868.127 1096.121 -867.645 1098.349 -867.152 1100.574 C-866.56 1103.282 -865.991 1105.99 -865.441 1108.707 C-863.724 1117.152 -861.824 1125.436 -859.367 1133.703 C-858.323 1137.305 -857.399 1140.922 -856.5 1144.562 C-852.665 1160.048 -848.733 1175.423 -843.779 1190.594 C-841.926 1196.29 -840.35 1201.985 -838.977 1207.816 C-838.124 1211.087 -836.756 1214.044 -835.375 1217.125 C-834.616 1219.289 -833.867 1221.456 -833.125 1223.625 C-831.273 1228.91 -829.134 1233.903 -826.688 1238.938 C-824.453 1243.548 -822.583 1247.894 -821.859 1253 C-821.126 1256.217 -819.725 1259.13 -818.375 1262.125 C-818.053 1262.849 -817.731 1263.574 -817.399 1264.32 C-816.314 1266.758 -815.221 1269.192 -814.125 1271.625 C-813.73 1272.503 -813.335 1273.381 -812.929 1274.285 C-810.259 1280.206 -807.529 1286.095 -804.754 1291.967 C-803.048 1295.603 -801.486 1299.27 -800 1303 C-797.33 1309.533 -793.989 1315.664 -790.648 1321.871 C-787.971 1326.85 -785.445 1331.896 -782.949 1336.969 C-781.943 1338.986 -780.907 1340.988 -779.832 1342.969 C-776.746 1348.709 -775.082 1352.804 -777.039 1359.344 C-780.111 1367.359 -785.729 1371.869 -793.387 1375.438 C-796.489 1376.51 -799.143 1376.505 -802.375 1376.125 C-803.365 1375.465 -804.355 1374.805 -805.375 1374.125 C-805.375 1373.465 -805.375 1372.805 -805.375 1372.125 C-806.035 1372.125 -806.695 1372.125 -807.375 1372.125 C-815.519 1361.475 -821.338 1349.031 -827.375 1337.125 C-827.707 1336.471 -828.039 1335.817 -828.381 1335.143 C-829.661 1332.613 -830.928 1330.078 -832.184 1327.535 C-832.914 1326.058 -833.654 1324.585 -834.41 1323.121 C-838.382 1315.418 -841.826 1307.379 -844.812 1299.246 C-846.459 1294.807 -848.368 1290.503 -850.312 1286.188 C-850.988 1284.678 -851.664 1283.169 -852.34 1281.66 C-852.673 1280.919 -853.006 1280.178 -853.349 1279.415 C-854.743 1276.303 -856.117 1273.183 -857.49 1270.062 C-858.246 1268.408 -859.084 1266.793 -859.938 1265.188 C-861.141 1262.623 -861.94 1260.346 -862.711 1257.641 C-864.392 1251.943 -866.393 1246.388 -868.438 1240.812 C-871.71 1231.79 -874.945 1222.756 -878.096 1213.69 C-878.731 1211.867 -879.371 1210.045 -880.012 1208.223 C-882.243 1201.781 -884.178 1195.367 -885.729 1188.727 C-886.346 1186.241 -887.094 1183.854 -887.938 1181.438 C-889.201 1177.818 -890.057 1174.23 -890.75 1170.461 C-891.375 1168.125 -891.375 1168.125 -892.75 1165.035 C-894.86 1160.247 -896.083 1155.245 -897.375 1150.188 C-897.637 1149.176 -897.899 1148.165 -898.169 1147.124 C-900.01 1139.893 -901.521 1132.665 -902.734 1125.305 C-903.375 1122.125 -903.375 1122.125 -904.355 1119.736 C-905.355 1117.177 -905.893 1114.873 -906.34 1112.168 C-906.498 1111.229 -906.657 1110.29 -906.82 1109.323 C-906.983 1108.329 -907.145 1107.336 -907.312 1106.312 C-907.664 1104.22 -908.017 1102.127 -908.371 1100.035 C-908.457 1099.526 -908.457 1099.526 -908.89 1096.95 C-909.504 1093.373 -910.184 1089.813 -910.875 1086.25 C-913.813 1070.66 -916.364 1055.056 -917.727 1039.244 C-918.22 1033.549 -918.96 1027.946 -919.871 1022.301 C-924.745 991.582 -923.536 960.11 -923.505 929.105 C-923.5 923.272 -923.503 917.439 -923.509 911.605 C-923.513 907.039 -923.511 902.473 -923.509 897.907 C-923.508 895.758 -923.509 893.608 -923.511 891.459 C-923.52 880.91 -923.431 870.383 -922.929 859.844 C-922.89 859.005 -922.852 858.167 -922.812 857.303 C-922.637 854.043 -922.412 851.237 -921.375 848.125 C-921.113 846.236 -920.891 844.342 -920.691 842.445 C-920.57 841.299 -920.448 840.152 -920.322 838.971 C-920.195 837.743 -920.068 836.515 -919.938 835.25 C-919.804 833.994 -919.671 832.738 -919.533 831.443 C-918.923 825.64 -918.336 819.837 -917.84 814.023 C-917.148 805.933 -916.392 798.285 -914.156 790.449 C-913.073 785.839 -912.529 781.195 -911.938 776.5 C-910.772 767.429 -909.125 758.627 -906.995 749.738 C-906.263 746.653 -905.559 743.564 -904.855 740.473 C-904.321 738.128 -903.785 735.782 -903.25 733.438 C-902.996 732.326 -902.743 731.215 -902.481 730.069 C-899.16 715.66 -899.16 715.66 -897.305 712.031 C-896.108 709.578 -895.856 707.327 -895.5 704.625 C-894.664 699.203 -893.207 694.302 -891.383 689.141 C-890.358 686.075 -889.563 683.018 -888.812 679.875 C-887.832 675.777 -886.625 671.963 -885.059 668.059 C-884.059 665.232 -883.526 662.345 -883 659.398 C-882.375 657.125 -882.375 657.125 -880.938 654.344 C-879.185 650.733 -878.249 647.141 -877.375 643.25 C-876.277 638.422 -874.98 633.84 -873.183 629.224 C-871.685 625.332 -870.363 621.377 -869 617.438 C-865.197 606.512 -861.214 595.691 -856.48 585.129 C-854.094 579.794 -851.825 574.42 -849.59 569.02 C-848.574 566.599 -847.522 564.203 -846.438 561.812 C-844.703 557.964 -843.162 554.056 -841.625 550.125 C-838.786 542.904 -835.53 535.916 -832.176 528.922 C-830.846 526.144 -829.61 523.348 -828.438 520.5 C-826.318 515.615 -823.438 511.172 -820.659 506.643 C-818.201 502.606 -816.128 498.594 -814.324 494.219 C-812.821 490.903 -810.853 487.885 -808.945 484.789 C-806.714 481.004 -804.813 477.078 -802.875 473.137 C-799.271 465.9 -795.287 458.909 -791.082 452.008 C-789.731 449.726 -788.423 447.435 -787.137 445.117 C-786.743 444.408 -786.349 443.698 -785.943 442.968 C-785.165 441.562 -784.391 440.155 -783.622 438.745 C-781.487 434.889 -779.18 431.543 -776.375 428.125 C-774.865 425.889 -773.387 423.65 -771.938 421.375 C-771.738 421.065 -771.738 421.065 -770.73 419.497 C-768.634 416.206 -766.674 412.903 -764.875 409.438 C-762.391 404.81 -759.073 401.014 -755.703 397.008 C-751.893 392.29 -748.662 387.215 -745.375 382.125 C-737.599 370.159 -737.599 370.159 -732.867 364.891 C-730.406 361.979 -728.322 358.808 -726.16 355.672 C-721.809 349.464 -717.038 343.682 -711.992 338.031 C-710.481 336.25 -709.175 334.437 -707.875 332.5 C-706.149 329.989 -704.385 328.205 -702 326.312 C-699.121 323.976 -697.219 321.6 -695.188 318.5 C-691.923 313.606 -688.13 309.732 -683.928 305.667 C-679.747 301.59 -676.096 297.225 -672.461 292.652 C-669.908 289.559 -667.129 286.791 -664.254 284 C-662.463 282.213 -660.823 280.367 -659.188 278.438 C-651.457 269.492 -643 261.445 -633.738 254.113 C-631.07 251.868 -628.943 249.458 -626.77 246.746 C-624.744 244.392 -622.407 242.492 -620.02 240.516 C-618.375 239.125 -618.375 239.125 -616 236.75 C-612.281 233.031 -608.327 229.594 -604.375 226.125 C-603.678 225.511 -602.98 224.898 -602.262 224.266 C-600.304 222.547 -598.341 220.835 -596.375 219.125 C-595.813 218.634 -595.251 218.143 -594.672 217.637 C-587.524 211.441 -580.061 205.625 -572.582 199.836 C-571.117 198.7 -569.656 197.56 -568.199 196.414 C-564.252 193.315 -560.262 190.304 -556.188 187.375 C-551.082 183.695 -546.139 179.834 -541.234 175.894 C-538.064 173.367 -534.866 171.175 -531.375 169.125 C-530.066 168.126 -528.775 167.104 -527.5 166.062 C-518.476 158.948 -508.634 152.887 -498.918 146.773 C-496.347 145.107 -493.862 143.351 -491.375 141.562 C-487.096 138.524 -482.66 136.038 -478.023 133.59 C-475.548 132.221 -473.259 130.738 -470.938 129.125 C-467.69 126.902 -464.417 125.091 -460.875 123.375 C-455.56 120.793 -450.464 117.933 -445.375 114.938 C-444.645 114.509 -443.914 114.081 -443.162 113.64 C-439.754 111.619 -436.514 109.551 -433.375 107.125 C-430.007 105.324 -426.563 103.769 -423.062 102.25 C-419.895 100.86 -416.882 99.336 -413.875 97.625 C-410.33 95.615 -406.754 93.9 -403.016 92.285 C-399.651 90.807 -396.326 89.248 -393 87.688 C-386.811 84.789 -380.606 81.931 -374.375 79.125 C-373.608 78.777 -372.841 78.429 -372.051 78.07 C-367.361 75.959 -362.63 74.006 -357.832 72.152 C-355.375 71.125 -355.375 71.125 -352.676 69.715 C-348.475 67.691 -344.163 66.24 -339.75 64.75 C-333.121 62.473 -326.608 60.069 -320.16 57.312 C-313.215 54.351 -306.318 51.475 -298.938 49.812 C-292.949 48.431 -287.309 46.333 -281.562 44.188 C-274.055 41.39 -266.647 38.921 -258.859 37.012 C-256.094 36.308 -253.388 35.538 -250.66 34.707 C-245.163 33.039 -239.623 31.565 -234.062 30.125 C-233.558 29.994 -233.558 29.994 -231.007 29.331 C-223.162 27.304 -215.3 25.414 -207.382 23.691 C-203.384 22.814 -199.402 21.896 -195.43 20.906 C-186.389 18.661 -177.549 16.712 -168.289 15.652 C-163.561 15.015 -158.924 14.072 -154.25 13.125 C-145.96 11.459 -137.736 10.421 -129.302 9.809 C-124.647 9.45 -120.809 8.666 -116.375 7.125 C-113.655 6.699 -110.984 6.342 -108.25 6.062 C-107.461 5.978 -106.671 5.893 -105.858 5.806 C-99.495 5.16 -93.142 4.847 -86.753 4.59 C-77.517 4.171 -68.331 3.204 -59.14 2.229 C-39.44 0.197 -19.792 -0.046 0 0 Z " transform="translate(1029.375,100.875)"/><path d="M0 0 C1.92 0.996 3.857 1.89 5.835 2.763 C15.94 7.357 23.279 13.138 31.011 21.044 C31.456 21.474 31.456 21.474 33.71 23.649 C35.739 25.761 37.183 27.649 38.636 30.169 C40.199 32.864 41.806 34.857 44.011 37.044 C45.063 39.017 46.059 41.021 47.011 43.044 C47.484 43.962 47.957 44.88 48.445 45.825 C50.029 49.081 51.336 52.329 52.573 55.731 C52.987 56.849 53.401 57.967 53.827 59.118 C59.341 76.113 59.167 96.322 53.011 113.044 C52.626 114.119 52.24 115.194 51.843 116.302 C48.286 125.489 43.311 132.813 36.726 140.075 C35.038 142.012 33.559 144.012 32.073 146.106 C25.355 155.225 16.244 160.661 6.011 165.044 C4.071 165.914 2.134 166.789 0.198 167.669 C-0.695 168.074 -1.588 168.478 -2.509 168.896 C-3.984 169.579 -5.446 170.294 -6.872 171.074 C-10.597 172.781 -14.57 172.861 -18.614 173.231 C-19.544 173.317 -20.474 173.404 -21.432 173.492 C-30.384 174.226 -39.064 173.955 -47.989 173.044 C-48.991 172.942 -49.992 172.84 -51.024 172.735 C-62.253 171.131 -73.004 166.049 -82.524 160.048 C-85.753 158.733 -87.659 159.152 -90.989 160.044 C-94.145 161.874 -96.661 163.716 -99.239 166.294 C-99.528 166.583 -99.528 166.583 -100.989 168.044 C-101.649 168.044 -102.309 168.044 -102.989 168.044 C-103.216 168.58 -103.443 169.116 -103.677 169.669 C-106.782 175.289 -111.058 179.038 -115.989 183.044 C-118.956 185.859 -121.654 188.81 -124.302 191.919 C-127.274 195.361 -130.471 198.255 -133.942 201.181 C-136.921 203.892 -139.462 206.933 -142.032 210.028 C-144.166 212.227 -146.368 213.479 -148.989 215.044 C-150.833 216.946 -150.833 216.946 -152.489 218.981 C-155.113 222.098 -157.805 224.497 -160.989 227.044 C-162.804 229.022 -164.549 231.051 -166.294 233.091 C-168.412 235.531 -170.674 237.79 -172.989 240.044 C-175.61 242.656 -178.222 245.277 -180.821 247.911 C-185.793 252.936 -190.751 257.898 -196.173 262.446 C-198.554 264.541 -200.752 266.796 -202.989 269.044 C-222.989 289.044 -222.989 289.044 -225.667 291.708 C-227.704 293.758 -229.612 295.848 -231.489 298.044 C-235.662 302.843 -240.1 307.146 -244.864 311.356 C-248.651 314.738 -252.077 318.219 -255.321 322.122 C-257.429 324.551 -259.71 326.776 -261.989 329.044 C-271.334 338.977 -279.904 349.413 -287.946 360.415 C-289.989 363.044 -289.989 363.044 -292.001 365.017 C-294.419 367.482 -296.131 370.134 -297.989 373.044 C-298.698 374.12 -299.407 375.197 -300.137 376.306 C-304.275 382.652 -308.202 389.009 -311.7 395.739 C-312.989 398.044 -312.989 398.044 -314.563 400.138 C-315.989 402.044 -315.989 402.044 -317.427 405.419 C-318.989 409.044 -318.989 409.044 -320.927 411.856 C-322.624 414.48 -323.65 416.546 -324.739 419.419 C-326.444 423.9 -328.531 428.108 -330.739 432.356 C-341.359 453.018 -349.902 477.362 -353.505 500.349 C-354.12 503.772 -354.992 507.117 -355.864 510.481 C-359.727 525.682 -362.314 540.729 -363.915 556.339 C-364.534 562.278 -365.271 568.074 -366.489 573.919 C-368.269 582.604 -369.004 591.373 -369.862 600.189 C-370.633 607.987 -371.616 615.689 -372.934 623.411 C-373.86 628.92 -374.467 634.421 -374.989 639.981 C-375.577 646.123 -376.545 651.84 -378.216 657.794 C-379.019 661.169 -379.507 664.495 -379.962 667.93 C-381.53 679.71 -384.396 690.73 -387.989 702.044 C-388.396 703.34 -388.804 704.636 -389.211 705.932 C-394.12 721.494 -398.961 736.758 -406.989 751.044 C-407.672 752.426 -408.351 753.81 -409.024 755.196 C-410.443 758.07 -412.008 760.516 -413.989 763.044 C-414.89 764.655 -415.763 766.281 -416.614 767.919 C-422.139 778.151 -428.35 787.634 -435.868 796.521 C-437.845 798.872 -439.705 801.277 -441.552 803.731 C-444.448 807.49 -447.624 810.783 -451.028 814.083 C-452.92 815.975 -454.642 817.936 -456.364 819.981 C-459.693 823.842 -463.349 827.183 -467.177 830.544 C-469.232 832.371 -471.245 834.215 -473.239 836.106 C-483.231 845.563 -483.231 845.563 -489.028 848.841 C-492.459 850.946 -495.482 853.58 -498.598 856.118 C-503.821 860.325 -509.273 864.009 -515.157 867.231 C-515.947 867.665 -516.737 868.098 -517.552 868.544 C-518.295 868.946 -519.039 869.348 -519.805 869.763 C-521.989 871.044 -521.989 871.044 -523.841 872.478 C-526.66 874.533 -529.685 876.062 -532.802 877.606 C-533.485 877.947 -534.169 878.287 -534.873 878.637 C-552.964 887.502 -571.512 895.296 -590.88 900.849 C-604.939 904.897 -604.939 904.897 -608.817 907.067 C-612.052 908.522 -615.449 908.936 -618.927 909.481 C-624.079 910.302 -629.148 911.288 -634.227 912.485 C-657.35 917.899 -680.447 920.022 -704.081 921.519 C-710.236 921.914 -716.382 922.38 -722.528 922.892 C-722.955 922.927 -722.955 922.927 -725.115 923.105 C-728.398 923.378 -731.68 923.651 -734.962 923.934 C-763.33 926.375 -763.33 926.375 -770.989 923.044 C-776.423 914.894 -777.496 901.673 -776.989 892.044 C-774.789 886.844 -774.789 886.844 -772.989 885.044 C-771.637 884.818 -770.275 884.65 -768.911 884.509 C-768.495 884.465 -768.495 884.465 -766.391 884.245 C-765.954 884.202 -765.954 884.202 -763.739 883.981 C-762.879 883.891 -762.019 883.8 -761.134 883.706 C-757.071 883.29 -753.079 882.917 -748.989 883.044 C-751.205 877.819 -754.018 874.723 -758.177 871.044 C-758.758 870.517 -759.34 869.99 -759.939 869.447 C-762.973 866.727 -766.047 864.166 -769.364 861.794 C-773.58 858.778 -776.732 855.047 -779.989 851.044 C-780.752 850.136 -781.515 849.229 -782.302 848.294 C-786.272 843 -786.673 838.55 -785.989 832.044 C-784.746 828.998 -784.038 827.623 -781.177 826.044 C-776.827 826.044 -773.785 828.312 -770.677 831.169 C-770.233 831.643 -770.233 831.643 -767.989 834.044 C-763.818 838.311 -759.653 842.542 -755.114 846.419 C-749.781 850.993 -744.921 856.046 -739.989 861.044 C-738.324 862.712 -736.657 864.379 -734.989 866.044 C-730.322 870.711 -725.656 875.377 -720.989 880.044 C-708.911 880.745 -696.967 879.45 -684.989 878.044 C-684.522 877.99 -684.522 877.99 -682.159 877.719 C-656.563 874.759 -632.268 871.001 -608.04 862.114 C-604.388 860.833 -600.766 859.875 -596.989 859.044 C-597.177 856.731 -597.177 856.731 -597.989 854.044 C-600.239 852.544 -600.239 852.544 -602.989 851.044 C-604.701 849.424 -606.361 847.748 -607.989 846.044 C-612.462 841.378 -616.934 837.199 -622.177 833.411 C-624.694 831.512 -626.821 829.329 -628.989 827.044 C-632.419 823.561 -635.939 820.212 -639.552 816.919 C-639.808 816.684 -639.808 816.684 -641.108 815.497 C-642.734 814.011 -644.361 812.527 -645.989 811.044 C-648.136 809.087 -650.282 807.128 -652.427 805.169 C-652.9 804.737 -652.9 804.737 -655.298 802.552 C-658.831 799.26 -662.211 795.832 -665.602 792.396 C-670.256 787.695 -674.931 783.087 -679.962 778.786 C-683.214 775.991 -686.377 773.098 -689.555 770.22 C-691.649 768.348 -693.778 766.538 -695.927 764.731 C-699.942 761.252 -703.442 757.335 -706.982 753.385 C-709.453 750.648 -711.932 748.111 -714.802 745.794 C-717.916 743.277 -720.008 740.398 -722.319 737.15 C-723.966 735.073 -725.639 733.495 -727.669 731.798 C-732.053 728.039 -736.12 724.026 -740.177 719.919 C-740.862 719.229 -741.547 718.54 -742.253 717.829 C-745.095 714.968 -747.931 712.103 -750.751 709.22 C-752.641 707.382 -754.461 705.86 -756.614 704.356 C-764.911 698.279 -774.311 690.711 -779.989 682.044 C-779.989 681.384 -779.989 680.724 -779.989 680.044 C-780.69 679.858 -781.392 679.673 -782.114 679.481 C-785.53 677.774 -787.155 675.763 -789.524 672.833 C-790.989 671.044 -790.989 671.044 -793.427 668.606 C-796.276 665.757 -798.901 662.763 -801.536 659.716 C-802.329 658.803 -803.134 657.899 -803.989 657.044 C-803.973 655.083 -803.973 655.083 -803.739 652.669 C-803.705 652.273 -803.705 652.273 -803.536 650.271 C-802.885 647.621 -802.167 646.661 -799.989 645.044 C-795.874 644.347 -793.48 644.04 -789.969 646.403 C-788.61 647.615 -787.279 648.86 -785.973 650.13 C-784.143 651.895 -782.311 653.33 -780.239 654.794 C-771.811 661.003 -764.355 668.584 -757.036 676.036 C-755.073 677.962 -753.044 679.729 -750.927 681.481 C-749.957 682.327 -748.988 683.173 -747.989 684.044 C-747.989 684.704 -747.989 685.364 -747.989 686.044 C-747.7 686.17 -747.7 686.17 -746.235 686.806 C-743.706 688.2 -742.055 689.782 -740.052 691.856 C-739.702 692.214 -739.702 692.214 -737.934 694.021 C-736.428 695.587 -734.926 697.158 -733.427 698.731 C-731.474 700.584 -729.693 701.984 -727.489 703.481 C-724.01 705.884 -721.619 708.722 -718.989 712.044 C-713.006 718.369 -706.317 724.037 -699.739 729.731 C-696.333 732.708 -693.072 735.73 -689.989 739.044 C-689.989 739.704 -689.989 740.364 -689.989 741.044 C-689.441 741.273 -688.893 741.503 -688.329 741.739 C-685.315 743.42 -683.071 745.563 -680.552 747.919 C-677.868 750.419 -675.218 752.863 -672.341 755.138 C-670.205 756.869 -668.547 758.56 -666.802 760.669 C-661.783 766.532 -656.448 772.307 -650.387 777.103 C-648.173 778.895 -646.52 780.648 -644.739 782.856 C-641.53 786.626 -638.013 789.499 -634.059 792.454 C-631.466 794.446 -629.236 796.672 -626.989 799.044 C-626.608 799.42 -626.608 799.42 -624.68 801.325 C-622.4 803.628 -620.208 805.983 -618.044 808.395 C-612.404 814.678 -606.531 820.281 -599.864 825.481 C-596.854 828.164 -594.695 830.943 -592.364 834.208 C-590.989 836.044 -590.989 836.044 -588.864 837.981 C-586.886 840.157 -586.108 841.909 -584.989 844.606 C-583.903 847.125 -582.954 849.091 -581.302 851.294 C-577.224 852.616 -573.762 850.746 -569.989 849.044 C-567.725 847.831 -565.513 846.573 -563.325 845.228 C-560.989 844.044 -560.989 844.044 -557.61 843.126 C-553.789 841.984 -551.023 840.444 -547.677 838.294 C-546.542 837.572 -545.406 836.851 -544.27 836.13 C-543.187 835.442 -542.105 834.753 -540.989 834.044 C-539.222 832.996 -537.451 831.954 -535.677 830.919 C-531.851 828.637 -528.309 826.128 -524.782 823.411 C-521.633 821.01 -518.3 818.886 -514.969 816.747 C-509.719 813.327 -504.864 809.602 -500.055 805.583 C-497.989 804.044 -497.989 804.044 -495.989 804.044 C-495.876 803.766 -495.876 803.766 -495.302 802.356 C-493.259 798.758 -490.367 796.19 -487.2 793.556 C-476.966 785.014 -469.549 773.909 -461.989 763.044 C-461.723 762.666 -461.723 762.666 -460.376 760.751 C-452.413 749.155 -445.619 736.922 -439.989 724.044 C-439.763 723.572 -439.763 723.572 -438.622 721.185 C-438.186 720.272 -437.75 719.359 -437.302 718.419 C-436.926 717.643 -436.551 716.867 -436.165 716.067 C-435.108 713.351 -434.34 710.729 -433.598 707.915 C-432.047 702.049 -430.014 696.424 -427.927 690.731 C-425.237 683.242 -423.09 676.343 -422.536 668.372 C-422.027 665.277 -421.213 662.901 -420.075 659.997 C-417.666 653.62 -416.735 647.28 -415.864 640.544 C-415.551 638.242 -415.236 635.94 -414.919 633.638 C-414.767 632.516 -414.615 631.394 -414.459 630.238 C-414.041 627.395 -413.528 624.599 -412.966 621.782 C-411.395 613.422 -410.961 604.89 -410.312 596.419 C-410.138 594.172 -409.954 591.926 -409.77 589.681 C-409.721 589.002 -409.672 588.324 -409.622 587.625 C-409.278 583.48 -408.343 579.959 -406.989 576.044 C-406.642 573.509 -406.642 573.509 -406.497 570.981 C-406.465 570.506 -406.465 570.506 -406.305 568.101 C-406.274 567.597 -406.274 567.597 -406.114 565.044 C-405.453 555.856 -404.227 546.964 -402.45 537.93 C-401.329 532.162 -400.534 526.456 -399.989 520.606 C-399.33 513.702 -397.958 507.315 -395.989 500.669 C-395.209 497.843 -394.592 495.108 -394.048 492.235 C-393.04 487.039 -391.611 482.036 -390.052 476.981 C-389.8 476.148 -389.547 475.315 -389.288 474.456 C-388.049 470.385 -386.758 466.341 -385.384 462.313 C-384.214 458.838 -383.339 455.392 -382.614 451.794 C-380.893 444.077 -378.54 436.279 -374.438 429.47 C-373.003 427.068 -372.159 424.887 -371.302 422.231 C-368.805 415.126 -365.36 408.549 -361.92 401.867 C-360.702 399.483 -359.535 397.076 -358.364 394.669 C-356.236 390.398 -353.815 386.344 -351.321 382.278 C-349.989 380.044 -349.989 380.044 -348.552 377.044 C-346.631 373.356 -344.303 370.083 -341.887 366.704 C-340.624 364.934 -339.379 363.15 -338.153 361.353 C-335.044 356.797 -331.895 352.95 -327.989 349.044 C-326.956 347.061 -325.955 345.06 -324.989 343.044 C-323.683 341.356 -322.346 339.691 -320.989 338.044 C-320.315 337.205 -319.641 336.366 -318.946 335.501 C-314.479 329.993 -309.899 324.633 -305.118 319.396 C-303.137 317.207 -301.216 314.978 -299.302 312.731 C-297.267 310.381 -295.243 308.341 -292.802 306.419 C-289.796 303.881 -288.113 301.333 -285.989 298.044 C-284.884 296.907 -283.775 295.775 -282.641 294.667 C-280.54 292.603 -278.48 290.5 -276.415 288.399 C-274.71 286.677 -273.006 284.954 -271.302 283.231 C-270.435 282.348 -269.568 281.464 -268.675 280.554 C-267.846 279.719 -267.018 278.884 -266.165 278.024 C-265.411 277.26 -264.657 276.496 -263.881 275.709 C-261.989 274.044 -261.989 274.044 -259.989 274.044 C-259.885 273.775 -259.885 273.775 -259.36 272.415 C-257.101 268.507 -253.665 265.643 -250.421 262.554 C-247.348 259.572 -245.143 256.779 -242.989 253.044 C-241.024 251.66 -239.019 250.332 -236.989 249.044 C-232.71 245.643 -228.836 241.923 -224.989 238.044 C-223.719 236.773 -222.448 235.502 -221.177 234.231 C-220.493 233.548 -219.81 232.865 -219.106 232.161 C-217.005 230.06 -214.903 227.958 -212.802 225.856 C-212.472 225.527 -212.472 225.527 -210.805 223.86 C-209.284 222.339 -207.762 220.818 -206.239 219.298 C-204.796 217.853 -203.358 216.402 -201.927 214.946 C-198.426 211.397 -194.917 208.123 -190.989 205.044 C-189.31 203.39 -187.645 201.722 -185.989 200.044 C-185.163 199.207 -184.336 198.37 -183.485 197.508 C-182.617 196.628 -181.75 195.748 -180.856 194.841 C-179.368 193.338 -177.879 191.836 -176.389 190.334 C-175.381 189.316 -174.375 188.297 -173.371 187.275 C-167.334 181.136 -161.218 175.384 -154.436 170.051 C-151.083 167.301 -148.105 164.244 -145.083 161.142 C-143.219 159.275 -141.315 157.558 -139.302 155.856 C-134.619 151.861 -130.361 147.442 -126.088 143.018 C-123.413 140.288 -120.857 137.832 -117.63 135.767 C-114.989 134.044 -114.989 134.044 -113.864 131.669 C-114.008 128.649 -114.986 127.272 -116.747 124.88 C-128.722 107.18 -128.755 86.22 -124.989 66.044 C-122.348 53.764 -118.838 40.359 -109.989 31.044 C-109.412 30.116 -108.834 29.188 -108.239 28.231 C-99.337 15.62 -86.801 7.34 -72.989 1.044 C-72.579 0.843 -72.579 0.843 -70.505 -0.175 C-50.821 -9.134 -19.287 -10.132 0 0 Z " transform="translate(1733.989013671875,325.9560546875)"/><path d="M0 0 C2.388 1.802 3.383 3.392 5 6 C5 6.66 5 7.32 5 8 C5.99 8.33 6.98 8.66 8 9 C8.922 10.645 8.922 10.645 9.75 12.812 C11.814 17.817 14.481 22.306 17.316 26.91 C18.939 29.887 20.079 32.776 21.22 35.954 C22.494 39.297 24.119 42.445 25.75 45.625 C26.097 46.312 26.444 46.998 26.802 47.706 C28.191 50.452 29.589 53.194 30.988 55.936 C31.615 57.165 32.241 58.395 32.864 59.626 C33.692 61.261 34.526 62.892 35.359 64.523 C36.647 67.253 37.789 69.948 38.887 72.754 C41.376 79.08 44.376 85.137 47.377 91.232 C49.698 96.02 51.668 100.727 53.269 105.8 C54.549 109.651 56.2 113.342 57.812 117.062 C62.768 128.674 67.211 140.4 71.137 152.402 C72.093 155.28 73.137 158.113 74.219 160.945 C75.166 163.436 76.085 165.935 77 168.438 C77.309 169.282 77.619 170.126 77.938 170.996 C79.078 174.22 80.157 177.462 81.232 180.708 C81.922 182.769 82.635 184.819 83.359 186.867 C87.007 197.309 89.889 207.875 92.552 218.609 C94.888 227.946 94.888 227.946 96.625 232.438 C97.855 235.623 98.661 238.534 99.312 241.875 C100.977 250.03 102.863 258.129 104.755 266.234 C105.512 269.487 106.259 272.743 107 276 C107.124 276.542 107.124 276.542 107.75 279.284 C109.889 288.925 111.47 298.624 113 308.375 C113.497 311.529 113.997 314.683 114.5 317.836 C114.561 318.222 114.561 318.222 114.872 320.174 C115.69 325.256 116.613 330.31 117.594 335.363 C118.9 342.154 119.814 348.932 120.5 355.812 C120.62 356.978 120.741 358.144 120.865 359.345 C121.869 369.264 122.761 379.193 123.625 389.125 C123.687 389.837 123.75 390.549 123.814 391.283 C124.241 396.186 124.63 401.092 125 406 C125.099 407.26 125.199 408.52 125.301 409.818 C126.36 424.673 126.187 439.588 126.185 454.472 C126.185 457.636 126.192 460.8 126.206 463.964 C126.315 489.49 125.413 514.728 122.492 540.113 C122.085 543.877 121.81 547.64 121.57 551.418 C120.774 563.965 119.509 576.05 116.938 588.359 C116.097 592.39 115.496 596.41 115 600.5 C114.15 607.389 112.866 614.151 111.531 620.959 C110.392 626.811 109.392 632.668 108.5 638.562 C106.19 653.556 103.019 668.273 99.375 683 C99.074 684.224 98.772 685.448 98.462 686.709 C98.317 687.283 98.317 687.283 97.586 690.188 C97.329 691.212 97.071 692.237 96.806 693.293 C96.08 695.731 95.148 697.744 94 700 C93.465 702.586 92.99 705.147 92.562 707.75 C91.556 713.491 90.194 718.606 88 724 C87.204 726.851 86.463 729.71 85.746 732.582 C85 735 85 735 83 738 C82.411 740.28 81.878 742.575 81.375 744.875 C79.132 754.505 75.52 763.55 71.893 772.729 C68.977 780.149 66.416 787.668 64.027 795.273 C62.964 798.097 61.566 800.429 60 803 C59.393 804.525 58.832 806.068 58.312 807.625 C56.405 813.047 54.237 818.333 52 823.625 C51.668 824.412 51.336 825.199 50.993 826.01 C48.014 833.032 44.927 840.003 41.75 846.938 C40.202 850.328 38.678 853.726 37.184 857.141 C31.289 870.588 24.882 883.676 17.855 896.57 C16.465 899.14 15.094 901.716 13.738 904.305 C13.346 905.052 12.954 905.799 12.551 906.569 C11.792 908.016 11.037 909.464 10.283 910.914 C8.472 914.365 6.584 917.715 4.492 921.004 C1.998 924.93 -0.134 928.987 -2.25 933.125 C-6.063 940.442 -10.244 947.387 -14.828 954.242 C-16.054 956.081 -17.264 957.93 -18.473 959.781 C-22.34 965.678 -26.281 971.455 -30.562 977.062 C-36.157 984.403 -41.006 992.184 -45.875 1000.016 C-49.117 1005.197 -52.505 1010.107 -56.316 1014.887 C-57.918 1016.897 -59.466 1018.937 -61 1021 C-65.422 1026.92 -69.943 1032.74 -74.686 1038.407 C-76.909 1041.102 -79.042 1043.867 -81.188 1046.625 C-87.787 1055.059 -94.381 1063.455 -102 1071 C-103.077 1072.195 -104.141 1073.403 -105.188 1074.625 C-108.919 1078.934 -112.757 1083.14 -116.602 1087.348 C-118.563 1089.517 -120.478 1091.712 -122.375 1093.938 C-128.092 1100.526 -134.474 1106.526 -140.684 1112.645 C-142.548 1114.54 -144.262 1116.441 -145.938 1118.5 C-148.701 1121.773 -151.671 1124.309 -155 1127 C-157.378 1129.314 -159.693 1131.682 -161.996 1134.07 C-166.428 1138.602 -170.945 1142.639 -176.008 1146.449 C-178.557 1148.434 -180.747 1150.688 -183 1153 C-184.217 1154.118 -185.446 1155.222 -186.688 1156.312 C-187.269 1156.824 -187.85 1157.336 -188.449 1157.863 C-190 1159 -190 1159 -192 1159 C-192.249 1159.596 -192.498 1160.191 -192.754 1160.805 C-194.19 1163.335 -195.584 1164.431 -197.938 1166.125 C-201.574 1168.845 -204.928 1171.715 -208.25 1174.812 C-217.096 1182.946 -226.827 1189.891 -236.532 1196.949 C-241.369 1200.488 -246.028 1204.19 -250.633 1208.027 C-254.805 1211.504 -258.876 1214.617 -263.562 1217.375 C-269.544 1220.966 -275.243 1224.91 -280.938 1228.938 C-290.195 1235.481 -299.602 1241.671 -309.25 1247.625 C-312.081 1249.374 -314.765 1251.268 -317.457 1253.223 C-323.2 1257.254 -329.237 1260.546 -335.438 1263.812 C-336.578 1264.42 -337.719 1265.027 -338.895 1265.653 C-342.26 1267.443 -345.629 1269.223 -349 1271 C-350.75 1271.926 -352.5 1272.852 -354.25 1273.777 C-358.071 1275.795 -361.897 1277.802 -365.725 1279.806 C-368.095 1281.05 -370.462 1282.301 -372.828 1283.555 C-382.239 1288.535 -391.694 1293.402 -401.238 1298.123 C-402.863 1298.932 -404.481 1299.756 -406.098 1300.582 C-417.991 1306.649 -430.261 1311.797 -442.695 1316.641 C-445.886 1317.953 -448.918 1319.455 -452 1321 C-453.654 1321.657 -455.322 1322.282 -457 1322.875 C-457.946 1323.213 -458.892 1323.55 -459.867 1323.898 C-462.08 1324.677 -464.294 1325.452 -466.508 1326.227 C-476.945 1329.901 -476.945 1329.901 -481.875 1332.188 C-484.609 1333.453 -487.19 1334.379 -490.125 1335.062 C-493.36 1335.845 -496.101 1336.879 -499.131 1338.209 C-507.543 1341.77 -516.451 1344.219 -525.32 1346.324 C-527.69 1346.922 -529.947 1347.625 -532.25 1348.438 C-536.256 1349.826 -540.322 1350.87 -544.438 1351.875 C-550.547 1353.369 -556.625 1354.951 -562.688 1356.625 C-563.442 1356.831 -564.196 1357.037 -564.972 1357.25 C-565.687 1357.448 -566.401 1357.647 -567.137 1357.852 C-567.763 1358.025 -568.389 1358.199 -569.034 1358.377 C-571 1359 -571 1359 -573.2 1359.985 C-576.965 1361.35 -580.713 1361.827 -584.668 1362.383 C-593.518 1363.703 -602.224 1365.442 -610.961 1367.36 C-640.109 1373.74 -669.268 1378.279 -699.012 1380.746 C-701.935 1380.995 -704.856 1381.261 -707.777 1381.535 C-708.737 1381.623 -709.697 1381.712 -710.685 1381.803 C-712.447 1381.965 -714.208 1382.131 -715.969 1382.303 C-738.251 1384.324 -760.648 1384.206 -783 1384.188 C-783.798 1384.187 -784.597 1384.187 -785.419 1384.186 C-809.053 1384.171 -832.628 1384.063 -856.203 1382.219 C-859.419 1381.967 -862.636 1381.723 -865.853 1381.479 C-873.571 1380.887 -881.285 1380.26 -889 1379.625 C-890.226 1379.526 -891.453 1379.427 -892.716 1379.325 C-908.665 1378.022 -924.288 1376.031 -940 1373 C-941.415 1372.734 -942.831 1372.469 -944.247 1372.206 C-946.656 1371.755 -949.065 1371.301 -951.473 1370.844 C-957.516 1369.707 -963.571 1368.641 -969.625 1367.562 C-970.829 1367.347 -972.033 1367.131 -973.274 1366.909 C-978.949 1365.893 -984.624 1364.89 -990.309 1363.93 C-1006.649 1361.134 -1006.649 1361.134 -1014.445 1357.934 C-1018.668 1356.39 -1023.058 1355.665 -1027.457 1354.777 C-1033.085 1353.542 -1038.521 1351.769 -1044 1350 C-1050.798 1347.851 -1057.591 1345.829 -1064.5 1344.062 C-1072.558 1341.948 -1081.014 1339.658 -1088 1335 C-1089.635 1334.579 -1091.283 1334.212 -1092.938 1333.875 C-1099.698 1332.275 -1105.96 1329.739 -1112.353 1327.044 C-1116.894 1325.154 -1121.396 1323.558 -1126.125 1322.195 C-1134.116 1319.797 -1141.519 1316.332 -1149.062 1312.812 C-1150.53 1312.134 -1151.999 1311.457 -1153.467 1310.781 C-1155.65 1309.775 -1157.832 1308.769 -1160.012 1307.759 C-1164.814 1305.537 -1169.64 1303.373 -1174.483 1301.242 C-1184.916 1296.643 -1194.994 1291.462 -1205 1286 C-1205.795 1285.57 -1206.59 1285.14 -1207.409 1284.697 C-1208.198 1284.266 -1208.987 1283.835 -1209.801 1283.391 C-1210.51 1283.004 -1211.22 1282.618 -1211.95 1282.22 C-1214 1281 -1214 1281 -1216.005 1279.466 C-1218.003 1277.998 -1219.831 1277.096 -1222.117 1276.156 C-1227.306 1273.922 -1232.196 1271.253 -1237.125 1268.5 C-1237.98 1268.027 -1238.834 1267.554 -1239.715 1267.066 C-1242.147 1265.718 -1244.574 1264.361 -1247 1263 C-1247.648 1262.639 -1248.296 1262.278 -1248.964 1261.906 C-1252.766 1259.768 -1256.383 1257.435 -1260 1255 C-1262.078 1253.721 -1264.162 1252.45 -1266.25 1251.188 C-1272.001 1247.679 -1277.522 1243.917 -1283 1240 C-1284.687 1238.833 -1286.375 1237.666 -1288.062 1236.5 C-1291.273 1234.26 -1294.377 1231.94 -1297.438 1229.5 C-1301.374 1226.404 -1305.475 1223.73 -1309.715 1221.07 C-1320.256 1214.427 -1330.525 1207.929 -1339.566 1199.301 C-1346.261 1192.972 -1353.81 1187.601 -1361.238 1182.176 C-1364.059 1179.954 -1366.492 1177.567 -1369 1175 C-1372.465 1171.765 -1375.97 1168.575 -1379.478 1165.386 C-1380.86 1164.127 -1382.239 1162.865 -1383.617 1161.602 C-1387.876 1157.724 -1392.204 1153.991 -1396.688 1150.375 C-1411.368 1138.435 -1411.368 1138.435 -1412.277 1130.613 C-1412.531 1123.815 -1411.238 1119.612 -1406.75 1114.375 C-1402.117 1110.373 -1397.463 1107.215 -1391.141 1106.805 C-1380.644 1107.762 -1372.928 1117.312 -1365.831 1124.225 C-1358.768 1131.072 -1351.427 1137.547 -1343.754 1143.703 C-1340.865 1146.112 -1338.162 1148.657 -1335.438 1151.25 C-1325.843 1160.265 -1314.72 1167.469 -1303.875 1174.875 C-1299.592 1177.811 -1295.702 1180.91 -1291.867 1184.402 C-1289.953 1186.04 -1287.993 1187.388 -1285.875 1188.75 C-1281.684 1191.445 -1277.825 1194.456 -1273.938 1197.562 C-1269.127 1201.391 -1264.339 1204.932 -1259 1208 C-1257.394 1208.956 -1255.79 1209.914 -1254.188 1210.875 C-1253.346 1211.378 -1252.504 1211.88 -1251.637 1212.398 C-1248.062 1214.57 -1244.545 1216.826 -1241.031 1219.094 C-1229.903 1226.092 -1218.433 1232.518 -1207 1239 C-1206.471 1239.302 -1206.471 1239.302 -1203.793 1240.828 C-1197.68 1244.246 -1191.388 1247.223 -1185.011 1250.11 C-1180.715 1252.081 -1176.926 1254.347 -1173 1257 C-1171.001 1258.003 -1168.979 1258.961 -1166.938 1259.875 C-1166.371 1260.131 -1166.371 1260.131 -1163.504 1261.426 C-1162.348 1261.945 -1161.191 1262.465 -1160 1263 C-1157.791 1264.018 -1155.582 1265.039 -1153.375 1266.062 C-1145.286 1269.795 -1137.197 1273.509 -1129 1277 C-1128.327 1277.307 -1127.654 1277.614 -1126.961 1277.93 C-1119.515 1281.324 -1111.87 1284.019 -1104.133 1286.668 C-1103.696 1286.819 -1103.696 1286.819 -1101.484 1287.581 C-1099.743 1288.18 -1098.001 1288.774 -1096.257 1289.363 C-1091.567 1290.977 -1087.174 1292.786 -1082.808 1295.144 C-1080.845 1296.073 -1078.99 1296.579 -1076.875 1297.062 C-1073 1298 -1073 1298 -1070.215 1299.434 C-1066.737 1301.128 -1063.438 1302.065 -1059.688 1303 C-1054.876 1304.23 -1050.143 1305.552 -1045.445 1307.164 C-1028.304 1313.024 -1010.745 1317.495 -993.008 1321.156 C-988.384 1322.116 -983.778 1323.16 -979.17 1324.192 C-950.193 1330.679 -950.193 1330.679 -936.002 1332.442 C-932.201 1332.946 -928.46 1333.658 -924.699 1334.406 C-915.595 1336.153 -906.455 1337.411 -897.25 1338.5 C-896.354 1338.606 -895.457 1338.712 -894.534 1338.821 C-840.853 1345.034 -786.834 1344.991 -732.938 1342.625 C-732.212 1342.593 -731.486 1342.562 -730.738 1342.529 C-702.812 1341.308 -702.812 1341.308 -689.504 1340.023 C-688.739 1339.951 -687.975 1339.879 -687.187 1339.804 C-682.308 1339.286 -677.749 1338.226 -673 1337 C-671.489 1336.779 -669.972 1336.593 -668.449 1336.473 C-668.062 1336.439 -668.062 1336.439 -666.102 1336.266 C-665.305 1336.199 -664.509 1336.132 -663.688 1336.062 C-658.552 1335.58 -653.633 1335.104 -648.688 1333.562 C-643.416 1331.927 -638.146 1331.3 -632.688 1330.625 C-622.253 1329.303 -612.16 1327.168 -601.944 1324.7 C-598.826 1323.959 -595.702 1323.253 -592.574 1322.555 C-579.643 1319.656 -566.897 1316.399 -554.194 1312.623 C-552.028 1312.008 -549.855 1311.472 -547.664 1310.953 C-544.746 1310.194 -542.615 1309.392 -540 1308 C-538.698 1307.663 -537.384 1307.374 -536.062 1307.125 C-526.358 1305.076 -517.14 1301.726 -507.934 1298.09 C-505.529 1297.196 -503.246 1296.496 -500.75 1295.938 C-497.104 1295.026 -494.069 1293.775 -490.68 1292.203 C-487.345 1290.706 -483.959 1289.349 -480.562 1288 C-480.237 1287.871 -480.237 1287.871 -478.591 1287.216 C-476.728 1286.477 -474.864 1285.738 -473 1285 C-470.447 1283.98 -467.895 1282.958 -465.344 1281.934 C-463.681 1281.271 -462.013 1280.618 -460.344 1279.973 C-459.467 1279.631 -458.591 1279.289 -457.688 1278.938 C-456.908 1278.637 -456.128 1278.337 -455.324 1278.027 C-452.736 1276.883 -450.422 1275.462 -448 1274 C-444.373 1272.245 -440.685 1270.628 -437 1269 C-435.886 1268.505 -434.773 1268.01 -433.625 1267.5 C-430.31 1266.128 -426.977 1264.839 -423.625 1263.562 C-409.811 1258.262 -409.811 1258.262 -404.324 1254.652 C-399.931 1251.872 -395.351 1249.712 -390.625 1247.562 C-384.568 1244.758 -378.775 1241.836 -373.125 1238.266 C-370.251 1236.554 -367.239 1235.304 -364.164 1234 C-360.565 1232.337 -357.311 1230.166 -354 1228 C-351.71 1226.591 -349.417 1225.223 -347.047 1223.953 C-341.977 1221.223 -337.337 1218.166 -332.66 1214.812 C-329.887 1212.923 -327.048 1211.271 -324.125 1209.625 C-318.654 1206.502 -313.731 1202.898 -308.742 1199.062 C-305.911 1196.933 -303.019 1195.064 -299.988 1193.238 C-296.735 1191.212 -293.635 1188.968 -290.508 1186.754 C-288.177 1185.124 -285.818 1183.555 -283.438 1182 C-279.453 1179.37 -275.726 1176.481 -271.984 1173.52 C-269.756 1171.813 -267.405 1170.443 -265 1169 C-261.956 1166.723 -258.983 1164.357 -256 1162 C-254.542 1160.874 -253.084 1159.749 -251.625 1158.625 C-238.044 1148.051 -238.044 1148.051 -233.852 1143.844 C-232 1142 -232 1142 -229.188 1140.188 C-226.601 1138.413 -224.769 1136.848 -222.625 1134.625 C-219.591 1131.483 -216.355 1128.953 -212.832 1126.387 C-210.303 1124.472 -208.188 1122.295 -206 1120 C-200.527 1114.411 -194.933 1109.094 -189 1104 C-187.434 1102.629 -185.872 1101.254 -184.312 1099.875 C-183.96 1099.564 -183.96 1099.564 -182.176 1097.992 C-179.708 1095.732 -177.363 1093.37 -175 1091 C-173.354 1089.375 -171.707 1087.752 -170.059 1086.129 C-168.662 1084.746 -167.266 1083.364 -165.87 1081.98 C-164.915 1081.035 -163.958 1080.092 -162.999 1079.15 C-161.598 1077.773 -160.203 1076.388 -158.809 1075.004 C-158.395 1074.596 -158.395 1074.596 -156.302 1072.53 C-153.864 1069.851 -151.962 1067.039 -150 1064 C-148.772 1062.668 -147.502 1061.372 -146.188 1060.125 C-142.224 1056.265 -138.587 1052.208 -135 1048 C-134 1046.833 -133 1045.667 -132 1044.5 C-131.51 1043.926 -131.02 1043.353 -130.516 1042.762 C-128.942 1040.932 -127.347 1039.122 -125.75 1037.312 C-122.733 1033.865 -119.76 1030.382 -116.812 1026.875 C-115.994 1025.903 -115.175 1024.931 -114.332 1023.93 C-112.038 1021.048 -110.039 1018.065 -108 1015 C-106.564 1013.211 -105.105 1011.44 -103.625 1009.688 C-100.29 1005.66 -97.298 1001.579 -94.465 997.191 C-91.124 992.194 -87.33 987.521 -83.375 983 C-80.914 979.892 -79.17 976.781 -77.406 973.246 C-75.631 970.41 -73.371 968.356 -71 966 C-65.592 958.882 -60.918 951.355 -56.496 943.594 C-54.786 940.628 -52.93 937.826 -51 935 C-49.113 931.923 -47.307 928.803 -45.512 925.672 C-45.052 924.871 -44.593 924.071 -44.119 923.246 C-43.174 921.599 -42.232 919.95 -41.291 918.301 C-38.485 913.423 -35.52 908.71 -32.368 904.049 C-30.575 901.364 -28.93 898.607 -27.312 895.812 C-26.752 894.85 -26.191 893.887 -25.613 892.895 C-23.984 889.97 -22.492 886.996 -21 884 C-20.526 883.258 -20.051 882.515 -19.562 881.75 C-18.218 879.384 -17.276 877.218 -16.312 874.688 C-12.72 865.496 -8.021 856.752 -3.363 848.062 C-2.919 847.23 -2.474 846.398 -2.016 845.541 C-1.155 843.935 -0.288 842.333 0.586 840.735 C2.98 836.276 4.744 831.942 6.245 827.114 C7.182 824.492 8.558 822.199 9.996 819.823 C11.938 816.297 13.166 812.475 14.5 808.688 C15.112 806.987 15.726 805.286 16.34 803.586 C16.628 802.784 16.917 801.982 17.214 801.155 C18.39 797.929 19.678 794.753 20.977 791.574 C22.627 787.422 24.159 783.225 25.712 779.036 C27.274 774.854 28.931 770.73 30.688 766.625 C32.521 762.299 33.979 757.993 35.262 753.477 C36.036 750.878 36.934 748.355 37.875 745.812 C43.234 731.285 48.426 716.316 51.507 701.117 C52.005 698.978 52.65 696.958 53.367 694.883 C55.046 689.917 56.552 684.913 58 679.875 C58.262 678.964 58.524 678.054 58.794 677.115 C60.67 670.467 62.165 663.833 63.359 657.031 C64 654 64 654 64.993 651.636 C66.02 648.947 66.434 646.651 66.746 643.797 C66.861 642.816 66.977 641.835 67.096 640.824 C67.322 638.791 67.546 636.757 67.768 634.723 C68.414 629.258 69.422 624.44 71.293 619.274 C72.635 614.955 73.002 610.481 73.5 606 C74.346 598.931 75.296 591.932 76.625 584.938 C77.774 578.803 78.401 572.754 78.758 566.523 C79.295 558.708 80.445 550.934 81.539 543.18 C87.979 497.139 86.215 448.495 84.125 402.188 C84.086 401.284 84.047 400.381 84.006 399.451 C83.622 390.881 83.106 382.498 81.526 374.051 C80.887 370.343 80.45 366.621 80.035 362.883 C79.995 362.527 79.995 362.527 79.793 360.724 C79.465 357.791 79.141 354.858 78.825 351.923 C77.88 343.195 76.637 334.716 74.689 326.14 C73.734 321.786 73.1 317.414 72.5 313 C71.5 305.981 70.244 299.119 68.676 292.203 C68.016 289.078 67.55 285.977 67.125 282.812 C66.189 276.339 64.542 270.133 62.823 263.833 C61.468 258.855 60.285 253.91 59.457 248.812 C59 247 59 247 57 244 C56.462 241.784 55.991 239.552 55.562 237.312 C54.614 232.656 53.528 228.395 51.738 224.008 C50.86 221.619 50.277 219.226 49.688 216.75 C45.686 200.203 40.498 183.67 34.387 167.777 C33.323 164.972 32.526 162.275 32 159.312 C31.238 155.642 30.019 153.184 28 150 C26.147 145.774 24.546 141.444 22.914 137.129 C20.063 129.618 17.014 122.211 13.879 114.814 C12.154 110.744 10.443 106.672 8.812 102.562 C8.665 102.191 8.665 102.191 7.918 100.312 C7.232 98.584 6.547 96.855 5.863 95.125 C3.404 89.042 0.635 83.324 -2.586 77.609 C-4.284 74.475 -5.693 71.269 -7.043 67.973 C-8 66 -8 66 -9.516 64 C-11.022 61.97 -11.739 60.314 -12.562 57.938 C-15.277 50.849 -18.986 44.265 -22.562 37.586 C-23.376 36.058 -24.189 34.529 -25 33 C-25.392 32.266 -25.784 31.531 -26.188 30.774 C-26.55 30.078 -26.912 29.382 -27.285 28.664 C-27.446 28.358 -27.446 28.358 -28.258 26.811 C-29.61 23.51 -29.515 20.479 -29 17 C-28.902 16.328 -28.804 15.657 -28.703 14.965 C-27.156 8.881 -23.073 6.556 -17.887 3.445 C-12.191 0.594 -6.373 -1.382 0 0 Z " transform="translate(1815,569)"/><path d="M0 0 C8.245 6.223 13.168 15.939 15 26 C15.38 31.923 13.358 37.634 11.688 43.25 C11.487 43.936 11.287 44.622 11.08 45.329 C8.323 54.068 1.976 60.223 -5.812 64.812 C-15.034 69.532 -23.718 69.556 -33.48 66.871 C-42.712 63.872 -48.386 59.826 -53.328 51.465 C-59.003 39.703 -61.331 27.875 -57.047 15.246 C-55.635 12.216 -53.826 9.975 -51.512 7.582 C-50 6 -50 6 -47.938 2.938 C-36.024 -11.593 -13.846 -8.865 0 0 Z " transform="translate(1637,747)"/><path d="M0 0 C2.635 0.261 5.271 0.5 7.908 0.737 C18.424 1.728 28.649 3.352 38.973 5.581 C43.746 6.592 48.546 7.257 53.383 7.886 C67.365 9.832 80.894 13.778 94.382 17.863 C96.948 18.622 99.528 19.273 102.133 19.886 C136.895 28.419 136.895 28.419 149.945 36.636 C152.191 40.609 151.543 43.043 150.511 47.394 C145.731 63.221 145.731 63.221 141.57 68.511 C136.741 70.162 132.635 69.085 127.883 67.698 C127.219 67.52 126.556 67.341 125.873 67.157 C122.682 66.267 120.35 65.364 117.57 63.511 C115.48 62.992 113.372 62.543 111.258 62.136 C106.301 61.128 101.479 59.957 96.633 58.511 C90.416 56.672 84.217 55.377 77.847 54.222 C74.57 53.511 74.57 53.511 72.279 52.554 C66.675 50.396 60.59 49.645 54.695 48.573 C53.972 48.44 53.248 48.307 52.503 48.171 C39.229 45.755 26.002 44.263 12.558 43.151 C7.96 42.771 3.459 42.198 -1.094 41.456 C-10.085 40.126 -19.047 40.118 -28.117 40.136 C-29.014 40.135 -29.911 40.135 -30.835 40.134 C-46.349 40.157 -61.19 41.459 -76.43 44.511 C-76.822 44.585 -76.822 44.585 -78.806 44.962 C-83.794 45.912 -88.678 46.915 -93.489 48.55 C-96.11 49.406 -98.46 49.887 -101.18 50.261 C-115.043 52.675 -132.167 57.94 -143.43 66.511 C-145.395 67.354 -145.395 67.354 -147.367 68.011 C-150.7 69.124 -153.446 70.652 -156.43 72.511 C-157.413 73.104 -158.397 73.697 -159.41 74.308 C-176.765 84.877 -192.128 97.079 -206.43 111.511 C-206.971 112.031 -207.512 112.552 -208.07 113.088 C-212.475 117.366 -216.253 121.912 -219.93 126.823 C-220.495 127.571 -221.059 128.319 -221.641 129.089 C-227.305 136.62 -232.849 144.072 -237.289 152.405 C-238.124 153.946 -239.009 155.46 -239.922 156.956 C-244.65 164.967 -247.914 173.919 -251.43 182.511 C-251.679 183.105 -251.679 183.105 -252.938 186.112 C-253.456 187.37 -253.975 188.628 -254.492 189.886 C-254.725 190.446 -254.725 190.446 -255.903 193.284 C-260.281 204.936 -262.484 216.677 -264.24 228.943 C-264.618 231.574 -265.01 234.204 -265.405 236.833 C-270.67 272.355 -269.62 308.456 -265.742 344.073 C-265.681 344.646 -265.681 344.646 -265.373 347.544 C-263.718 362.769 -261.204 377.678 -258.022 392.655 C-255.766 403.536 -253.738 414.474 -252.43 425.511 C-251.844 430.302 -250.873 434.656 -249.43 439.261 C-247.441 445.713 -246.675 451.97 -246.201 458.676 C-245.816 463.536 -244.804 467.62 -243.159 472.2 C-241.632 477.039 -241.233 482.119 -240.614 487.138 C-240.073 491.166 -239.44 494.788 -237.899 498.562 C-235.861 503.574 -235.651 508.628 -235.258 513.976 C-235.191 514.732 -235.124 515.489 -235.055 516.269 C-235.006 516.94 -234.957 517.612 -234.906 518.304 C-234.43 520.511 -234.43 520.511 -232.996 523.153 C-230.951 527.538 -230.394 531.713 -229.746 536.479 C-229.676 536.968 -229.676 536.968 -229.321 539.439 C-228.866 542.628 -228.428 545.819 -227.992 549.011 C-227.684 551.221 -227.375 553.431 -227.066 555.641 C-225.184 569.262 -223.486 582.898 -222.055 596.573 C-222.015 596.95 -222.015 596.95 -221.815 598.859 C-220.098 615.402 -219.194 631.881 -219.18 648.511 C-219.179 649.375 -219.178 650.239 -219.177 651.129 C-219.19 668.08 -220.31 684.685 -222.43 701.511 C-222.502 702.094 -222.502 702.094 -222.868 705.048 C-227.635 742.318 -227.635 742.318 -234.43 752.511 C-234.77 754.01 -235.048 755.523 -235.281 757.042 C-236.346 762.758 -238.419 767.732 -240.805 773.011 C-241.585 774.771 -242.363 776.531 -243.141 778.292 C-243.333 778.723 -243.333 778.723 -244.304 780.904 C-245.424 783.496 -246.453 786.111 -247.469 788.745 C-249.112 792.897 -251.032 796.495 -253.43 800.261 C-254.09 801.307 -254.75 802.354 -255.43 803.433 C-257.407 806.475 -259.411 809.497 -261.43 812.511 C-261.659 812.857 -261.659 812.857 -262.817 814.608 C-264.344 816.916 -265.885 819.214 -267.43 821.511 C-268.16 822.597 -268.889 823.684 -269.641 824.804 C-270.424 825.956 -271.208 827.109 -271.992 828.261 C-272.716 829.328 -273.439 830.395 -274.184 831.495 C-276.396 834.465 -278.768 836.945 -281.43 839.511 C-282.645 840.95 -283.86 842.39 -285.055 843.847 C-289.425 849.136 -293.982 854.188 -298.883 858.991 C-300.071 860.159 -301.227 861.359 -302.367 862.573 C-304.799 864.857 -307.409 866.769 -310.094 868.745 C-312.743 870.747 -315.304 872.838 -317.867 874.948 C-319.721 876.469 -321.576 877.99 -323.43 879.511 C-324.229 880.168 -325.028 880.826 -325.852 881.503 C-329.838 884.706 -333.647 887.297 -338.294 889.428 C-340.531 890.562 -342.515 891.863 -344.578 893.288 C-364.659 906.826 -386.356 914.431 -409.332 921.548 C-411.768 922.305 -414.195 923.082 -416.621 923.87 C-427.956 927.285 -439.766 928.075 -451.508 929.185 C-453.504 929.408 -455.493 929.692 -457.473 930.029 C-460.246 930.481 -462.906 930.71 -465.711 930.827 C-466.707 930.869 -467.703 930.911 -468.729 930.955 C-469.785 930.994 -470.842 931.033 -471.93 931.073 C-473.031 931.114 -474.133 931.155 -475.267 931.198 C-511.323 932.446 -511.323 932.446 -526.258 928.499 C-530.741 927.346 -535.203 926.96 -539.805 926.573 C-546.709 925.906 -552.887 924.869 -559.43 922.511 C-560.622 922.134 -561.815 921.758 -563.043 921.37 C-575.206 917.521 -587.018 912.82 -598.864 908.097 C-603.017 906.442 -607.185 904.865 -611.399 903.37 C-617.601 901.136 -622.98 898.223 -628.43 894.511 C-629.39 893.86 -630.351 893.209 -631.34 892.538 C-636.958 887.955 -639 883.911 -639.969 876.865 C-641.034 866.249 -641.034 866.249 -639.504 861.847 C-636.518 859.923 -634.346 860.362 -630.909 860.915 C-626.768 861.91 -622.991 863.514 -619.117 865.261 C-617.451 865.987 -615.784 866.714 -614.117 867.44 C-613.317 867.795 -612.516 868.149 -611.692 868.514 C-608.681 869.841 -605.653 871.118 -602.617 872.386 C-602.181 872.57 -602.181 872.57 -599.973 873.503 C-594.588 875.637 -589.773 876.815 -583.992 877.386 C-577.166 878.137 -570.791 879.642 -564.172 881.507 C-553.478 884.376 -542.411 885.869 -531.492 887.636 C-530.438 887.807 -529.384 887.977 -528.298 888.153 C-512.536 890.66 -512.536 890.66 -505.055 890.636 C-504.649 890.637 -504.649 890.637 -502.594 890.644 C-500.43 890.511 -500.43 890.511 -497.43 889.511 C-498.679 881.72 -506.966 875.896 -512.684 871.069 C-514.893 869.097 -516.607 866.837 -518.43 864.511 C-520.076 863.152 -521.743 861.818 -523.43 860.511 C-524.763 859.177 -526.097 857.844 -527.43 856.511 C-530.761 853.53 -534.14 850.603 -537.551 847.714 C-540.645 845.07 -543.563 842.5 -546.117 839.323 C-548.43 836.511 -548.43 836.511 -550.992 834.511 C-553.43 832.511 -553.43 832.511 -555.242 829.698 C-557.54 826.351 -559.921 824.176 -562.996 821.577 C-566.003 819.024 -568.942 816.405 -571.867 813.761 C-572.4 813.289 -572.932 812.817 -573.481 812.33 C-575.967 810.077 -577.35 808.751 -578.43 805.511 C-579.42 805.181 -580.41 804.851 -581.43 804.511 C-582.549 803.12 -583.667 801.728 -584.774 800.327 C-587.53 797.304 -590.79 794.925 -594.028 792.44 C-600.202 787.481 -600.202 787.481 -600.93 784.386 C-601.095 783.767 -601.26 783.148 -601.43 782.511 C-602.069 782.201 -602.709 781.892 -603.367 781.573 C-605.43 780.511 -605.43 780.511 -606.742 778.323 C-607.648 774.617 -607.418 772.198 -606.43 768.511 C-603.712 764.639 -602.221 763.664 -597.555 762.761 C-593.019 763.043 -590.926 765.371 -588.008 768.644 C-587.487 769.26 -586.966 769.876 -586.43 770.511 C-583.57 773.517 -580.736 776.049 -577.367 778.448 C-573.799 781.047 -571.794 783.762 -569.43 787.511 C-567.801 788.889 -566.132 790.223 -564.43 791.511 C-562.742 793.156 -561.076 794.824 -559.43 796.511 C-558.605 797.336 -557.78 798.161 -556.93 799.011 C-556.105 799.836 -555.28 800.661 -554.43 801.511 C-553.664 802.265 -552.899 803.019 -552.11 803.796 C-549.337 806.605 -546.691 809.512 -544.055 812.448 C-540.948 815.888 -537.825 819.181 -534.242 822.136 C-533.314 822.919 -532.386 823.703 -531.43 824.511 C-531.43 825.171 -531.43 825.831 -531.43 826.511 C-530.687 826.738 -529.945 826.964 -529.18 827.198 C-525.884 828.771 -524.613 830.623 -522.43 833.511 C-521.687 834.068 -520.945 834.624 -520.18 835.198 C-519.891 835.415 -519.891 835.415 -518.43 836.511 C-518.43 837.171 -518.43 837.831 -518.43 838.511 C-517.704 838.744 -516.978 838.977 -516.231 839.218 C-512.932 840.741 -511.112 842.566 -508.617 845.198 C-505.611 848.308 -502.616 851.291 -499.305 854.073 C-495.646 857.196 -492.585 860.676 -489.442 864.308 C-486.89 867.102 -484.111 869.521 -481.235 871.972 C-475.923 876.502 -471.362 881.743 -467.43 887.511 C-467.43 888.171 -467.43 888.831 -467.43 889.511 C-459.263 889.141 -451.465 888.282 -443.467 886.663 C-438.945 885.757 -434.457 885.139 -429.867 884.636 C-421.926 883.637 -414.911 881.285 -407.43 878.511 C-406.672 878.241 -405.914 877.972 -405.133 877.694 C-403.216 877.001 -401.323 876.266 -399.43 875.511 C-399.004 875.344 -399.004 875.344 -396.848 874.499 C-379.509 867.512 -355 857.617 -343.664 842.093 C-341.64 839.753 -340.428 838.814 -337.832 837.331 C-332.073 833.911 -327.658 829.136 -322.992 824.386 C-322.102 823.499 -321.212 822.612 -320.295 821.698 C-309.934 811.254 -300.019 799.949 -293.517 786.663 C-292.039 783.737 -290.407 780.91 -288.776 778.067 C-275.43 754.732 -275.43 754.732 -275.43 742.761 C-276.632 740.057 -278.132 739.208 -280.629 737.729 C-282.795 736.264 -284.48 734.57 -286.305 732.698 C-292.197 726.661 -298.507 721.342 -305.254 716.284 C-307.831 714.184 -310.091 711.873 -312.43 709.511 C-312.881 709.057 -312.881 709.057 -315.166 706.759 C-315.64 706.282 -316.114 705.804 -316.603 705.312 C-318.75 703.152 -320.899 700.994 -323.049 698.837 C-324.173 697.707 -325.297 696.577 -326.42 695.445 C-337.77 684.01 -337.77 684.01 -343.766 678.952 C-346.819 676.308 -349.605 673.393 -352.43 670.511 C-355.997 666.89 -359.665 663.422 -363.43 660.011 C-367.195 656.599 -370.86 653.129 -374.43 649.511 C-375.193 648.748 -375.956 647.984 -376.742 647.198 C-378.248 645.692 -379.751 644.183 -381.242 642.663 C-386.764 637.066 -392.542 631.873 -398.617 626.886 C-401.389 624.545 -403.93 622.139 -406.43 619.511 C-406.67 619.279 -406.67 619.279 -407.887 618.108 C-410.56 615.332 -411.423 613.904 -411.492 610.011 C-410.309 606.113 -409.167 603.543 -406.43 600.511 C-403.742 599.698 -403.742 599.698 -400.43 600.511 C-397.995 602.137 -395.769 603.906 -393.524 605.784 C-391.43 607.511 -391.43 607.511 -388.867 608.948 C-385.62 611.03 -383.176 613.682 -380.5 616.444 C-378.556 618.385 -376.549 620.14 -374.43 621.886 C-373.44 622.752 -372.45 623.618 -371.43 624.511 C-371.43 625.171 -371.43 625.831 -371.43 626.511 C-370.892 626.721 -370.355 626.931 -369.801 627.147 C-366.527 629.03 -364.098 631.633 -361.492 634.323 C-361.236 634.584 -361.236 634.584 -359.94 635.903 C-358.923 636.938 -357.907 637.975 -356.893 639.013 C-350.953 645.092 -350.953 645.092 -347.93 647.511 C-345.221 649.678 -342.883 652.058 -340.43 654.511 C-338.565 656.23 -336.69 657.938 -334.805 659.636 C-331.952 662.207 -329.118 664.767 -326.43 667.511 C-326.059 667.872 -326.059 667.872 -324.18 669.698 C-322.05 671.877 -320.085 674.068 -318.117 676.386 C-313.796 681.376 -308.911 685.549 -303.742 689.636 C-301.43 691.511 -301.43 691.511 -299.117 693.886 C-296.369 696.571 -293.496 698.771 -290.41 701.046 C-286.336 704.059 -282.674 707.119 -279.43 711.011 C-276.659 714.318 -273.984 717.038 -270.43 719.511 C-268.25 719.136 -268.25 719.136 -266.43 718.511 C-266.411 718.19 -266.411 718.19 -266.317 716.569 C-265.998 712.376 -265.68 709.064 -263.93 705.198 C-259.985 695.501 -261.242 683.427 -261.192 673.089 C-261.19 672.729 -261.19 672.729 -261.179 670.91 C-261.159 667.085 -261.144 663.26 -261.135 659.436 C-261.126 656.355 -261.105 653.274 -261.073 650.193 C-260.862 629.467 -262.07 609.44 -264.965 588.916 C-265.556 584.586 -266.005 580.25 -266.434 575.901 C-267.447 566.283 -269.132 556.773 -270.834 547.256 C-271.374 544.225 -271.897 541.19 -272.42 538.155 C-272.765 536.206 -273.111 534.257 -273.457 532.308 C-273.611 531.411 -273.764 530.514 -273.922 529.59 C-275.831 519.11 -275.831 519.11 -279.43 515.511 C-281.043 515.577 -282.653 515.716 -284.258 515.886 C-285.255 515.986 -286.252 516.087 -287.28 516.19 C-287.799 516.243 -287.799 516.243 -290.43 516.511 C-292.383 516.682 -294.336 516.848 -296.289 517.011 C-296.775 517.052 -296.775 517.052 -299.231 517.261 C-301.212 517.429 -303.194 517.595 -305.176 517.761 C-307.929 517.996 -310.679 518.252 -313.43 518.511 C-314.051 518.562 -314.051 518.562 -317.196 518.823 C-320.512 519.528 -322.797 520.815 -325.665 522.579 C-328.604 524.13 -331.594 524.358 -334.867 524.761 C-347.147 526.519 -359.081 529.808 -371.076 532.896 C-375.856 534.122 -380.647 535.29 -385.449 536.425 C-399.648 539.802 -413.58 543.643 -427.43 548.261 C-428.131 548.493 -428.833 548.726 -429.555 548.965 C-436.783 551.376 -443.661 553.999 -450.43 557.511 C-452.967 558.431 -455.491 559.303 -458.055 560.136 C-467.994 563.497 -477.422 567.912 -486.917 572.35 C-489.366 573.481 -491.83 574.575 -494.301 575.659 C-497.287 576.979 -500.164 578.373 -502.992 580.011 C-505.75 581.58 -508.512 583.066 -511.367 584.448 C-515.202 586.339 -518.817 588.519 -522.465 590.745 C-526.06 592.886 -529.711 594.915 -533.367 596.948 C-539.098 600.14 -544.664 603.5 -550.16 607.085 C-552.43 608.511 -552.43 608.511 -555.867 610.198 C-558.672 611.635 -560.226 613.274 -562.43 615.511 C-573.271 624.783 -585.13 632.94 -596.775 641.163 C-600.941 644.116 -605.001 647.082 -608.617 650.698 C-614.016 656.096 -619.614 661.282 -625.805 665.761 C-628.93 668.023 -631.034 670.476 -633.43 673.511 C-635.417 674.864 -637.417 676.196 -639.43 677.511 C-641.138 679.135 -642.805 680.803 -644.43 682.511 C-645.214 683.274 -645.997 684.037 -646.805 684.823 C-648.933 687.002 -650.937 689.211 -652.93 691.511 C-655.657 694.648 -658.36 697.704 -661.43 700.511 C-662.09 700.511 -662.75 700.511 -663.43 700.511 C-663.76 701.501 -664.09 702.491 -664.43 703.511 C-665.85 704.423 -667.271 705.334 -668.699 706.233 C-671.387 708.217 -673.374 710.698 -675.516 713.245 C-677.575 715.682 -679.713 718.032 -681.867 720.386 C-685.539 724.454 -689.002 728.641 -692.399 732.94 C-697.251 739.081 -702.162 745.158 -707.43 750.948 C-712.606 756.708 -717.118 762.961 -721.672 769.217 C-722.501 770.356 -723.333 771.492 -724.167 772.627 C-725.31 774.183 -726.447 775.745 -727.582 777.308 C-727.887 777.671 -727.887 777.671 -729.43 779.511 C-730.09 779.511 -730.75 779.511 -731.43 779.511 C-731.672 780.227 -731.915 780.944 -732.164 781.683 C-733.602 784.895 -735.388 787.095 -737.68 789.761 C-741.095 793.832 -744.157 797.94 -747.039 802.397 C-749.824 806.629 -752.931 810.626 -756.082 814.589 C-760.125 819.686 -763.805 824.943 -767.375 830.382 C-770.096 834.525 -772.884 838.621 -775.668 842.722 C-777.43 845.511 -777.43 845.511 -778.86 848.437 C-780.683 852.007 -782.873 855.101 -785.242 858.323 C-786.142 859.565 -787.04 860.807 -787.938 862.05 C-788.369 862.646 -788.799 863.242 -789.243 863.855 C-793.673 870.035 -797.701 876.481 -801.719 882.933 C-803.43 885.511 -803.43 885.511 -805.489 888.069 C-807.236 890.267 -808.56 892.349 -809.867 894.823 C-811.494 897.842 -813.193 900.756 -815.055 903.636 C-816.595 906.059 -817.731 908.216 -818.867 910.886 C-821.777 917.637 -825.786 923.672 -830.055 929.636 C-832.526 933.113 -834.591 936.53 -836.403 940.386 C-837.649 942.964 -839.037 945.447 -840.43 947.948 C-842.204 951.174 -843.864 954.374 -845.305 957.761 C-847.393 962.628 -849.913 967.254 -852.426 971.91 C-854.821 976.35 -857.119 980.825 -859.324 985.362 C-860.106 986.881 -860.952 988.368 -861.84 989.827 C-863.763 993.073 -865.403 996.435 -867.055 999.823 C-869.819 1005.434 -872.743 1010.906 -875.867 1016.323 C-879.208 1022.141 -882.211 1028.06 -885.055 1034.136 C-885.428 1034.933 -885.802 1035.73 -886.187 1036.551 C-887.602 1039.582 -889.014 1042.615 -890.423 1045.65 C-891.33 1047.589 -892.252 1049.519 -893.18 1051.448 C-893.435 1051.989 -893.435 1051.989 -894.727 1054.726 C-897.219 1058.8 -899.91 1061.004 -904.43 1062.511 C-911.224 1062.787 -917.697 1062.896 -923.117 1058.386 C-928.273 1052.887 -929.704 1048.715 -929.617 1041.261 C-927.99 1024.9 -918.142 1009.691 -910.43 995.511 C-909.205 993.25 -907.984 990.988 -906.77 988.722 C-906.039 987.359 -905.303 985.999 -904.561 984.643 C-902.492 980.791 -900.745 976.899 -899.11 972.843 C-896.314 966.019 -892.9 959.602 -889.367 953.136 C-888.756 952 -888.144 950.864 -887.514 949.694 C-884.681 944.47 -881.821 939.39 -878.43 934.511 C-875.93 930.543 -873.859 926.408 -871.805 922.198 C-867.969 914.435 -863.82 906.883 -859.503 899.378 C-858.465 897.571 -857.437 895.758 -856.41 893.944 C-855.798 892.873 -855.186 891.802 -854.555 890.698 C-854.021 889.764 -853.488 888.829 -852.938 887.866 C-851.58 885.745 -850.206 884.263 -848.43 882.511 C-847.518 880.653 -846.608 878.794 -845.711 876.929 C-843.64 873.02 -841.112 869.431 -838.633 865.772 C-836.381 862.438 -834.172 859.08 -831.992 855.698 C-831.622 855.124 -831.252 854.55 -830.87 853.958 C-827.598 848.847 -824.483 843.645 -821.436 838.396 C-819.665 835.386 -817.906 832.947 -815.43 830.511 C-814.186 828.554 -812.982 826.571 -811.805 824.573 C-808.385 818.87 -804.587 813.583 -800.535 808.304 C-798.11 805.087 -795.895 801.769 -793.699 798.394 C-792.43 796.511 -792.43 796.511 -790.305 793.948 C-788.43 791.511 -788.43 791.511 -786.805 788.011 C-783.705 781.542 -778.886 776.084 -774.43 770.511 C-773.721 769.617 -773.012 768.724 -772.281 767.804 C-770.339 765.366 -768.386 762.937 -766.43 760.511 C-754.215 745.307 -754.215 745.307 -748.676 737.776 C-742.634 729.582 -736.405 721.938 -729.43 714.511 C-728.256 713.184 -727.089 711.851 -725.93 710.511 C-722.3 706.333 -718.565 702.255 -714.836 698.167 C-712.843 695.967 -710.877 693.751 -708.93 691.511 C-703.696 685.495 -698.417 679.489 -692.77 673.858 C-690.43 671.511 -690.43 671.511 -688.117 668.636 C-685.646 665.616 -682.832 663.214 -679.864 660.694 C-676.775 657.923 -673.896 654.973 -670.992 652.011 C-666.697 647.64 -662.354 643.75 -657.403 640.12 C-655.292 638.398 -653.705 636.562 -651.992 634.448 C-648.761 630.55 -645.215 628.447 -640.832 625.995 C-637.855 624.156 -635.717 621.97 -633.336 619.433 C-627.606 613.656 -620.896 608.771 -614.356 603.948 C-612.369 602.465 -610.433 600.929 -608.492 599.386 C-602.014 594.328 -595.244 589.671 -588.508 584.967 C-586.643 583.66 -584.787 582.342 -582.934 581.019 C-576.329 576.346 -569.612 572.213 -562.524 568.335 C-559.43 566.511 -559.43 566.511 -556.953 564.526 C-554.002 562.169 -550.857 560.377 -547.555 558.573 C-546.131 557.786 -544.708 556.998 -543.285 556.21 C-542.899 555.996 -542.899 555.996 -540.943 554.915 C-538.214 553.39 -535.503 551.838 -532.793 550.28 C-522.187 544.194 -511.639 538.406 -500.43 533.511 C-497.997 532.437 -495.565 531.361 -493.134 530.283 C-491.534 529.576 -489.933 528.873 -488.329 528.174 C-487.604 527.856 -486.88 527.538 -486.133 527.21 C-485.49 526.93 -484.847 526.65 -484.185 526.361 C-482.43 525.511 -482.43 525.511 -479.43 523.511 C-476.973 522.715 -474.495 522.057 -472 521.39 C-469.43 520.511 -469.43 520.511 -466.973 519.03 C-464.216 517.383 -461.698 516.529 -458.617 515.636 C-457.48 515.299 -456.344 514.963 -455.172 514.616 C-453.937 514.251 -452.702 513.887 -451.43 513.511 C-448.698 512.667 -445.97 511.808 -443.242 510.948 C-427.386 505.968 -411.43 501.112 -395.27 497.214 C-392.035 496.413 -388.83 495.522 -385.617 494.636 C-376.181 492.102 -366.634 490.104 -357.078 488.079 C-354.744 487.578 -352.416 487.059 -350.09 486.526 C-348.882 486.253 -347.674 485.98 -346.43 485.698 C-345.419 485.465 -344.409 485.232 -343.367 484.991 C-338.862 484.254 -334.838 484.031 -330.492 485.511 C-324.347 487.517 -319.315 486.542 -313.18 485.073 C-304.019 482.958 -294.799 482.784 -285.43 482.511 C-285.085 475.297 -285.591 469.112 -287.524 462.167 C-288.669 457.545 -289.414 452.896 -290.18 448.198 C-291.623 439.436 -293.477 430.816 -295.524 422.178 C-298.519 409.521 -300.526 397.014 -301.817 384.058 C-302.265 379.66 -302.968 375.496 -303.992 371.198 C-305.468 364.948 -306.066 358.777 -306.586 352.39 C-307.028 347.172 -307.626 342.024 -308.442 336.851 C-310.897 320.942 -311.797 305.481 -311.742 289.386 C-311.741 288.919 -311.741 288.919 -311.734 286.557 C-311.687 276.404 -311.438 266.263 -310.996 256.12 C-310.961 255.267 -310.927 254.414 -310.891 253.534 C-310.588 247.286 -309.633 241.438 -308.25 235.331 C-307.284 230.829 -306.604 226.314 -305.93 221.761 C-305.008 215.659 -303.878 209.771 -302.11 203.847 C-301.45 201.578 -300.956 199.326 -300.492 197.011 C-299.554 192.644 -298.072 188.568 -296.496 184.394 C-295.417 181.475 -294.448 178.535 -293.492 175.573 C-288.245 159.789 -280.65 145.096 -272.301 130.757 C-270.59 127.788 -268.969 124.789 -267.367 121.761 C-263.436 114.497 -258.644 107.903 -253.43 101.511 C-252.449 100.179 -251.47 98.845 -250.492 97.511 C-248.035 94.22 -245.415 91.343 -242.43 88.511 C-239.948 86.09 -237.617 83.752 -235.492 81.011 C-233.082 78.089 -230.366 75.896 -227.43 73.511 C-226.816 72.889 -226.203 72.268 -225.571 71.628 C-223.225 69.308 -220.751 67.266 -218.18 65.198 C-214.961 62.604 -211.857 59.988 -208.867 57.136 C-203.425 52.292 -196.953 48.817 -190.723 45.097 C-186.897 42.811 -183.184 40.405 -179.547 37.827 C-176.961 36.219 -174.28 34.895 -171.549 33.552 C-169.57 32.58 -167.604 31.585 -165.641 30.581 C-151.075 23.171 -136.414 17.297 -120.861 12.306 C-119.329 11.805 -117.802 11.287 -116.284 10.745 C-109.473 8.331 -102.501 6.89 -95.43 5.448 C-94.15 5.184 -92.87 4.921 -91.552 4.649 C-83.194 2.965 -74.908 1.629 -66.422 0.835 C-63.43 0.511 -63.43 0.511 -60.43 -0.489 C-57.315 -0.82 -54.184 -0.912 -51.055 -1.052 C-50.649 -1.073 -50.649 -1.073 -48.594 -1.183 C-32.32 -1.945 -16.209 -1.618 0 0 Z " transform="translate(1153.429931640625,743.4892578125)"/><path d="M0 0 C7.133 2.105 11.096 6.93 14.812 13.125 C17.362 15.597 20.086 17.852 22.812 20.125 C24.318 21.39 25.818 22.66 27.312 23.938 C27.983 24.501 28.653 25.064 29.344 25.645 C30.812 27.125 30.812 27.125 30.812 29.125 C31.338 29.343 31.864 29.561 32.406 29.785 C35.726 31.634 38.463 34.077 41.312 36.562 C41.862 37.034 42.411 37.505 42.977 37.99 C53.795 47.341 64.019 57.208 74.062 67.375 C80.795 74.189 87.477 80.95 94.812 87.125 C96.148 88.289 97.481 89.456 98.812 90.625 C100.762 92.333 102.712 94.038 104.672 95.734 C114.047 103.87 123.115 112.269 131.812 121.125 C132.505 121.816 133.197 122.507 133.91 123.219 C135.377 124.689 136.819 126.183 138.25 127.688 C140.812 130.125 140.812 130.125 143.312 131.625 C148.829 134.935 152.433 140.086 156.262 145.137 C157.812 147.125 157.812 147.125 159.812 149.125 C160.438 152.312 160.438 152.312 159.812 156.125 C157.55 159.132 155.084 161.268 151.812 163.125 C145.775 163.437 141.798 160.68 137.302 156.833 C135.279 154.98 133.296 153.087 131.312 151.191 C128.898 148.922 126.609 146.99 123.836 145.145 C120.36 142.823 117.46 140.183 114.438 137.312 C113.288 136.236 112.139 135.161 110.988 134.086 C110.44 133.573 109.892 133.059 109.327 132.53 C106.859 130.24 104.317 128.038 101.773 125.832 C93.899 118.978 86.155 112.08 79.375 104.125 C76.43 100.699 73.237 97.829 69.793 94.918 C67.075 92.457 64.777 89.707 62.41 86.914 C60.419 84.684 58.2 82.916 55.812 81.125 C55.338 80.63 54.864 80.135 54.375 79.625 C52.812 78.125 52.812 78.125 50.062 76.375 C46.836 74.141 44.362 71.768 41.648 68.965 C39.855 67.167 37.996 65.52 36.062 63.875 C31.608 60.046 27.528 55.873 23.426 51.676 C20.994 49.302 18.465 47.243 15.812 45.125 C14.123 43.481 12.46 41.811 10.812 40.125 C9.543 38.853 8.272 37.582 7 36.312 C-1.375 27.938 -1.375 27.938 -3.365 25.947 C-4.482 24.831 -5.599 23.715 -6.717 22.6 C-14.102 15.234 -14.102 15.234 -14.375 11.688 C-12.856 8.41 -10.784 6.765 -7.977 4.555 C-6.188 3.125 -6.188 3.125 -4.66 1.453 C-3.188 0.125 -3.188 0.125 0 0 Z " transform="translate(1136.1875,817.875)"/><path d="M0 0 C2.443 2.029 4.143 4.442 6 7 C6.804 7.804 7.609 8.609 8.438 9.438 C10.581 11.581 12.534 13.761 14.5 16.062 C17.123 19.094 19.806 21.562 23 24 C24.667 25.667 26.333 27.333 28 29 C29.159 30.009 30.326 31.009 31.5 32 C34.491 34.526 37.231 37.231 40 40 C40.969 40.763 41.939 41.526 42.938 42.312 C45.274 44.213 46.909 46.154 48.625 48.625 C52.155 53.56 56.585 57.38 61.098 61.387 C63.827 63.844 66.406 66.402 69 69 C70.446 70.318 71.892 71.636 73.349 72.943 C77.199 76.399 81.001 79.821 84.312 83.812 C88.254 88.517 92.799 92.559 97.304 96.71 C101.919 100.968 106.371 105.336 110.773 109.812 C113.555 112.545 116.488 115.057 119.504 117.527 C121 119 121 119 122 122 C123.308 122.716 124.645 123.378 126 124 C130.335 127.307 134.151 131.151 138 135 C140.225 136.997 142.467 138.971 144.719 140.938 C149.21 144.999 153.315 149.389 157.375 153.875 C161.016 157.879 164.725 161.772 168.594 165.559 C170 167 170 167 171.938 169.5 C178.434 177.375 187.461 183.896 195.812 189.688 C199.445 192.323 202.414 195.345 205.512 198.578 C209.721 202.621 213.039 203.641 218.754 204.52 C221 205 221 205 223.625 206.812 C225.355 209.564 225.623 210.805 225 214 C223.726 215.713 222.386 217.377 221 219 C220.58 219.971 220.16 220.941 219.727 221.941 C217.654 225.614 215.937 226.651 212.188 228.5 C211.17 229.026 210.153 229.552 209.105 230.094 C205.236 231.223 203.606 230.704 200 229 C194.904 225.475 190.837 220.797 186.844 216.105 C182.277 210.891 177.324 206.06 172 201.625 C167.947 198.154 164.811 194.148 161.5 189.98 C157.021 184.641 151.986 179.86 147 175 C146.129 174.121 145.257 173.242 144.359 172.336 C142.46 170.456 140.553 168.705 138.5 167 C134.747 163.816 131.181 160.603 128.25 156.625 C125.541 153.464 122.477 151.192 119.168 148.688 C116.548 146.648 114.286 144.406 112 142 C108.775 138.69 105.59 135.48 102 132.562 C99.655 130.559 97.891 128.77 95.938 126.438 C92.203 122.034 88.01 118.223 83.707 114.388 C80.108 111.15 77.038 107.77 74 104 C70.927 100.752 67.649 97.784 64.312 94.812 C59.823 90.803 55.58 86.601 51.352 82.32 C49.374 80.369 47.368 78.544 45.25 76.75 C40.605 72.787 36.368 68.42 32.099 64.062 C29.402 61.326 26.706 58.694 23.73 56.262 C20.728 53.775 18.485 50.995 16 48 C15.216 47.381 14.432 46.763 13.625 46.125 C10.735 43.785 8.5 41.229 6.086 38.414 C-5.291 25.247 -5.291 25.247 -11.062 20.5 C-14.494 17.58 -15.735 15.663 -16.438 11.25 C-15.834 6.764 -13.781 3.531 -11 0 C-7.439 -1.781 -3.728 -1.134 0 0 Z " transform="translate(1013,871)"/><path d="M0 0 C9.912 -0.629 19.868 3.963 27.336 10.262 C34.289 17.499 38.323 25.624 38.59 35.66 C38.402 44.215 37.077 51.174 32.34 58.348 C32.027 58.921 31.713 59.495 31.391 60.086 C27.125 67.238 19.307 70.718 11.84 73.785 C6.622 74.624 1.61 74.627 -3.66 74.348 C-4.742 74.291 -5.823 74.234 -6.938 74.176 C-16.497 73.221 -23.422 69.487 -29.57 62.031 C-31.069 59.855 -32.394 57.665 -33.66 55.348 C-34.258 54.316 -34.856 53.285 -35.473 52.223 C-36.884 48.805 -37.362 46.046 -37.66 42.348 C-37.698 41.904 -37.698 41.904 -37.891 39.656 C-38.388 29.338 -35.007 20.152 -28.43 12.16 C-20.159 3.688 -11.476 1.5 0 0 Z " transform="translate(1616.66015625,912.65234375)"/><path d="M0 0 C2.197 1.539 4.022 3.164 6 5 C6.324 5.221 6.324 5.221 7.961 6.34 C13.417 10.782 15.896 17.681 16.629 24.523 C17.273 35.426 15.532 44.09 9 53 C0.949 61.367 -8.646 65.041 -20.062 65.438 C-30.986 65.523 -39.362 60.519 -47.156 53.148 C-54.244 44.889 -54.657 34.402 -54 24 C-53.44 20.715 -52.466 17.986 -51 15 C-50.803 14.589 -50.803 14.589 -49.805 12.508 C-40.088 -4.229 -16.319 -8.771 0 0 Z " transform="translate(465,989)"/><path d="M0 0 C3.755 1.858 6.789 4.329 10 7 C10.967 7.722 11.934 8.444 12.93 9.188 C18.631 13.543 22.693 17.144 25 24 C25.294 24.782 25.588 25.565 25.891 26.371 C29.224 36.083 28.878 43.772 24.625 53.16 C20.834 59.786 15.057 65.203 7.812 67.777 C3.831 68.093 1.094 66.461 -2.312 64.625 C-3.005 64.263 -3.698 63.901 -4.412 63.528 C-6.616 62.367 -8.808 61.184 -11 60 C-12.453 59.236 -13.906 58.471 -15.359 57.707 C-26.357 51.832 -34.627 46.267 -39 34 C-40.317 27.787 -38.203 22.266 -35 17 C-31.018 11.824 -26.051 8.524 -20.402 5.355 C-18 4 -18 4 -16.191 2.738 C-11.083 -0.753 -5.936 -1.199 0 0 Z " transform="translate(1623,1097)"/><path d="M0 0 C8.546 8.69 12.324 16.71 12.293 29.023 C12.184 40.358 9.09 48.991 1.543 57.586 C-6.795 64.662 -13.722 68.086 -24.457 69.586 C-25.192 69.697 -25.927 69.808 -26.684 69.922 C-36.187 70.669 -45.592 65.317 -52.957 59.773 C-59.491 54.132 -64.576 47.394 -65.457 38.586 C-66.522 17.936 -66.522 17.936 -61.52 10.836 C-60.839 10.093 -60.158 9.351 -59.457 8.586 C-59.251 8.116 -59.251 8.116 -58.211 5.738 C-54.483 -0.961 -45.742 -5.908 -38.582 -8.414 C-37.215 -8.778 -35.84 -9.114 -34.457 -9.414 C-33.364 -9.682 -32.271 -9.95 -31.145 -10.227 C-19.577 -10.815 -8.77 -7.532 0 0 Z " transform="translate(476.45703125,1152.4140625)"/><path d="M0 0 C4.074 3.609 7.59 6.76 9.062 12.125 C9.104 13.383 9.145 14.641 9.188 15.938 C9.236 16.882 9.285 17.827 9.336 18.801 C9.53 24.804 9.686 29.84 6.188 34.938 C1.903 38.515 -3.021 42.244 -8.75 42.75 C-15.538 42.063 -23.346 38.091 -27.875 33 C-32.705 25.366 -34.097 19.05 -32.812 9.938 C-30.625 6.875 -30.625 6.875 -27.812 4.938 C-27.07 4.216 -26.328 3.494 -25.562 2.75 C-18.664 -1.797 -7.717 -2.915 0 0 Z " transform="translate(1609.8125,1169.0625)"/><path d="M0 0 C4.147 1.705 7.014 4.82 10.195 7.902 C12.149 9.721 14.106 11.533 16.07 13.34 C16.581 13.812 17.091 14.284 17.616 14.77 C20.855 17.744 24.178 20.553 27.633 23.277 C32.94 27.464 36.76 31.064 39.969 37.078 C41.923 39.985 44.559 41.991 47.242 44.207 C49.011 45.742 50.431 47.262 51.883 49.09 C54.195 51.902 54.195 51.902 56.57 53.777 C58.856 55.628 60.503 57.358 62.383 59.59 C67.22 65.247 72.829 70.021 78.473 74.852 C82.135 77.996 85.254 81.048 88.195 84.902 C89.839 86.592 91.51 88.255 93.195 89.902 C94.53 91.234 95.863 92.568 97.195 93.902 C97.835 94.542 98.474 95.181 99.133 95.84 C104.768 101.475 110.404 107.111 116.039 112.746 C116.306 113.012 116.306 113.012 117.655 114.359 C119.089 115.796 120.515 117.239 121.941 118.684 C124.195 120.902 124.195 120.902 126.758 122.902 C129.195 124.902 129.195 124.902 131.008 127.215 C133.374 130.122 135.934 132.378 138.777 134.805 C142.22 137.792 145.556 140.892 148.895 143.995 C151.127 146.057 153.363 148.032 155.77 149.891 C158.511 152.164 160.598 154.622 162.82 157.402 C163.576 158.341 164.331 159.279 165.109 160.246 C165.798 161.123 166.486 161.999 167.195 162.902 C167.793 163.611 168.392 164.32 169.008 165.051 C170.195 166.902 170.195 166.902 169.57 170.027 C168.195 172.902 168.195 172.902 165.195 174.902 C159.1 175.537 152.798 174.392 147.195 171.902 C146.518 170.574 145.852 169.241 145.195 167.902 C143.543 167.201 141.874 166.537 140.195 165.902 C137.957 164.027 137.957 164.027 135.883 161.902 C135.185 161.201 134.488 160.5 133.77 159.777 C132.195 157.902 132.195 157.902 132.195 155.902 C131.638 155.675 131.082 155.449 130.508 155.215 C127.537 153.529 125.55 151.372 123.195 148.902 C122.793 148.51 122.793 148.51 120.758 146.527 C118.313 144.022 116.055 141.437 113.82 138.746 C111.714 136.357 109.459 134.142 107.195 131.902 C106.405 131.101 105.615 130.299 104.801 129.473 C100.404 125.026 95.958 120.748 91.199 116.691 C88.885 114.626 86.736 112.435 84.57 110.215 C81.329 106.923 78.102 104.389 74.195 101.902 C70.269 98.286 66.788 94.258 63.266 90.254 C61.896 88.698 60.516 87.151 59.125 85.613 C58.488 84.904 57.851 84.195 57.195 83.465 C56.618 82.827 56.04 82.189 55.445 81.531 C54.195 79.902 54.195 79.902 54.195 77.902 C53.453 77.675 52.71 77.449 51.945 77.215 C48.618 75.627 47.383 73.842 45.195 70.902 C40.223 65.645 34.73 60.866 29.188 56.219 C25.162 52.821 21.63 49.223 18.133 45.277 C14.909 41.654 11.905 38.76 7.848 36.145 C5.081 34.065 3.021 31.38 0.812 28.734 C-0.805 26.902 -0.805 26.902 -3.305 25.027 C-7.746 21.252 -11.854 16.354 -13.426 10.648 C-13.67 6.743 -12.875 4.989 -10.43 1.965 C-6.489 -1.132 -4.911 -1.347 0 0 Z " transform="translate(645.8046875,1407.09765625)"/></g></svg>