<svg xmlns="http://www.w3.org/2000/svg" viewBox="0 0 760 260" width="760" height="260"><defs><linearGradient id="g" x1="0" y1="0" x2="0" y2="1">
  <stop offset="0" stop-color="#6CF3D2"/><stop offset="1" stop-color="#5A96EB"/></linearGradient></defs><rect width="760" height="260" fill="#010D25"/><g transform="translate(40,0)"><path d="M 220.2 162.8 A 96 96 0 1 1 213.1 82.0" fill="none" stroke="url(#g)" stroke-width="4" stroke-linecap="round"/><path d="M 130.0 55.0 L 135.0 57.5 L 139.8 60.0 L 144.0 62.5 L 147.5 65.0 L 150.1 67.5 L 151.6 70.0 L 152.0 72.5 L 151.2 75.0 L 149.3 77.5 L 146.3 80.0 L 142.6 82.5 L 138.1 85.0 L 133.2 87.5 L 128.2 90.0 L 123.2 92.5 L 118.6 95.0 L 114.6 97.5 L 111.4 100.0 L 109.2 102.5 L 108.1 105.0 L 108.2 107.5 L 109.4 110.0 L 111.7 112.5 L 114.9 115.0 L 119.0 117.5 L 123.6 120.0 L 128.6 122.5 L 133.7 125.0 L 138.5 127.5 L 142.9 130.0 L 146.7 132.5 L 149.5 135.0 L 151.3 137.5 L 152.0 140.0 L 151.5 142.5 L 149.9 145.0 L 147.2 147.5 L 143.7 150.0 L 139.4 152.5 L 134.6 155.0 L 129.5 157.5 L 124.5 160.0 L 119.8 162.5 L 115.6 165.0 L 112.2 167.5 L 109.7 170.0 L 108.3 172.5 L 108.0 175.0 L 108.9 177.5 L 110.9 180.0 L 114.0 182.5 L 117.8 185.0 L 122.3 187.5 L 127.2 190.0 L 132.3 192.5 L 137.2 195.0 L 141.8 197.5 L 145.7 200.0 L 148.8 202.5 L 150.9 205.0 " fill="none" stroke="url(#g)" stroke-width="3.6" stroke-linecap="round"/><path d="M 130.0 55.0 L 125.0 57.5 L 120.2 60.0 L 116.0 62.5 L 112.5 65.0 L 109.9 67.5 L 108.4 70.0 L 108.0 72.5 L 108.8 75.0 L 110.7 77.5 L 113.7 80.0 L 117.4 82.5 L 121.9 85.0 L 126.8 87.5 L 131.8 90.0 L 136.8 92.5 L 141.4 95.0 L 145.4 97.5 L 148.6 100.0 L 150.8 102.5 L 151.9 105.0 L 151.8 107.5 L 150.6 110.0 L 148.3 112.5 L 145.1 115.0 L 141.0 117.5 L 136.4 120.0 L 131.4 122.5 L 126.3 125.0 L 121.5 127.5 L 117.1 130.0 L 113.3 132.5 L 110.5 135.0 L 108.7 137.5 L 108.0 140.0 L 108.5 142.5 L 110.1 145.0 L 112.8 147.5 L 116.3 150.0 L 120.6 152.5 L 125.4 155.0 L 130.5 157.5 L 135.5 160.0 L 140.2 162.5 L 144.4 165.0 L 147.8 167.5 L 150.3 170.0 L 151.7 172.5 L 152.0 175.0 L 151.1 177.5 L 149.1 180.0 L 146.0 182.5 L 142.2 185.0 L 137.7 187.5 L 132.8 190.0 L 127.7 192.5 L 122.8 195.0 L 118.2 197.5 L 114.3 200.0 L 111.2 202.5 L 109.1 205.0 " fill="none" stroke="url(#g)" stroke-width="3.6" stroke-linecap="round"/><line x1="139.8" y1="60.0" x2="120.2" y2="60.0" stroke="url(#g)" stroke-width="3.2" stroke-linecap="round"/><line x1="152.0" y1="72.5" x2="108.0" y2="72.5" stroke="url(#g)" stroke-width="3.2" stroke-linecap="round"/><line x1="138.1" y1="85.0" x2="121.9" y2="85.0" stroke="url(#g)" stroke-width="3.2" stroke-linecap="round"/><line x1="114.6" y1="97.5" x2="145.4" y2="97.5" stroke="url(#g)" stroke-width="3.2" stroke-linecap="round"/><line x1="109.4" y1="110.0" x2="150.6" y2="110.0" stroke="url(#g)" stroke-width="3.2" stroke-linecap="round"/><line x1="128.6" y1="122.5" x2="131.4" y2="122.5" stroke="url(#g)" stroke-width="3.2" stroke-linecap="round"/><line x1="149.5" y1="135.0" x2="110.5" y2="135.0" stroke="url(#g)" stroke-width="3.2" stroke-linecap="round"/><line x1="147.2" y1="147.5" x2="112.8" y2="147.5" stroke="url(#g)" stroke-width="3.2" stroke-linecap="round"/><line x1="124.5" y1="160.0" x2="135.5" y2="160.0" stroke="url(#g)" stroke-width="3.2" stroke-linecap="round"/><line x1="108.3" y1="172.5" x2="151.7" y2="172.5" stroke="url(#g)" stroke-width="3.2" stroke-linecap="round"/><line x1="117.8" y1="185.0" x2="142.2" y2="185.0" stroke="url(#g)" stroke-width="3.2" stroke-linecap="round"/><line x1="141.8" y1="197.5" x2="118.2" y2="197.5" stroke="url(#g)" stroke-width="3.2" stroke-linecap="round"/><path d="M 197.9 62.1 Q 160.0 100.0 148.0 124.0" fill="none" stroke="url(#g)" stroke-width="3.5" stroke-linecap="round"/><circle cx="197.9" cy="62.1" r="13" fill="#6CF3D2"/><circle cx="72" cy="124" r="3.4" fill="url(#g)"/><circle cx="72" cy="144" r="3.4" fill="url(#g)"/><circle cx="188" cy="104" r="3.4" fill="url(#g)"/><circle cx="188" cy="124" r="3.4" fill="url(#g)"/><circle cx="188" cy="144" r="2.6" fill="url(#g)"/></g><line x1="300" y1="70" x2="300" y2="190" stroke="#F5F7FA" stroke-opacity="0.55" stroke-width="3"/><text x="340" y="172" font-family="'EB Garamond',serif" font-size="135" font-weight="500" fill="#F5F7FA">LLA</text></svg>