<svg xmlns="http://www.w3.org/2000/svg" width="512.00" height="512.00" viewBox="0 0 512.00 512.00"><defs><linearGradient id="embGrad" x1="0.85" y1="0.0" x2="0.1" y2="1.0"><stop offset="0" stop-color="#6CF3D2"/><stop offset="1" stop-color="#5A96EB"/></linearGradient></defs><rect x="0" y="0" width="512.00" height="512.00" rx="92.16" fill="#010D25"/><g fill="#FFFFFF" transform="translate(3.464 342.718) scale(0.25632 -0.25632)"><path d="M46.2001953125 -5Q35.400146484375 -5 29.275115966796875 -0.675018310546875Q23.15008544921875 3.64996337890625 23.15008544921875 9.199951171875Q23.15008544921875 16.54998779296875 30.175140380859375 21.424957275390625Q37.2001953125 26.2999267578125 44.05010986328125 28.39990234375Q79.75018310546875 37.4998779296875 96.62527465820312 50.524932861328125Q113.5003662109375 63.54998779296875 113.5003662109375 95.45001220703125V555.0501098632812Q113.5003662109375 577.9501342773438 108.22537231445312 589.7251281738281Q102.95037841796875 601.5001220703125 89.400390625 608.10009765625Q75.85040283203125 614.7000732421875 49.75042724609375 619.800048828125Q24.45025634765625 625.2500610351562 24.45025634765625 640.9000244140625Q24.45025634765625 647.4500122070312 31.35028076171875 650.7749938964844Q38.25030517578125 654.0999755859375 47.400390625 654.0999755859375Q71.65045166015625 654.0999755859375 94.2003173828125 653.0999755859375Q116.75018310546875 652.0999755859375 138.07504272460938 651.0499877929688Q159.39990234375 650 180.2999267578125 650Q202.54998779296875 650 226.04986572265625 650.7749938964844Q249.54974365234375 651.5499877929688 274.04962158203125 652.5499877929688Q298.54949951171875 653.5499877929688 322.24957275390625 653.5499877929688Q332.4996337890625 653.5499877929688 338.2996826171875 650.5Q344.0997314453125 647.4500122070312 344.0997314453125 640.3500366210938Q344.0997314453125 631.7000732421875 337.74969482421875 627.2500610351562Q331.399658203125 622.800048828125 318.799560546875 619.800048828125Q279.599609375 610.0501098632812 261.2994384765625 598.6251525878906Q242.999267578125 587.2001953125 242.999267578125 557.6502075195312V100.94989013671875Q242.999267578125 71.599853515625 255.8992919921875 58.524810791015625Q268.79931640625 45.44976806640625 304.599609375 45.44976806640625H413.74993896484375Q437.45001220703125 45.44976806640625 456.0250549316406 53.3997802734375Q474.60009765625 61.34979248046875 486.800048828125 72.54974365234375Q505.15008544921875 88.999755859375 516.8500366210938 106.899658203125Q528.5499877929688 124.799560546875 539.9000244140625 149.04962158203125Q546.8499145507812 164.3994140625 552.7999267578125 172.27450561523438Q558.7499389648438 180.14959716796875 565.199951171875 180.14959716796875Q572.2999267578125 180.14959716796875 575.2999267578125 173.599609375Q578.2999267578125 167.04962158203125 578.2999267578125 160.4996337890625Q578.2999267578125 158.94964599609375 576.9749450683594 153.87472534179688Q575.6499633789062 148.7998046875 575.6499633789062 145.599853515625Q568.0999755859375 117.39990234375 562.3249816894531 96.12490844726562Q556.5499877929688 74.84991455078125 553.0499877929688 55.574920654296875Q549.5499877929688 36.2999267578125 547 13.0999755859375Q546 6.0999755859375 542.9500122070312 0.54998779296875Q539.9000244140625 -5 531.3500366210938 -5Q501.14959716796875 -5 459.2745056152344 -4.0Q417.3994140625 -3 370.2245178222656 -2.5Q323.04962158203125 -2 275.5248107910156 -1.0Q228 0 186.15008544921875 0Q163.9000244140625 0 135.42495727539062 -1.0Q106.94989013671875 -2 82.07492065429688 -3.5Q57.199951171875 -5 46.2001953125 -5Z" transform="translate(0.000 0)"/><path d="M46.2001953125 -5Q35.400146484375 -5 29.275115966796875 -0.675018310546875Q23.15008544921875 3.64996337890625 23.15008544921875 9.199951171875Q23.15008544921875 16.54998779296875 30.175140380859375 21.424957275390625Q37.2001953125 26.2999267578125 44.05010986328125 28.39990234375Q79.75018310546875 37.4998779296875 96.62527465820312 50.524932861328125Q113.5003662109375 63.54998779296875 113.5003662109375 95.45001220703125V555.0501098632812Q113.5003662109375 577.9501342773438 108.22537231445312 589.7251281738281Q102.95037841796875 601.5001220703125 89.400390625 608.10009765625Q75.85040283203125 614.7000732421875 49.75042724609375 619.800048828125Q24.45025634765625 625.2500610351562 24.45025634765625 640.9000244140625Q24.45025634765625 647.4500122070312 31.35028076171875 650.7749938964844Q38.25030517578125 654.0999755859375 47.400390625 654.0999755859375Q71.65045166015625 654.0999755859375 94.2003173828125 653.0999755859375Q116.75018310546875 652.0999755859375 138.07504272460938 651.0499877929688Q159.39990234375 650 180.2999267578125 650Q202.54998779296875 650 226.04986572265625 650.7749938964844Q249.54974365234375 651.5499877929688 274.04962158203125 652.5499877929688Q298.54949951171875 653.5499877929688 322.24957275390625 653.5499877929688Q332.4996337890625 653.5499877929688 338.2996826171875 650.5Q344.0997314453125 647.4500122070312 344.0997314453125 640.3500366210938Q344.0997314453125 631.7000732421875 337.74969482421875 627.2500610351562Q331.399658203125 622.800048828125 318.799560546875 619.800048828125Q279.599609375 610.0501098632812 261.2994384765625 598.6251525878906Q242.999267578125 587.2001953125 242.999267578125 557.6502075195312V100.94989013671875Q242.999267578125 71.599853515625 255.8992919921875 58.524810791015625Q268.79931640625 45.44976806640625 304.599609375 45.44976806640625H413.74993896484375Q437.45001220703125 45.44976806640625 456.0250549316406 53.3997802734375Q474.60009765625 61.34979248046875 486.800048828125 72.54974365234375Q505.15008544921875 88.999755859375 516.8500366210938 106.899658203125Q528.5499877929688 124.799560546875 539.9000244140625 149.04962158203125Q546.8499145507812 164.3994140625 552.7999267578125 172.27450561523438Q558.7499389648438 180.14959716796875 565.199951171875 180.14959716796875Q572.2999267578125 180.14959716796875 575.2999267578125 173.599609375Q578.2999267578125 167.04962158203125 578.2999267578125 160.4996337890625Q578.2999267578125 158.94964599609375 576.9749450683594 153.87472534179688Q575.6499633789062 148.7998046875 575.6499633789062 145.599853515625Q568.0999755859375 117.39990234375 562.3249816894531 96.12490844726562Q556.5499877929688 74.84991455078125 553.0499877929688 55.574920654296875Q549.5499877929688 36.2999267578125 547 13.0999755859375Q546 6.0999755859375 542.9500122070312 0.54998779296875Q539.9000244140625 -5 531.3500366210938 -5Q501.14959716796875 -5 459.2745056152344 -4.0Q417.3994140625 -3 370.2245178222656 -2.5Q323.04962158203125 -2 275.5248107910156 -1.0Q228 0 186.15008544921875 0Q163.9000244140625 0 135.42495727539062 -1.0Q106.94989013671875 -2 82.07492065429688 -3.5Q57.199951171875 -5 46.2001953125 -5Z" transform="translate(615.000 0)"/><path d="M23.7000732421875 -5Q11.800048828125 -5 4.075042724609375 -1.5Q-3.64996337890625 2 -3.64996337890625 10.199951171875Q-3.64996337890625 18.84991455078125 3.75006103515625 23.7999267578125Q11.15008544921875 28.74993896484375 23.3001708984375 32.64996337890625Q51.5001220703125 40.64996337890625 73.22512817382812 57.199951171875Q94.95013427734375 73.74993896484375 107.65020751953125 102.5001220703125Q133.45025634765625 161.55023193359375 156.12527465820312 216.45025634765625Q178.80029296875 271.35028076171875 199.80029296875 325.0752868652344Q220.80029296875 378.80029296875 242.2003173828125 435.100341796875Q263.600341796875 491.400390625 285.85040283203125 552.7005615234375Q297.45025634765625 584.3001708984375 301.45025634765625 601.3251037597656Q305.45025634765625 618.3500366210938 307.55023193359375 626.1002197265625Q322.60009765625 630.2001953125 336.0 634.0251770019531Q349.39990234375 637.8501586914062 364.999755859375 644.400146484375Q379.4996337890625 650.9501342773438 389.04949951171875 662.1251525878906Q398.599365234375 673.3001708984375 403.79931640625 678.9501342773438Q406.999267578125 681.0501098632812 410.14923095703125 681.60009765625Q413.2991943359375 682.1500854492188 415.94915771484375 676.8501586914062Q419.04913330078125 671.2001953125 421.09912109375 664.9252014160156Q423.14910888671875 658.6502075195312 425.14910888671875 651.5502319335938Q446.94915771484375 581.0501098632812 470.4742126464844 508.64996337890625Q493.999267578125 436.24981689453125 517.1242980957031 365.499755859375Q540.2493286132812 294.74969482421875 561.8493041992188 230.47482299804688Q583.4492797851562 166.199951171875 600.9491577148438 111.5003662109375Q609.999267578125 84.7000732421875 623.5243225097656 68.82498168945312Q637.0493774414062 52.94989013671875 653.7243957519531 44.674896240234375Q670.3994140625 36.39990234375 690.3994140625 31.2999267578125Q702.99951171875 28.2999267578125 710.1745300292969 23.174896240234375Q717.3495483398438 18.04986572265625 717.3495483398438 9.39990234375Q717.3495483398438 2.84991455078125 710.7245178222656 -0.25006103515625Q704.0994873046875 -3.35003662109375 693.8494262695312 -3.35003662109375Q675.99951171875 -3.35003662109375 648.4245910644531 -2.125030517578125Q620.8496704101562 -0.9000244140625 591.9247131347656 0.324981689453125Q562.999755859375 1.54998779296875 539.999755859375 1.54998779296875Q520.4497680664062 1.54998779296875 495.4998779296875 1.0Q470.54998779296875 0.45001220703125 446.400146484375 -0.5999755859375Q422.25030517578125 -1.64996337890625 404.75042724609375 -1.64996337890625Q394.5003662109375 -1.64996337890625 387.3253479003906 1.9000244140625Q380.15032958984375 5.45001220703125 380.15032958984375 12Q380.15032958984375 20.0999755859375 388.2253723144531 25.374969482421875Q396.3004150390625 30.64996337890625 407.1004638671875 32.64996337890625Q442.85040283203125 39.2999267578125 459.05035400390625 51.84991455078125Q475.25030517578125 64.39990234375 470.85040283203125 87.54974365234375Q468.1004638671875 105.2996826171875 462.15045166015625 128.57479858398438Q456.200439453125 151.84991455078125 449.400390625 177.2000732421875Q442.600341796875 202.55023193359375 436.25030517578125 224.25030517578125Q434.25030517578125 232.25030517578125 430.1252746582031 235.4002685546875Q426.000244140625 238.55023193359375 415.3001708984375 238.55023193359375H234.54998779296875Q228.35003662109375 238.55023193359375 224.4000244140625 234.500244140625Q220.45001220703125 230.45025634765625 217.54998779296875 221.1002197265625Q214 208.35028076171875 208.37496948242188 191.8001708984375Q202.74993896484375 175.25006103515625 197.39990234375 157.84991455078125Q192.04986572265625 140.44976806640625 187.599853515625 125.02468872070312Q183.14984130859375 109.599609375 180.94989013671875 99.0997314453125Q176 71.599853515625 190.25006103515625 56.274871826171875Q204.5001220703125 40.94989013671875 241.14984130859375 32.199951171875Q268.0999755859375 25.39990234375 268.0999755859375 11.0999755859375Q268.0999755859375 4.54998779296875 261.74993896484375 1.5Q255.39990234375 -1.54998779296875 243.4998779296875 -1.54998779296875Q219.5001220703125 -1.54998779296875 194.5001220703125 -0.274993896484375Q169.5001220703125 1 140.400146484375 1Q109.60009765625 1 81.07504272460938 -2.0Q52.54998779296875 -5 23.7000732421875 -5ZM262.0999755859375 285.2999267578125H400.600341796875Q415.15032958984375 285.2999267578125 415.15032958984375 291.39990234375Q415.15032958984375 294.4998779296875 414.65032958984375 296.44989013671875Q414.15032958984375 298.39990234375 413.15032958984375 301.94989013671875L342.85015869140625 533.3001708984375Q338.5001220703125 546.9002685546875 335.5001220703125 546.9002685546875Q333.5001220703125 546.9002685546875 328.60009765625 533.7501831054688L245.2999267578125 301.94989013671875Q243.2999267578125 297.04986572265625 243.2999267578125 293.94989013671875Q243.2999267578125 288.94989013671875 248.7999267578125 287.1249084472656Q254.2999267578125 285.2999267578125 262.0999755859375 285.2999267578125Z" transform="translate(1230.000 0)"/></g></svg>