<svg xmlns="http://www.w3.org/2000/svg" width="512.00" height="512.00" viewBox="0 0 512.00 512.00"><defs><linearGradient id="embGrad" x1="0.85" y1="0.0" x2="0.1" y2="1.0"><stop offset="0" stop-color="#6CF3D2"/><stop offset="1" stop-color="#5A96EB"/></linearGradient></defs><rect x="0" y="0" width="512.00" height="512.00" rx="92.16" fill="#010D25"/><g fill="url(#embGrad)" transform="translate(24.894 340.000) scale(0.23662 -0.23662)"><path d="M348.597900390625 708V688Q314.597900390625 687 297.097900390625 680.5Q279.597900390625 674 273.597900390625 656.5Q267.597900390625 639 267.597900390625 602V94.00048828125Q267.597900390625 63.4002685546875 272.39794921875 48.10015869140625Q277.197998046875 32.800048828125 290.79815673828125 27.9000244140625Q304.3983154296875 23 330.5986328125 23H379.599609375Q414.0001220703125 23 443.80010986328125 38.999755859375Q473.60009765625 54.99951171875 497.6998291015625 84.59918212890625Q521.799560546875 114.1988525390625 537.999267578125 155.29864501953125Q554.198974609375 196.3984375 561.598876953125 245.99853515625H584.598876953125Q581.598876953125 211.9986572265625 581.598876953125 157.998779296875Q581.598876953125 134.7989501953125 582.7988891601562 90.8992919921875Q583.9989013671875 46.9996337890625 588.598876953125 0Q537.598876953125 2 473.598876953125 2.5Q409.598876953125 3 359.598876953125 3Q334.5989990234375 3 295.899169921875 3.0Q257.1993408203125 3 212.09954833984375 2.5Q166.999755859375 2 120.89996337890625 1.5Q74.8001708984375 1 33.600341796875 0V20Q65.8004150390625 22 81.80047607421875 28.0Q97.800537109375 34 103.2005615234375 52.0Q108.6005859375 70 108.6005859375 106V602Q108.6005859375 639 103.2005615234375 656.5Q97.800537109375 674 81.50048828125 680.5Q65.200439453125 687 33.600341796875 688V708Q59.400146484375 707 101.49981689453125 706.0Q143.5994873046875 705 191.59912109375 705Q235.5987548828125 705 278.19842529296875 706.0Q320.798095703125 707 348.597900390625 708Z" transform="translate(0.000 0)"/><path d="M348.597900390625 708V688Q314.597900390625 687 297.097900390625 680.5Q279.597900390625 674 273.597900390625 656.5Q267.597900390625 639 267.597900390625 602V94.00048828125Q267.597900390625 63.4002685546875 272.39794921875 48.10015869140625Q277.197998046875 32.800048828125 290.79815673828125 27.9000244140625Q304.3983154296875 23 330.5986328125 23H379.599609375Q414.0001220703125 23 443.80010986328125 38.999755859375Q473.60009765625 54.99951171875 497.6998291015625 84.59918212890625Q521.799560546875 114.1988525390625 537.999267578125 155.29864501953125Q554.198974609375 196.3984375 561.598876953125 245.99853515625H584.598876953125Q581.598876953125 211.9986572265625 581.598876953125 157.998779296875Q581.598876953125 134.7989501953125 582.7988891601562 90.8992919921875Q583.9989013671875 46.9996337890625 588.598876953125 0Q537.598876953125 2 473.598876953125 2.5Q409.598876953125 3 359.598876953125 3Q334.5989990234375 3 295.899169921875 3.0Q257.1993408203125 3 212.09954833984375 2.5Q166.999755859375 2 120.89996337890625 1.5Q74.8001708984375 1 33.600341796875 0V20Q65.8004150390625 22 81.80047607421875 28.0Q97.800537109375 34 103.2005615234375 52.0Q108.6005859375 70 108.6005859375 106V602Q108.6005859375 639 103.2005615234375 656.5Q97.800537109375 674 81.50048828125 680.5Q65.200439453125 687 33.600341796875 688V708Q59.400146484375 707 101.49981689453125 706.0Q143.5994873046875 705 191.59912109375 705Q235.5987548828125 705 278.19842529296875 706.0Q320.798095703125 707 348.597900390625 708Z" transform="translate(623.000 0)"/><path d="M367.9981689453125 710.0001220703125 610.7982177734375 84Q625.1982421875 48.39990234375 642.3983154296875 34.699951171875Q659.598388671875 21 673.7984619140625 20V0Q644.1988525390625 2 603.79931640625 2.5Q563.3997802734375 3 521.80029296875 3Q475.6005859375 3 435.0008544921875 2.5Q394.401123046875 2 369.80126953125 0V20Q420.80126953125 22 434.50128173828125 37.5Q448.2012939453125 53 428.2012939453125 104L257.8006591796875 568.601318359375L276.2005615234375 594.80078125L123.7996826171875 198.5985107421875Q102.39990234375 143.59912109375 97.89996337890625 108.8994140625Q93.4000244140625 74.19970703125 102.79998779296875 55.1998291015625Q112.199951171875 36.199951171875 133.59991455078125 28.5999755859375Q154.9998779296875 21 185.39990234375 20V0Q152.0001220703125 2 122.10009765625 2.5Q92.2000732421875 3 60.80029296875 3Q39.400146484375 3 19.500244140625 2.5Q-0.399658203125 2 -15.399658203125 0V20Q6.4002685546875 24.4000244140625 28.30023193359375 47.099853515625Q50.2001953125 69.7996826171875 71.4000244140625 124.999267578125L298.600341796875 710.0001220703125Q314.599853515625 708.8001708984375 333.29925537109375 708.8001708984375Q351.9986572265625 708.8001708984375 367.9981689453125 710.0001220703125ZM437.80029296875 288V268H139.80029296875L149.80029296875 288Z" transform="translate(1246.000 0)"/></g></svg>